<svg width="18" height="19" viewBox="0 0 18 19" fill="none" xmlns="http://www.w3.org/2000/svg">
<path d="M16.5 0.987305H1.5C0.67125 0.987305 0 1.65567 0 2.48087V17.4165C0 18.2417 0.67125 18.91 1.5 18.91H9.75V12.189H7.5V9.20189H9.75V7.26997C9.75 4.95495 11.1698 3.69438 13.2443 3.69438C14.238 3.69438 15.0915 3.76831 15.3405 3.80117V6.22074L13.902 6.22149C12.774 6.22149 12.5557 6.75544 12.5557 7.53806V9.20189H15.8857L15.1357 12.189H12.5557V18.91H16.5C17.3288 18.91 18 18.2417 18 17.4165V2.48087C18 1.65567 17.3288 0.987305 16.5 0.987305Z" fill="#12284C"/>
</svg>
