<svg width="18" height="18" viewBox="0 0 18 18" fill="none" xmlns="http://www.w3.org/2000/svg">
<path d="M10.7626 7.23632C10.573 7.04573 10.363 6.8767 10.1361 6.73235C9.53516 6.34741 8.83642 6.14307 8.12268 6.14307C7.13208 6.1412 6.18178 6.53488 5.48273 7.23632L2.09092 10.6304C1.39281 11.3297 1.00063 12.277 1 13.265C0.998751 15.3265 2.66903 16.9987 4.73087 16.9999C5.71991 17.0034 6.66927 16.6119 7.36832 15.912L10.1683 13.1125C10.2192 13.0622 10.2476 12.9931 10.247 12.9216C10.2461 12.7744 10.1261 12.6557 9.9789 12.6566H9.87234C9.28735 12.6588 8.70767 12.5463 8.16581 12.3261C8.06581 12.2848 7.95112 12.3082 7.87519 12.3848L5.86179 14.4004C5.23649 15.0256 4.22307 15.0256 3.59777 14.4004C2.97246 13.7752 2.97246 12.7619 3.59777 12.1367L7.00302 8.73481C7.62769 8.11117 8.63955 8.11117 9.26423 8.73481C9.68515 9.13099 10.342 9.13099 10.7629 8.73481C10.9442 8.55359 11.0539 8.31332 11.0723 8.05743C11.0917 7.75217 10.9789 7.45285 10.7626 7.23632Z" fill="#12284C"/>
<path d="M15.9068 2.0934C14.4487 0.635532 12.085 0.635532 10.6269 2.0934L7.82977 4.8876C7.75289 4.96478 7.73071 5.08101 7.77383 5.18099C7.81633 5.28128 7.9157 5.34565 8.02445 5.34377H8.1232C8.70757 5.34284 9.28631 5.45594 9.82723 5.67715C9.92723 5.7184 10.0419 5.69496 10.1179 5.61841L12.1259 3.61345C12.7512 2.98825 13.7647 2.98825 14.39 3.61345C15.0153 4.23865 15.0153 5.25191 14.39 5.87712L11.8888 8.37543L11.8675 8.39949L10.9928 9.26871C10.3682 9.89236 9.35631 9.89236 8.73163 9.26871C8.3107 8.87253 7.65383 8.87253 7.2329 9.26871C7.05072 9.4515 6.94072 9.69395 6.92353 9.95141C6.90416 10.2567 7.01666 10.556 7.2329 10.7725C7.54165 11.0825 7.90258 11.3352 8.29945 11.5189C8.35538 11.5455 8.41132 11.5671 8.46757 11.5908C8.52351 11.6149 8.58226 11.6333 8.63819 11.6549C8.69413 11.6761 8.75288 11.6949 8.80881 11.7108L8.96631 11.7533C9.07287 11.7798 9.17975 11.8014 9.28912 11.8198C9.42068 11.8395 9.55349 11.8517 9.6863 11.8573H9.87286H9.8888L10.0488 11.8386C10.1075 11.8361 10.1688 11.8226 10.2382 11.8226H10.3288L10.5128 11.7961L10.5982 11.7802L10.7528 11.7483H10.7822C11.4372 11.5836 12.0353 11.2446 12.5128 10.7672L15.9074 7.37311C17.3649 5.91492 17.3649 3.55127 15.9068 2.0934Z" fill="#12284C"/>
</svg>
