<svg width="24" height="24" viewBox="0 0 24 24" fill="none" xmlns="http://www.w3.org/2000/svg">
<path fill-rule="evenodd" clip-rule="evenodd" d="M22 6.34782C21.2875 6.70254 20.575 6.82078 19.7437 6.93902C20.575 6.46606 21.1688 5.75662 21.4062 4.8107C20.6938 5.28366 19.8625 5.52014 18.9125 5.75662C18.2 5.04718 17.1313 4.57422 16.0625 4.57422C14.0437 4.57422 12.2625 6.34782 12.2625 8.47615C12.2625 8.83087 12.2625 9.06735 12.3813 9.30383C9.175 9.18559 6.20625 7.64846 4.30625 5.28366C3.95 5.87486 3.83125 6.46606 3.83125 7.29374C3.83125 8.59439 4.54375 9.77679 5.6125 10.4862C5.01875 10.4862 4.425 10.2498 3.83125 10.0133C3.83125 11.9051 5.1375 13.4422 6.91875 13.797C6.5625 13.9152 6.20625 13.9152 5.85 13.9152C5.6125 13.9152 5.375 13.9152 5.1375 13.797C5.6125 15.3341 7.0375 16.5165 8.81875 16.5165C7.5125 17.5806 5.85 18.1718 3.95 18.1718C3.59375 18.1718 3.35625 18.1718 3 18.1718C4.78125 19.236 6.8 19.9454 8.9375 19.9454C16.0625 19.9454 19.9813 14.0334 19.9813 8.94911C19.9813 8.83087 19.9813 8.59439 19.9813 8.47615C20.8125 7.88495 21.525 7.1755 22 6.34782Z" fill="#12284C"/>
</svg>
