<svg width="20" height="20" viewBox="0 0 20 20" fill="none" xmlns="http://www.w3.org/2000/svg">
<g clip-path="url(#clip0)">
<path d="M2.90087 5.8418H0.496392C0.373797 5.8418 0.274414 5.94118 0.274414 6.06377V8.67667C0.274414 8.79926 0.373797 8.89865 0.496392 8.89865H2.90087C3.02346 8.89865 3.12284 8.79926 3.12284 8.67667V6.06377C3.12284 5.94118 3.02346 5.8418 2.90087 5.8418Z" fill="#ECD0C7"/>
<path d="M14.6406 5.8418H12.2361C12.1135 5.8418 12.0142 5.94118 12.0142 6.06377V8.67667C12.0142 8.79926 12.1135 8.89865 12.2361 8.89865H14.6406C14.7632 8.89865 14.8626 8.79926 14.8626 8.67667V6.06377C14.8626 5.94118 14.7632 5.8418 14.6406 5.8418Z" fill="#ECD0C7"/>
<path d="M3.12294 18.0308C3.12294 18.0308 2.7366 19.5948 3.71093 19.5948H5.6833C5.6833 19.5948 5.88664 19.4507 5.88664 18.8136C5.87571 18.5023 5.90418 18.1909 5.97137 17.8867L3.12294 18.0308Z" fill="#ECD0C7"/>
<path d="M9.2047 18.0308C9.2047 18.0308 8.81666 19.5948 9.79099 19.5948H11.7651C11.7651 19.5948 11.9667 19.4507 11.9667 18.8136C11.9558 18.5023 11.9842 18.1909 12.0514 17.8867L9.2047 18.0308Z" fill="#ECD0C7"/>
<path d="M18.2244 1.69922H14.0645V3.12259H18.2244V1.69922Z" fill="#ECD0C7"/>
<path d="M7.34883 12.734C4.53937 12.4731 2.07221 12.2697 1.69434 11.8359V16.1145C3.6201 16.7476 5.63516 17.0669 7.66231 17.06C11.0784 17.06 13.432 16.1501 13.432 16.1501V11.8359C13.432 11.8359 10.1566 12.9933 7.34883 12.734ZM3.71077 15.6333C3.53032 15.6336 3.35384 15.5804 3.20366 15.4803C3.05348 15.3803 2.93637 15.2379 2.86717 15.0713C2.79796 14.9046 2.77976 14.7212 2.81488 14.5442C2.85 14.3672 2.93686 14.2046 3.06446 14.077C3.19205 13.9494 3.35465 13.8626 3.53164 13.8274C3.70864 13.7923 3.89208 13.8105 4.05873 13.8797C4.22538 13.9489 4.36774 14.0661 4.46778 14.2162C4.56782 14.3664 4.62105 14.5429 4.62071 14.7233C4.62071 14.8428 4.59717 14.9612 4.55145 15.0716C4.50572 15.182 4.43869 15.2823 4.3542 15.3668C4.2697 15.4513 4.16939 15.5183 4.05899 15.564C3.94859 15.6097 3.83027 15.6333 3.71077 15.6333ZM11.4275 15.6333C11.247 15.6336 11.0705 15.5804 10.9203 15.4803C10.7702 15.3803 10.6531 15.2379 10.5838 15.0713C10.5146 14.9046 10.4964 14.7212 10.5316 14.5442C10.5667 14.3672 10.6535 14.2046 10.7811 14.077C10.9087 13.9494 11.0713 13.8626 11.2483 13.8274C11.4253 13.7923 11.6088 13.8105 11.7754 13.8797C11.9421 13.9489 12.0844 14.0661 12.1845 14.2162C12.2845 14.3664 12.3377 14.5429 12.3374 14.7233C12.3374 14.8428 12.3139 14.9612 12.2681 15.0716C12.2224 15.182 12.1554 15.2823 12.0709 15.3668C11.9864 15.4513 11.8861 15.5183 11.7757 15.564C11.6653 15.6097 11.5469 15.6333 11.4275 15.6333Z" fill="#ECD0C7"/>
<path d="M16.8757 19.9949H0.269721C0.200423 19.9895 0.135724 19.9581 0.0885353 19.9071C0.0413462 19.856 0.0151367 19.7891 0.0151367 19.7196C0.0151367 19.6501 0.0413462 19.5831 0.0885353 19.5321C0.135724 19.481 0.200423 19.4497 0.269721 19.4442H16.6062V16.8771C16.6075 16.8059 16.6363 16.7379 16.6865 16.6874C16.7367 16.6369 16.8045 16.6077 16.8757 16.6059H19.4496V0.550707H9.99776C9.92846 0.545267 9.86376 0.513898 9.81657 0.462859C9.76938 0.41182 9.74317 0.344865 9.74317 0.275354C9.74317 0.205843 9.76938 0.138888 9.81657 0.0878487C9.86376 0.0368097 9.92846 0.00544034 9.99776 0L19.7241 0C19.7962 0.0013255 19.8649 0.0307778 19.9155 0.0820675C19.9662 0.133357 19.9948 0.202419 19.9952 0.274506V16.8805C19.9948 16.9534 19.9655 17.0232 19.9137 17.0747C19.862 17.1261 19.792 17.155 19.719 17.155H17.1519V19.7238C17.1505 19.7962 17.1209 19.8651 17.0692 19.9158C17.0175 19.9665 16.948 19.9949 16.8757 19.9949Z" fill="#C6927E"/>
<path d="M18.3005 3.3996H14.0643C13.991 3.3996 13.9208 3.3705 13.869 3.3187C13.8172 3.2669 13.7881 3.19665 13.7881 3.1234V1.69495C13.7894 1.62258 13.8191 1.55362 13.8708 1.50292C13.9224 1.45222 13.9919 1.42382 14.0643 1.42383H18.3005C18.3727 1.42382 18.442 1.45228 18.4934 1.50303C18.5448 1.55378 18.5741 1.62273 18.575 1.69495V3.11831C18.5759 3.15493 18.5695 3.19135 18.5561 3.22544C18.5427 3.25954 18.5226 3.2906 18.497 3.31681C18.4715 3.34303 18.4409 3.36386 18.4071 3.37807C18.3734 3.39229 18.3371 3.39961 18.3005 3.3996V3.3996ZM14.3388 2.84889H18.026V1.97454H14.3388V2.84889Z" fill="#C6927E"/>
<path d="M12.751 18.1626H2.3875C2.13208 18.1626 1.8871 18.0613 1.70633 17.8808C1.52557 17.7004 1.42379 17.4556 1.42334 17.2001V8.89716C1.42878 8.82786 1.46015 8.76317 1.51119 8.71598C1.56223 8.66879 1.62918 8.64258 1.69869 8.64258C1.7682 8.64258 1.83516 8.66879 1.8862 8.71598C1.93724 8.76317 1.96861 8.82786 1.97405 8.89716V17.2001C1.97405 17.2544 1.98475 17.308 2.00555 17.3581C2.02635 17.4082 2.05683 17.4536 2.09525 17.4919C2.13366 17.5302 2.17925 17.5605 2.22941 17.581C2.27956 17.6016 2.33329 17.6121 2.3875 17.6119H12.751C12.8602 17.6119 12.9649 17.5685 13.0421 17.4913C13.1193 17.4141 13.1627 17.3093 13.1627 17.2001V8.89716C13.1682 8.82786 13.1995 8.76317 13.2506 8.71598C13.3016 8.66879 13.3686 8.64258 13.4381 8.64258C13.5076 8.64258 13.5745 8.66879 13.6256 8.71598C13.6766 8.76317 13.708 8.82786 13.7134 8.89716V17.2001C13.713 17.4553 13.6114 17.6998 13.431 17.8802C13.2506 18.0606 13.0061 18.1622 12.751 18.1626V18.1626Z" fill="#C6927E"/>
<path d="M13.4372 6.11714C13.3646 6.11669 13.295 6.08763 13.2436 6.03625C13.1922 5.98486 13.1632 5.9153 13.1627 5.84263V5.7613C13.1627 5.65209 13.1193 5.54736 13.0421 5.47014C12.9649 5.39292 12.8602 5.34954 12.751 5.34954H2.3875C2.33329 5.34931 2.27956 5.3598 2.22941 5.38039C2.17925 5.40098 2.13366 5.43128 2.09525 5.46954C2.05683 5.50779 2.02635 5.55326 2.00555 5.60333C1.98475 5.6534 1.97405 5.70708 1.97405 5.7613V5.83585C1.96861 5.90515 1.93724 5.96985 1.8862 6.01704C1.83516 6.06423 1.7682 6.09044 1.69869 6.09044C1.62918 6.09044 1.56223 6.06423 1.51119 6.01704C1.46015 5.96985 1.42878 5.90515 1.42334 5.83585V5.7613C1.42379 5.50588 1.52557 5.26107 1.70633 5.08063C1.8871 4.90018 2.13208 4.79883 2.3875 4.79883H12.751C13.0061 4.79928 13.2506 4.90082 13.431 5.08122C13.6114 5.26162 13.713 5.50617 13.7134 5.7613V5.83585C13.7141 5.87255 13.7075 5.90901 13.6939 5.94311C13.6803 5.97721 13.6601 6.00826 13.6344 6.03445C13.6086 6.06064 13.578 6.08144 13.5441 6.09564C13.5103 6.10983 13.4739 6.11714 13.4372 6.11714V6.11714Z" fill="#C6927E"/>
<path d="M2.43497 9.17396H0.962467C0.707343 9.17352 0.462796 9.07197 0.282395 8.89157C0.101994 8.71117 0.000447981 8.46662 0 8.2115L0 6.52887C0.000447981 6.27375 0.101994 6.0292 0.282395 5.8488C0.462796 5.6684 0.707343 5.56685 0.962467 5.56641H2.43497C2.69039 5.56641 2.93537 5.66775 3.11614 5.8482C3.29691 6.02865 3.39869 6.27346 3.39914 6.52887V8.2115C3.39869 8.46691 3.29691 8.71172 3.11614 8.89217C2.93537 9.07262 2.69039 9.17396 2.43497 9.17396V9.17396ZM0.962467 6.12389C0.853262 6.12389 0.748529 6.16727 0.671309 6.24449C0.594089 6.32171 0.550707 6.42645 0.550707 6.53565V8.21827C0.55248 8.32646 0.59659 8.42964 0.673571 8.50567C0.750553 8.5817 0.85427 8.62452 0.962467 8.62495H2.43497C2.54463 8.62495 2.64979 8.58139 2.72733 8.50385C2.80487 8.42632 2.84843 8.32115 2.84843 8.2115V6.52887C2.84843 6.47466 2.83772 6.42098 2.81692 6.37091C2.79612 6.32084 2.76564 6.27537 2.72723 6.23711C2.68881 6.19886 2.64322 6.16856 2.59307 6.14797C2.54292 6.12738 2.48919 6.11689 2.43497 6.11711L0.962467 6.12389Z" fill="#C6927E"/>
<path d="M14.1743 9.17396H12.7086C12.5822 9.17396 12.457 9.14907 12.3402 9.1007C12.2235 9.05233 12.1174 8.98144 12.028 8.89206C11.9386 8.80269 11.8677 8.69659 11.8194 8.57982C11.771 8.46304 11.7461 8.33789 11.7461 8.2115V6.52887C11.7461 6.40248 11.771 6.27733 11.8194 6.16055C11.8677 6.04378 11.9386 5.93768 12.028 5.84831C12.1174 5.75893 12.2235 5.68804 12.3402 5.63967C12.457 5.5913 12.5822 5.56641 12.7086 5.56641H14.1811C14.4362 5.56685 14.6807 5.6684 14.8611 5.8488C15.0415 6.0292 15.1431 6.27375 15.1435 6.52887V8.2115C15.1433 8.3384 15.118 8.46401 15.0692 8.58112C15.0203 8.69824 14.9488 8.80455 14.8587 8.89397C14.7687 8.98339 14.6619 9.05415 14.5444 9.1022C14.427 9.15024 14.3012 9.17463 14.1743 9.17396ZM12.7086 6.11711C12.6543 6.11689 12.6006 6.12738 12.5505 6.14797C12.5003 6.16856 12.4547 6.19886 12.4163 6.23711C12.3779 6.27537 12.3474 6.32084 12.3266 6.37091C12.3058 6.42098 12.2951 6.47466 12.2951 6.52887V8.2115C12.2951 8.32115 12.3387 8.42631 12.4162 8.50385C12.4937 8.58139 12.5989 8.62495 12.7086 8.62495H14.1811C14.2906 8.6245 14.3955 8.5808 14.4729 8.50336C14.5504 8.42592 14.5941 8.32101 14.5945 8.2115V6.52887C14.5941 6.41951 14.5503 6.31478 14.4728 6.23761C14.3953 6.16044 14.2904 6.11711 14.1811 6.11711H12.7086Z" fill="#C6927E"/>
<path d="M5.28312 19.995H3.81061C3.55549 19.9945 3.31094 19.893 3.13054 19.7126C2.95014 19.5322 2.84859 19.2876 2.84814 19.0325V17.8819C2.84859 17.8093 2.87765 17.7397 2.92904 17.6883C2.98042 17.6369 3.04998 17.6079 3.12265 17.6074H5.97108C6.04388 17.6074 6.1137 17.6363 6.16518 17.6878C6.21666 17.7393 6.24558 17.8091 6.24558 17.8819V19.0325C6.24514 19.2876 6.14359 19.5322 5.96319 19.7126C5.78279 19.893 5.53824 19.9945 5.28312 19.995V19.995ZM3.39885 18.1632V19.0376C3.39885 19.1468 3.44223 19.2515 3.51945 19.3287C3.59667 19.4059 3.70141 19.4493 3.81061 19.4493H5.28312C5.39248 19.4493 5.49739 19.406 5.57488 19.3288C5.65237 19.2517 5.69612 19.1469 5.69657 19.0376V18.1632H3.39885Z" fill="#C6927E"/>
<path d="M11.3256 19.995H9.85309C9.59797 19.9945 9.35342 19.893 9.17302 19.7126C8.99262 19.5322 8.89107 19.2876 8.89062 19.0325V17.8819C8.89107 17.8093 8.92013 17.7397 8.97152 17.6883C9.0229 17.6369 9.09246 17.6079 9.16513 17.6074H12.0136C12.0864 17.6074 12.1562 17.6363 12.2077 17.6878C12.2591 17.7393 12.2881 17.8091 12.2881 17.8819V19.0325C12.2876 19.2876 12.1861 19.5322 12.0057 19.7126C11.8253 19.893 11.5807 19.9945 11.3256 19.995V19.995ZM9.44133 18.1632V19.0376C9.44133 19.1468 9.48471 19.2515 9.56193 19.3287C9.63915 19.4059 9.74389 19.4493 9.85309 19.4493H11.3256C11.435 19.4493 11.5399 19.406 11.6174 19.3288C11.6948 19.2517 11.7386 19.1469 11.7391 19.0376V18.1632H9.44133Z" fill="#C6927E"/>
<path d="M7.56923 13.0466C5.28676 13.0466 1.42334 12.7416 1.42334 11.5809C1.42878 11.5116 1.46015 11.4469 1.51119 11.3997C1.56223 11.3525 1.62918 11.3263 1.69869 11.3263C1.7682 11.3263 1.83516 11.3525 1.8862 11.3997C1.93724 11.4469 1.96861 11.5116 1.97405 11.5809C2.06555 11.8995 4.07012 12.501 7.56585 12.501C11.0616 12.501 13.0678 11.8995 13.1576 11.5758C13.1579 11.5399 13.1652 11.5043 13.1792 11.4712C13.1932 11.438 13.2137 11.408 13.2393 11.3828C13.265 11.3576 13.2954 11.3377 13.3288 11.3243C13.3622 11.3109 13.3979 11.3043 13.4338 11.3047C13.5068 11.3052 13.5766 11.3345 13.6281 11.3862C13.6795 11.438 13.7084 11.5079 13.7084 11.5809C13.7084 12.0655 13.0729 12.4282 11.7682 12.6959C10.3828 12.9459 8.97684 13.0633 7.56923 13.0466V13.0466Z" fill="#C6927E"/>
<path d="M7.5691 17.3353C5.28663 17.3353 1.42321 17.0252 1.42321 15.8662C1.42023 15.8282 1.42514 15.79 1.43762 15.754C1.45011 15.718 1.4699 15.685 1.49576 15.6571C1.52162 15.6291 1.55299 15.6068 1.58789 15.5915C1.62279 15.5762 1.66047 15.5684 1.69856 15.5684C1.73666 15.5684 1.77434 15.5762 1.80924 15.5915C1.84414 15.6068 1.87551 15.6291 1.90137 15.6571C1.92723 15.685 1.94702 15.718 1.95951 15.754C1.97199 15.79 1.9769 15.8282 1.97392 15.8662C2.06542 16.183 4.07 16.7846 7.56572 16.7846C11.0614 16.7846 13.0677 16.183 13.1575 15.8611C13.1575 15.8245 13.1648 15.7884 13.1791 15.7547C13.1933 15.721 13.2142 15.6906 13.2404 15.6651C13.2666 15.6397 13.2977 15.6198 13.3318 15.6066C13.3659 15.5934 13.4023 15.5871 13.4388 15.5883C13.5119 15.5892 13.5817 15.6188 13.6331 15.6709C13.6845 15.7229 13.7133 15.7931 13.7133 15.8662C13.7133 16.3491 13.0779 16.7134 11.7731 16.9795C10.3863 17.2315 8.97857 17.3506 7.5691 17.3353V17.3353Z" fill="#C6927E"/>
<path d="M12.0137 6.71282H3.12275C3.05345 6.70738 2.98875 6.67601 2.94156 6.62497C2.89437 6.57393 2.86816 6.50697 2.86816 6.43746C2.86816 6.36795 2.89437 6.301 2.94156 6.24996C2.98875 6.19892 3.05345 6.16755 3.12275 6.16211H12.0137C12.083 6.16755 12.1477 6.19892 12.1949 6.24996C12.2421 6.301 12.2683 6.36795 12.2683 6.43746C12.2683 6.50697 12.2421 6.57393 12.1949 6.62497C12.1477 6.67601 12.083 6.70738 12.0137 6.71282Z" fill="#C6927E"/>
<path d="M3.71104 15.9094C3.47645 15.9094 3.24712 15.8398 3.05206 15.7095C2.857 15.5792 2.70497 15.3939 2.61519 15.1772C2.52542 14.9604 2.50193 14.7219 2.54769 14.4918C2.59346 14.2618 2.70643 14.0504 2.87232 13.8845C3.0382 13.7186 3.24955 13.6057 3.47964 13.5599C3.70973 13.5141 3.94822 13.5376 4.16496 13.6274C4.3817 13.7172 4.56695 13.8692 4.69728 14.0643C4.82762 14.2593 4.89718 14.4887 4.89718 14.7232C4.89718 15.0378 4.77221 15.3395 4.54977 15.562C4.32733 15.7844 4.02563 15.9094 3.71104 15.9094ZM3.71104 14.0861C3.58496 14.0858 3.46161 14.1229 3.35661 14.1927C3.25162 14.2625 3.16969 14.3619 3.12121 14.4783C3.07273 14.5946 3.05987 14.7228 3.08426 14.8465C3.10865 14.9702 3.1692 15.0839 3.25823 15.1732C3.34727 15.2624 3.46079 15.3233 3.58443 15.348C3.70806 15.3727 3.83625 15.3602 3.95277 15.312C4.06929 15.2639 4.1689 15.1822 4.23898 15.0774C4.30906 14.9726 4.34647 14.8493 4.34648 14.7232C4.34603 14.5547 4.27899 14.3932 4.15997 14.2738C4.04095 14.1545 3.87959 14.087 3.71104 14.0861V14.0861Z" fill="#C6927E"/>
<path d="M11.4278 15.9094C11.1932 15.9094 10.9639 15.8398 10.7689 15.7095C10.5738 15.5792 10.4218 15.3939 10.332 15.1772C10.2422 14.9604 10.2187 14.7219 10.2645 14.4918C10.3103 14.2618 10.4232 14.0504 10.5891 13.8845C10.755 13.7186 10.9663 13.6057 11.1964 13.5599C11.4265 13.5141 11.665 13.5376 11.8818 13.6274C12.0985 13.7172 12.2837 13.8692 12.4141 14.0643C12.5444 14.2593 12.614 14.4887 12.614 14.7232C12.614 15.0378 12.489 15.3395 12.2666 15.562C12.0441 15.7844 11.7424 15.9094 11.4278 15.9094ZM11.4278 14.0861C11.3018 14.0858 11.1784 14.1229 11.0734 14.1927C10.9684 14.2625 10.8865 14.3619 10.838 14.4783C10.7895 14.5946 10.7767 14.7228 10.8011 14.8465C10.8254 14.9702 10.886 15.0839 10.975 15.1732C11.0641 15.2624 11.1776 15.3233 11.3012 15.348C11.4249 15.3727 11.5531 15.3602 11.6696 15.312C11.7861 15.2639 11.8857 15.1822 11.9558 15.0774C12.0259 14.9726 12.0633 14.8493 12.0633 14.7232C12.0628 14.5547 11.9958 14.3932 11.8768 14.2738C11.7577 14.1545 11.5964 14.087 11.4278 14.0861V14.0861Z" fill="#C6927E"/>
<path d="M14.0638 1.97368C14.0273 1.97369 13.9911 1.96643 13.9573 1.95234C13.9236 1.93825 13.893 1.9176 13.8673 1.89159C13.8416 1.86558 13.8213 1.83473 13.8077 1.80083C13.794 1.76693 13.7872 1.73065 13.7876 1.69409V0.274115C13.7931 0.204817 13.8244 0.140119 13.8755 0.0929298C13.9265 0.0457407 13.9935 0.0195313 14.063 0.0195312C14.1325 0.0195313 14.1994 0.0457407 14.2505 0.0929298C14.3015 0.140119 14.3329 0.204817 14.3383 0.274115V1.69409C14.3388 1.73051 14.332 1.76665 14.3184 1.80044C14.3049 1.83423 14.2847 1.86501 14.2592 1.89099C14.2337 1.91698 14.2033 1.93766 14.1698 1.95185C14.1362 1.96604 14.1002 1.97346 14.0638 1.97368V1.97368Z" fill="#C6927E"/>
<path d="M18.3004 1.97407C18.264 1.97408 18.2278 1.96682 18.1942 1.9527C18.1606 1.93859 18.1301 1.91792 18.1045 1.89188C18.079 1.86585 18.0588 1.83499 18.0453 1.8011C18.0319 1.7672 18.0253 1.73096 18.0259 1.69448V0.274506C18.0259 0.201703 18.0548 0.131881 18.1063 0.0804011C18.1578 0.0289211 18.2276 0 18.3004 0C18.3732 0 18.4431 0.0289211 18.4945 0.0804011C18.546 0.131881 18.5749 0.201703 18.5749 0.274506V1.69448C18.5756 1.73096 18.569 1.7672 18.5555 1.8011C18.542 1.83499 18.5219 1.86585 18.4964 1.89188C18.4708 1.91792 18.4403 1.93859 18.4067 1.9527C18.373 1.96682 18.3369 1.97408 18.3004 1.97407V1.97407Z" fill="#C6927E"/>
<path d="M19.7241 19.9949H16.8757C16.8064 19.9895 16.7417 19.9581 16.6945 19.9071C16.6473 19.856 16.6211 19.7891 16.6211 19.7196C16.6211 19.65 16.6473 19.5831 16.6945 19.5321C16.7417 19.481 16.8064 19.4496 16.8757 19.4442H19.7241C19.7621 19.4412 19.8003 19.4461 19.8363 19.4586C19.8722 19.4711 19.9053 19.4909 19.9332 19.5168C19.9612 19.5426 19.9835 19.574 19.9988 19.6089C20.014 19.6438 20.0219 19.6815 20.0219 19.7196C20.0219 19.7577 20.014 19.7953 19.9988 19.8302C19.9835 19.8651 19.9612 19.8965 19.9332 19.9224C19.9053 19.9482 19.8722 19.968 19.8363 19.9805C19.8003 19.993 19.7621 19.9979 19.7241 19.9949Z" fill="#C6927E"/>
</g>
<defs>
<clipPath id="clip0">
<rect width="20" height="20" fill="white"/>
</clipPath>
</defs>
</svg>
