<svg width="20" height="20" viewBox="0 0 20 20" fill="none" xmlns="http://www.w3.org/2000/svg">
<g clip-path="url(#clip0)">
<path d="M17.482 18.7097H16.2098V2.90323C16.2098 2.5469 15.921 2.25806 15.5647 2.25806H10.7259V0.645161C10.7259 0.288831 10.4371 0 10.0808 0H5.60497C5.24864 0 4.95981 0.288831 4.95981 0.645161V2.25806H4.43562C4.07929 2.25806 3.79046 2.5469 3.79046 2.90323V18.7097H2.51824C2.17074 18.7097 1.87187 18.9769 1.8557 19.324C1.83844 19.6945 2.13344 20 2.50014 20H7.09691C7.27505 20 7.41949 19.8556 7.41949 19.6774V15.9677H7.15546C6.80808 15.9677 6.50917 15.7008 6.4928 15.3538C6.47534 14.9833 6.77058 14.6774 7.13723 14.6774C7.33203 14.6774 13.006 14.6774 12.8448 14.6774C13.1922 14.6774 13.4911 14.9444 13.5075 15.2914C13.5249 15.6619 13.2297 15.9677 12.863 15.9677H12.5808V19.6774C12.5808 19.8556 12.7252 20 12.9034 20H17.5001C17.8668 20 18.1618 19.6945 18.1446 19.324C18.1284 18.9769 17.8295 18.7097 17.482 18.7097ZM8.42755 13.3468H7.70175C7.34546 13.3468 7.05659 13.0579 7.05659 12.7016C7.05659 12.3453 7.34546 12.0565 7.70175 12.0565H8.42755C8.78385 12.0565 9.07272 12.3453 9.07272 12.7016C9.07272 13.0579 8.78385 13.3468 8.42755 13.3468ZM8.42755 10.9274H7.70175C7.34546 10.9274 7.05659 10.6385 7.05659 10.2823C7.05659 9.92597 7.34546 9.6371 7.70175 9.6371H8.42755C8.78385 9.6371 9.07272 9.92597 9.07272 10.2823C9.07272 10.6385 8.78385 10.9274 8.42755 10.9274ZM8.42755 8.50806H7.70175C7.34546 8.50806 7.05659 8.21919 7.05659 7.8629C7.05659 7.50661 7.34546 7.21774 7.70175 7.21774H8.42755C8.78385 7.21774 9.07272 7.50661 9.07272 7.8629C9.07272 8.21919 8.78385 8.50806 8.42755 8.50806ZM8.42755 6.08871H7.70175C7.34546 6.08871 7.05659 5.79984 7.05659 5.44355C7.05659 5.08726 7.34546 4.79839 7.70175 4.79839H8.42755C8.78385 4.79839 9.07272 5.08726 9.07272 5.44355C9.07272 5.79984 8.78385 6.08871 8.42755 6.08871ZM12.2582 13.3468H11.5324C11.1761 13.3468 10.8872 13.0579 10.8872 12.7016C10.8872 12.3453 11.1761 12.0565 11.5324 12.0565H12.2582C12.6145 12.0565 12.9034 12.3453 12.9034 12.7016C12.9034 13.0579 12.6145 13.3468 12.2582 13.3468ZM12.2582 10.9274H11.5324C11.1761 10.9274 10.8872 10.6385 10.8872 10.2823C10.8872 9.92597 11.1761 9.6371 11.5324 9.6371H12.2582C12.6145 9.6371 12.9034 9.92597 12.9034 10.2823C12.9034 10.6385 12.6145 10.9274 12.2582 10.9274ZM12.2582 8.50806H11.5324C11.1761 8.50806 10.8872 8.21919 10.8872 7.8629C10.8872 7.50661 11.1761 7.21774 11.5324 7.21774H12.2582C12.6145 7.21774 12.9034 7.50661 12.9034 7.8629C12.9034 8.21919 12.6145 8.50806 12.2582 8.50806ZM12.2582 6.08871H11.5324C11.1761 6.08871 10.8872 5.79984 10.8872 5.44355C10.8872 5.08726 11.1761 4.79839 11.5324 4.79839H12.2582C12.6145 4.79839 12.9034 5.08726 12.9034 5.44355C12.9034 5.79984 12.6145 6.08871 12.2582 6.08871ZM8.70981 19.6774V16.2903C8.70981 16.1122 8.85425 15.9677 9.03239 15.9677H10.9679C11.146 15.9677 11.2905 16.1122 11.2905 16.2903V19.6774C11.2905 19.8556 11.146 20 10.9679 20H9.03239C8.85425 20 8.70981 19.8556 8.70981 19.6774Z" fill="#CC9980"/>
</g>
<defs>
<clipPath id="clip0">
<rect width="20" height="20" fill="white"/>
</clipPath>
</defs>
</svg>
