<svg width="20" height="24" viewBox="0 0 20 24" fill="none" xmlns="http://www.w3.org/2000/svg">
<path d="M18.9784 22.4516H17.4517V3.48388C17.4517 3.05628 17.1052 2.70967 16.6776 2.70967H10.8711V0.774193C10.8711 0.346597 10.5245 0 10.0969 0H4.72594C4.29834 0 3.95175 0.346597 3.95175 0.774193V2.70967H3.32272C2.89512 2.70967 2.54853 3.05628 2.54853 3.48388V22.4516H1.02186C0.604865 22.4516 0.246221 22.7723 0.226817 23.1888C0.206105 23.6334 0.560105 24 1.00014 24H6.51627C6.73004 24 6.90336 23.8267 6.90336 23.6129V19.1612H6.58653C6.16967 19.1612 5.81098 18.841 5.79134 18.4246C5.77038 17.98 6.12467 17.6129 6.56465 17.6129C6.79841 17.6129 13.6072 17.6129 13.4137 17.6129C13.8306 17.6129 14.1893 17.9333 14.209 18.3497C14.2299 18.7943 13.8756 19.1612 13.4356 19.1612H13.0969V23.6129C13.0969 23.8267 13.2702 24 13.4841 24H19.0001C19.4401 24 19.7941 23.6334 19.7735 23.1888C19.7541 22.7723 19.3954 22.4516 18.9784 22.4516ZM8.11304 16.0162H7.24208C6.81453 16.0162 6.46788 15.6695 6.46788 15.2419C6.46788 14.8144 6.81453 14.4678 7.24208 14.4678H8.11304C8.5406 14.4678 8.88724 14.8144 8.88724 15.2419C8.88724 15.6695 8.5406 16.0162 8.11304 16.0162ZM8.11304 13.1129H7.24208C6.81453 13.1129 6.46788 12.7662 6.46788 12.3388C6.46788 11.9112 6.81453 11.5645 7.24208 11.5645H8.11304C8.5406 11.5645 8.88724 11.9112 8.88724 12.3388C8.88724 12.7662 8.5406 13.1129 8.11304 13.1129ZM8.11304 10.2097H7.24208C6.81453 10.2097 6.46788 9.86303 6.46788 9.43548C6.46788 9.00793 6.81453 8.66129 7.24208 8.66129H8.11304C8.5406 8.66129 8.88724 9.00793 8.88724 9.43548C8.88724 9.86303 8.5406 10.2097 8.11304 10.2097ZM8.11304 7.30645H7.24208C6.81453 7.30645 6.46788 6.95981 6.46788 6.53226C6.46788 6.10471 6.81453 5.75807 7.24208 5.75807H8.11304C8.5406 5.75807 8.88724 6.10471 8.88724 6.53226C8.88724 6.95981 8.5406 7.30645 8.11304 7.30645ZM12.7098 16.0162H11.8389C11.4113 16.0162 11.0646 15.6695 11.0646 15.2419C11.0646 14.8144 11.4113 14.4678 11.8389 14.4678H12.7098C13.1374 14.4678 13.4841 14.8144 13.4841 15.2419C13.4841 15.6695 13.1374 16.0162 12.7098 16.0162ZM12.7098 13.1129H11.8389C11.4113 13.1129 11.0646 12.7662 11.0646 12.3388C11.0646 11.9112 11.4113 11.5645 11.8389 11.5645H12.7098C13.1374 11.5645 13.4841 11.9112 13.4841 12.3388C13.4841 12.7662 13.1374 13.1129 12.7098 13.1129ZM12.7098 10.2097H11.8389C11.4113 10.2097 11.0646 9.86303 11.0646 9.43548C11.0646 9.00793 11.4113 8.66129 11.8389 8.66129H12.7098C13.1374 8.66129 13.4841 9.00793 13.4841 9.43548C13.4841 9.86303 13.1374 10.2097 12.7098 10.2097ZM12.7098 7.30645H11.8389C11.4113 7.30645 11.0646 6.95981 11.0646 6.53226C11.0646 6.10471 11.4113 5.75807 11.8389 5.75807H12.7098C13.1374 5.75807 13.4841 6.10471 13.4841 6.53226C13.4841 6.95981 13.1374 7.30645 12.7098 7.30645ZM8.45175 23.6129V19.5484C8.45175 19.3346 8.62508 19.1612 8.83884 19.1612H11.1615C11.3752 19.1612 11.5486 19.3346 11.5486 19.5484V23.6129C11.5486 23.8267 11.3752 24 11.1615 24H8.83884C8.62508 24 8.45175 23.8267 8.45175 23.6129Z" fill="#12284C"/>
</svg>
