<svg width="20" height="20" viewBox="0 0 20 20" fill="none" xmlns="http://www.w3.org/2000/svg">
<g clip-path="url(#clip0)">
<path d="M13.4376 14.5723C13.27 14.5723 13.1062 14.6513 12.9669 14.7995C12.8275 14.9476 12.719 15.1581 12.6548 15.4045C12.5907 15.6508 12.5739 15.9218 12.6066 16.1833C12.6393 16.4448 12.72 16.685 12.8385 16.8736C12.957 17.0621 13.1079 17.1905 13.2723 17.2425C13.4366 17.2945 13.607 17.2678 13.7618 17.1658C13.9166 17.0638 14.0489 16.891 14.142 16.6693C14.2351 16.4476 14.2848 16.187 14.2848 15.9203C14.2848 15.5628 14.1956 15.2199 14.0367 14.9671C13.8778 14.7143 13.6623 14.5723 13.4376 14.5723V14.5723Z" fill="#ECD0C7"/>
<path d="M2.96208 10.3108C3.80418 8.74655 4.98453 7.74207 6.26971 7.49601C8.48779 7.0107 12.2834 7.13472 12.2834 7.13472L14.554 7.81954C14.554 7.81954 16.6383 8.898 17.0382 10.3162L19.7239 8.18083L9.99758 0.4375L0.413574 8.28598L2.96208 10.3108Z" fill="#ECD0C7"/>
<path d="M3.12301 10.8777C3.08072 10.8769 3.03905 10.8613 3.00101 10.8318L0.152581 8.56437C0.106892 8.52815 0.0684552 8.47238 0.0415882 8.40332C0.0147212 8.33426 0.000488281 8.25465 0.000488281 8.17343C0.000488281 8.09221 0.0147212 8.01259 0.0415882 7.94354C0.0684552 7.87448 0.106892 7.8187 0.152581 7.78248L9.87723 0.0445489C9.91533 0.0139742 9.95741 -0.00195313 10.0001 -0.00195312C10.0427 -0.00195313 10.0848 0.0139742 10.1229 0.0445489L19.8476 7.78248C19.8933 7.8187 19.9317 7.87448 19.9586 7.94354C19.9854 8.01259 19.9997 8.09221 19.9997 8.17343C19.9997 8.25465 19.9854 8.33426 19.9586 8.40332C19.9317 8.47238 19.8933 8.52815 19.8476 8.56437L16.9991 10.8318C16.9665 10.8627 16.9302 10.8825 16.8925 10.89C16.8548 10.8975 16.8166 10.8925 16.7801 10.8755C16.7437 10.8584 16.7099 10.8295 16.6808 10.7907C16.6517 10.7519 16.6279 10.704 16.611 10.6499C16.594 10.5958 16.5843 10.5367 16.5824 10.4764C16.5804 10.4161 16.5863 10.3557 16.5997 10.2992C16.613 10.2426 16.6336 10.1911 16.6601 10.1477C16.6865 10.1044 16.7183 10.0702 16.7534 10.0472L19.1088 8.15995L9.99754 0.926188L0.889681 8.17343L3.24671 10.0607C3.30165 10.1056 3.34555 10.1785 3.3714 10.2677C3.39725 10.357 3.40356 10.4574 3.38932 10.553C3.37508 10.6487 3.3411 10.7339 3.29283 10.7952C3.24456 10.8565 3.18477 10.8903 3.12301 10.8911V10.8777Z" fill="#C6927E"/>
<path d="M16.8757 16.3498C16.8033 16.3469 16.7345 16.299 16.6841 16.2163C16.6338 16.1336 16.6058 16.0228 16.6063 15.9076V10.4398C16.6063 8.98928 13.8951 7.37429 9.99776 7.37429C6.10045 7.37429 3.39775 8.99198 3.39775 10.4398V15.9076C3.40073 15.968 3.39582 16.0288 3.38334 16.086C3.37085 16.1433 3.35105 16.1958 3.32519 16.2403C3.29933 16.2848 3.26797 16.3203 3.23307 16.3446C3.19817 16.3689 3.16049 16.3815 3.12239 16.3815C3.0843 16.3815 3.04662 16.3689 3.01172 16.3446C2.97682 16.3203 2.94545 16.2848 2.91959 16.2403C2.89373 16.1958 2.87393 16.1433 2.86145 16.086C2.84896 16.0288 2.84406 15.968 2.84704 15.9076V10.4398C2.84704 7.87847 6.53085 6.49805 9.99776 6.49805C13.4647 6.49805 17.1502 7.87847 17.1502 10.4398V15.9076C17.1504 15.9653 17.1435 16.0225 17.1298 16.076C17.1161 16.1294 17.096 16.1781 17.0705 16.2191C17.045 16.2602 17.0147 16.2929 16.9812 16.3153C16.9478 16.3377 16.9119 16.3494 16.8757 16.3498Z" fill="#C6927E"/>
<path d="M13.4371 14.572C13.3643 14.572 13.2945 14.5259 13.243 14.444C13.1915 14.3621 13.1626 14.251 13.1626 14.1352V3.17265C13.168 3.06239 13.1994 2.95945 13.2504 2.88436C13.3015 2.80928 13.3684 2.76758 13.438 2.76758C13.5075 2.76758 13.5744 2.80928 13.6255 2.88436C13.6765 2.95945 13.7079 3.06239 13.7133 3.17265V14.1352C13.7133 14.1928 13.7061 14.2498 13.6922 14.3029C13.6783 14.3561 13.658 14.4044 13.6323 14.445C13.6066 14.4856 13.5762 14.5177 13.5427 14.5395C13.5092 14.5613 13.4733 14.5723 13.4371 14.572V14.572Z" fill="#C6927E"/>
<path d="M13.4376 18.1224C13.1625 18.1224 12.8936 17.9926 12.6648 17.7495C12.4361 17.5064 12.2578 17.1609 12.1524 16.7566C12.0471 16.3522 12.0195 15.9073 12.073 15.478C12.1265 15.0487 12.2589 14.6543 12.4533 14.3446C12.6476 14.0349 12.8954 13.8239 13.1651 13.7382C13.4349 13.6525 13.7145 13.6959 13.9688 13.863C14.223 14.0302 14.4404 14.3135 14.5934 14.6771C14.7465 15.0408 14.8284 15.4685 14.8287 15.9062C14.8289 16.1971 14.7931 16.4852 14.7233 16.7541C14.6535 17.0229 14.5511 17.2673 14.4219 17.4731C14.2927 17.6789 14.1392 17.8422 13.9703 17.9536C13.8014 18.065 13.6204 18.1224 13.4376 18.1224V18.1224ZM13.4376 14.5716C13.27 14.5716 13.1062 14.6506 12.9669 14.7988C12.8275 14.9469 12.7189 15.1574 12.6548 15.4037C12.5907 15.6501 12.5739 15.9211 12.6066 16.1826C12.6393 16.4441 12.72 16.6843 12.8385 16.8729C12.957 17.0614 13.1079 17.1898 13.2723 17.2418C13.4366 17.2938 13.607 17.2671 13.7618 17.1651C13.9166 17.0631 14.0489 16.8903 14.142 16.6686C14.2351 16.4469 14.2848 16.1863 14.2848 15.9196C14.2848 15.5621 14.1955 15.2192 14.0366 14.9664C13.8778 14.7136 13.6623 14.5716 13.4376 14.5716V14.5716Z" fill="#C6927E"/>
<path d="M9.99763 19.9998C8.1337 19.9998 6.37483 19.6115 5.04804 18.9078C3.60773 18.1421 2.84521 17.1068 2.84521 15.9097C2.85066 15.7995 2.88202 15.6965 2.93306 15.6214C2.9841 15.5464 3.05106 15.5046 3.12057 15.5046C3.19008 15.5046 3.25703 15.5464 3.30807 15.6214C3.35911 15.6965 3.39048 15.7995 3.39592 15.9097C3.39592 17.4304 6.1071 19.1235 10.0044 19.1235C13.9017 19.1235 16.6061 17.4304 16.6061 15.907C16.6116 15.7968 16.6429 15.6938 16.694 15.6187C16.745 15.5437 16.812 15.502 16.8815 15.502C16.951 15.502 17.0179 15.5437 17.069 15.6187C17.12 15.6938 17.1514 15.7968 17.1568 15.907C17.1568 17.1041 16.3943 18.1394 14.954 18.9051C13.6238 19.6115 11.8616 19.9998 9.99763 19.9998Z" fill="#C6927E"/>
</g>
<defs>
<clipPath id="clip0">
<rect width="20" height="20" fill="white"/>
</clipPath>
</defs>
</svg>
