<svg width="20" height="20" viewBox="0 0 20 20" fill="none" xmlns="http://www.w3.org/2000/svg">
<g clip-path="url(#clip0)">
<path d="M12.5729 0.320312H9.99902V2.22903H12.5729V0.320312Z" fill="#ECD0C7"/>
<path d="M5.97822 1.38281H3.4043V3.29153H5.97822V1.38281Z" fill="#ECD0C7"/>
<path d="M19.1677 1.38281H16.5938V3.29153H19.1677V1.38281Z" fill="#ECD0C7"/>
<path d="M3.87327 11.918H5.12549C5.15605 11.918 5.18536 11.9321 5.20697 11.9573C5.22858 11.9825 5.24072 12.0167 5.24072 12.0523V13.1667H3.75635V12.0523C3.75635 12.0167 3.76849 11.9825 3.7901 11.9573C3.81171 11.9321 3.84101 11.918 3.87157 11.918H3.87327Z" fill="#ECD0C7"/>
<path d="M14.8745 11.918H16.1267C16.1573 11.918 16.1866 11.9321 16.2082 11.9573C16.2298 11.9825 16.2419 12.0167 16.2419 12.0523V13.1667H14.7593V12.0523C14.7593 12.0347 14.7623 12.0172 14.768 12.0009C14.7738 11.9846 14.7823 11.9698 14.793 11.9573C14.8037 11.9448 14.8164 11.9349 14.8304 11.9282C14.8444 11.9214 14.8594 11.918 14.8745 11.918Z" fill="#ECD0C7"/>
<path d="M3.87327 16.248H5.12549C5.15605 16.248 5.18536 16.2622 5.20697 16.2874C5.22858 16.3126 5.24072 16.3468 5.24072 16.3824V17.4968H3.75635V16.3824C3.75635 16.3468 3.76849 16.3126 3.7901 16.2874C3.81171 16.2622 3.84101 16.248 3.87157 16.248H3.87327Z" fill="#ECD0C7"/>
<path d="M14.8745 16.248H16.1267C16.1573 16.248 16.1866 16.2622 16.2082 16.2874C16.2298 16.3126 16.2419 16.3468 16.2419 16.3824V17.4968H14.7593V16.3824C14.7593 16.3648 14.7623 16.3473 14.768 16.331C14.7738 16.3147 14.7823 16.2999 14.793 16.2874C14.8037 16.2749 14.8164 16.265 14.8304 16.2583C14.8444 16.2515 14.8594 16.248 14.8745 16.248V16.248Z" fill="#ECD0C7"/>
<path d="M6.99499 15.0273H13.0053C13.0185 15.0273 13.0315 15.0304 13.0436 15.0362C13.0557 15.0421 13.0667 15.0507 13.076 15.0615C13.0853 15.0723 13.0927 15.0852 13.0977 15.0993C13.1027 15.1135 13.1053 15.1286 13.1053 15.1439V19.6766H6.89502V15.1439C6.89502 15.1286 6.89761 15.1135 6.90263 15.0993C6.90765 15.0852 6.91502 15.0723 6.9243 15.0615C6.93359 15.0507 6.94461 15.0421 6.95674 15.0362C6.96887 15.0304 6.98187 15.0273 6.99499 15.0273V15.0273Z" fill="#ECD0C7"/>
<path d="M12.575 2.55088H9.99765C9.92498 2.55036 9.85542 2.51647 9.80404 2.45655C9.75265 2.39664 9.72359 2.31552 9.72314 2.23078V0.320095C9.72359 0.23536 9.75265 0.154244 9.80404 0.0943263C9.85542 0.0344089 9.92498 0.000518268 9.99765 0L12.5733 0C12.6459 0.000518268 12.7155 0.0344089 12.7669 0.0943263C12.8183 0.154244 12.8473 0.23536 12.8478 0.320095V2.23078C12.8473 2.31518 12.8185 2.396 12.7675 2.45586C12.7165 2.51573 12.6473 2.54985 12.575 2.55088V2.55088ZM10.2755 1.90871H12.2988V0.642166H10.2755V1.90871Z" fill="#C6927E"/>
<path d="M5.98001 3.61338H3.40439C3.33172 3.61286 3.26216 3.57897 3.21078 3.51905C3.15939 3.45913 3.13033 3.37802 3.12988 3.29328V1.38259C3.13033 1.29786 3.15939 1.21674 3.21078 1.15683C3.26216 1.09691 3.33172 1.06302 3.40439 1.0625H5.98001C6.05267 1.06302 6.12224 1.09691 6.17362 1.15683C6.225 1.21674 6.25407 1.29786 6.25451 1.38259V3.29328C6.25407 3.37802 6.225 3.45913 6.17362 3.51905C6.12224 3.57897 6.05267 3.61286 5.98001 3.61338V3.61338ZM3.6789 2.96331H5.7038V1.70467H3.6789V2.96331Z" fill="#C6927E"/>
<path d="M19.1695 3.61338H16.5938C16.5212 3.61286 16.4516 3.57897 16.4002 3.51905C16.3488 3.45913 16.3198 3.37802 16.3193 3.29328V1.38259C16.3198 1.29786 16.3488 1.21674 16.4002 1.15683C16.4516 1.09691 16.5212 1.06302 16.5938 1.0625H19.1695C19.2423 1.0625 19.3121 1.09622 19.3636 1.15625C19.415 1.21628 19.444 1.2977 19.444 1.38259V3.29328C19.444 3.37818 19.415 3.4596 19.3636 3.51962C19.3121 3.57965 19.2423 3.61338 19.1695 3.61338V3.61338ZM16.87 2.96331H18.9034V1.70467H16.87V2.96331Z" fill="#C6927E"/>
<path d="M5.23911 13.4886H3.75644C3.68377 13.4881 3.61421 13.4542 3.56283 13.3942C3.51144 13.3343 3.48238 13.2532 3.48193 13.1685V12.7219C3.48193 12.4243 3.58334 12.1388 3.76383 11.9283C3.94433 11.7179 4.18914 11.5996 4.4444 11.5996H4.55285C4.80811 11.5996 5.05292 11.7179 5.23341 11.9283C5.41391 12.1388 5.51531 12.4243 5.51531 12.7219V13.1685C5.51487 13.2535 5.48557 13.335 5.43382 13.3949C5.38207 13.4549 5.31207 13.4886 5.23911 13.4886ZM4.03264 12.8444H4.96461V12.718C4.96483 12.6547 4.95434 12.5921 4.93375 12.5336C4.91316 12.4751 4.88286 12.422 4.84461 12.3772C4.80635 12.3324 4.76088 12.2968 4.71081 12.2726C4.66075 12.2483 4.60706 12.2358 4.55285 12.2358H4.4444C4.39018 12.2358 4.3365 12.2483 4.28643 12.2726C4.23637 12.2968 4.1909 12.3324 4.15264 12.3772C4.11438 12.422 4.08409 12.4751 4.0635 12.5336C4.0429 12.5921 4.03242 12.6547 4.03264 12.718V12.8444Z" fill="#C6927E"/>
<path d="M16.2416 13.4886H14.7589C14.6862 13.4881 14.6166 13.4542 14.5653 13.3942C14.5139 13.3343 14.4848 13.2532 14.4844 13.1685V12.7219C14.4844 12.4243 14.5858 12.1388 14.7663 11.9283C14.9468 11.7179 15.1916 11.5996 15.4468 11.5996H15.5553C15.8106 11.5996 16.0554 11.7179 16.2359 11.9283C16.4164 12.1388 16.5178 12.4243 16.5178 12.7219V13.1685C16.5173 13.2535 16.488 13.335 16.4363 13.3949C16.3845 13.4549 16.3145 13.4886 16.2416 13.4886V13.4886ZM15.0351 12.8444H15.967V12.718C15.9673 12.6547 15.9568 12.5921 15.9362 12.5336C15.9156 12.4751 15.8853 12.422 15.847 12.3772C15.8088 12.3324 15.7633 12.2968 15.7133 12.2726C15.6632 12.2483 15.6095 12.2358 15.5553 12.2358H15.4468C15.3926 12.2358 15.3389 12.2483 15.2889 12.2726C15.2388 12.2968 15.1933 12.3324 15.1551 12.3772C15.1168 12.422 15.0865 12.4751 15.0659 12.5336C15.0453 12.5921 15.0349 12.6547 15.0351 12.718V12.8444Z" fill="#C6927E"/>
<path d="M5.23911 17.8167H3.75644C3.72039 17.8167 3.6847 17.8084 3.65139 17.7923C3.61809 17.7762 3.58783 17.7527 3.56233 17.7229C3.53684 17.6932 3.51662 17.6579 3.50283 17.6191C3.48903 17.5803 3.48193 17.5386 3.48193 17.4966V17.05C3.48238 16.7525 3.58393 16.4674 3.76433 16.257C3.94473 16.0467 4.18928 15.9283 4.4444 15.9277H4.55285C4.80797 15.9283 5.05252 16.0467 5.23292 16.257C5.41332 16.4674 5.51487 16.7525 5.51531 17.05V17.4966C5.51532 17.5388 5.50816 17.5806 5.49426 17.6195C5.48036 17.6585 5.45999 17.6939 5.43432 17.7236C5.40865 17.7534 5.37818 17.7769 5.34468 17.7929C5.31118 17.8089 5.27531 17.8169 5.23911 17.8167V17.8167ZM4.03264 17.1765H4.96461V17.05C4.96461 16.9227 4.92123 16.8006 4.84401 16.7105C4.76679 16.6205 4.66205 16.5699 4.55285 16.5699H4.4444C4.3352 16.5699 4.23046 16.6205 4.15324 16.7105C4.07602 16.8006 4.03264 16.9227 4.03264 17.05V17.1765Z" fill="#C6927E"/>
<path d="M16.2416 17.8167H14.7589C14.7228 17.8167 14.6871 17.8084 14.6538 17.7923C14.6205 17.7762 14.5903 17.7527 14.5648 17.7229C14.5393 17.6932 14.5191 17.6579 14.5053 17.6191C14.4915 17.5803 14.4844 17.5386 14.4844 17.4966V17.05C14.4848 16.7525 14.5864 16.4674 14.7668 16.257C14.9472 16.0467 15.1917 15.9283 15.4468 15.9277H15.5553C15.8104 15.9283 16.055 16.0467 16.2354 16.257C16.4158 16.4674 16.5173 16.7525 16.5178 17.05V17.4966C16.5178 17.5388 16.5106 17.5806 16.4967 17.6195C16.4828 17.6585 16.4624 17.6939 16.4368 17.7236C16.4111 17.7534 16.3806 17.7769 16.3471 17.7929C16.3136 17.8089 16.2777 17.8169 16.2416 17.8167V17.8167ZM15.0351 17.1765H15.967V17.05C15.967 16.987 15.9564 16.9246 15.9357 16.8663C15.915 16.808 15.8847 16.7551 15.8464 16.7105C15.8082 16.6659 15.7628 16.6306 15.7129 16.6064C15.6629 16.5823 15.6094 16.5699 15.5553 16.5699H15.4468C15.3376 16.5699 15.2329 16.6205 15.1557 16.7105C15.0785 16.8006 15.0351 16.9227 15.0351 17.05V17.1765Z" fill="#C6927E"/>
<path d="M9.99745 10.8057C7.46759 10.8057 5.1885 10.2584 3.89731 9.34154C3.85709 9.3131 3.82381 9.27309 3.80067 9.22534C3.77752 9.17759 3.76529 9.12371 3.76514 9.06887C3.76532 9.01376 3.77756 8.95962 3.80068 8.91156C3.82381 8.8635 3.85707 8.82311 3.89731 8.79422C5.18511 7.8774 7.45572 7.33008 9.99745 7.33008C12.5392 7.33008 14.8081 7.8774 16.0976 8.79422C16.1378 8.82311 16.1711 8.8635 16.1942 8.91156C16.2173 8.95962 16.2296 9.01376 16.2298 9.06887C16.2296 9.12371 16.2174 9.17759 16.1942 9.22534C16.1711 9.27309 16.1378 9.3131 16.0976 9.34154C14.8098 10.2584 12.5392 10.8057 9.99745 10.8057ZM4.62932 9.06887C5.87985 9.75252 7.87257 10.1655 9.99745 10.1655C12.1223 10.1655 14.1167 9.75252 15.369 9.06887C14.1167 8.38521 12.1257 7.97224 9.99745 7.97224C7.86918 7.97224 5.87985 8.38521 4.62932 9.06887Z" fill="#C6927E"/>
<path d="M9.99772 3.96385C9.92474 3.96333 9.85491 3.92917 9.80346 3.86882C9.75202 3.80848 9.72314 3.72686 9.72314 3.64178V0.320301C9.72859 0.239495 9.75996 0.164052 9.81101 0.109026C9.86207 0.0539997 9.92904 0.0234375 9.99857 0.0234375C10.0681 0.0234375 10.1351 0.0539997 10.1861 0.109026C10.2372 0.164052 10.2685 0.239495 10.274 0.320301V3.64178C10.274 3.7272 10.2449 3.80912 10.1931 3.86952C10.1413 3.92992 10.071 3.96385 9.99772 3.96385V3.96385Z" fill="#C6927E"/>
<path d="M3.40446 5.02614C3.33148 5.02562 3.26165 4.99146 3.2102 4.93112C3.15876 4.87077 3.12988 4.78915 3.12988 4.70407V1.38259C3.12988 1.2977 3.15881 1.21628 3.2103 1.15625C3.2618 1.09622 3.33164 1.0625 3.40446 1.0625C3.47728 1.0625 3.54712 1.09622 3.59861 1.15625C3.65011 1.21628 3.67904 1.2977 3.67904 1.38259V4.70407C3.67926 4.74627 3.67232 4.78811 3.65862 4.82717C3.64492 4.86624 3.62473 4.90176 3.59922 4.93169C3.5737 4.96163 3.54335 4.98538 3.50993 5.00159C3.4765 5.0178 3.44066 5.02614 3.40446 5.02614V5.02614Z" fill="#C6927E"/>
<path d="M16.5939 5.02635C16.5209 5.02583 16.4511 4.99167 16.3997 4.93132C16.3482 4.87098 16.3193 4.78936 16.3193 4.70428V1.3828C16.3248 1.30199 16.3562 1.22655 16.4072 1.17153C16.4583 1.1165 16.5252 1.08594 16.5948 1.08594C16.6643 1.08594 16.7313 1.1165 16.7823 1.17153C16.8334 1.22655 16.8647 1.30199 16.8702 1.3828V4.70428C16.8702 4.7897 16.8411 4.87162 16.7893 4.93202C16.7375 4.99242 16.6672 5.02635 16.5939 5.02635V5.02635Z" fill="#C6927E"/>
<path d="M9.99746 11.9807C4.3921 11.9807 0 10.0759 0 7.6495C0 5.2231 4.3921 3.32031 9.99746 3.32031C15.6028 3.32031 19.9949 5.22112 19.9949 7.6495C19.9949 10.0779 15.6062 11.9807 9.99746 11.9807ZM9.99746 3.96248C4.34466 3.96248 0.549013 5.86922 0.549013 7.6495C0.549013 9.42978 4.34635 11.3385 9.99746 11.3385C15.6486 11.3385 19.4476 9.43176 19.4476 7.6495C19.4476 5.86724 15.652 3.96248 9.99746 3.96248V3.96248Z" fill="#C6927E"/>
<path d="M3.94988 9.31935C3.88775 9.32014 3.82723 9.29634 3.77821 9.25182C3.72919 9.20731 3.69457 9.14471 3.68001 9.07428C3.66545 9.00385 3.67181 8.92974 3.69805 8.86407C3.7243 8.79839 3.76887 8.74505 3.82449 8.71275C5.23599 7.87299 7.55235 7.36914 9.99919 7.36914C12.446 7.36914 14.7624 7.87102 16.1739 8.71275C16.2391 8.75074 16.2886 8.81736 16.3116 8.89796C16.3347 8.97855 16.3293 9.06652 16.2967 9.14251C16.2642 9.21849 16.207 9.27627 16.1379 9.30314C16.0688 9.33 15.9934 9.32375 15.9282 9.28576C14.5895 8.4954 12.3698 8.01328 9.9975 8.01328C7.62522 8.01328 5.41222 8.4954 4.07527 9.28576C4.03656 9.30906 3.99343 9.32061 3.94988 9.31935Z" fill="#C6927E"/>
<path d="M9.9974 10.8072C5.92047 10.8072 2.84668 9.45177 2.84668 7.6458C2.84668 5.83984 5.92047 4.48438 9.9974 4.48438C14.0743 4.48438 17.1498 5.84181 17.1498 7.6458C17.1498 9.4498 14.076 10.8072 9.9974 10.8072ZM9.9974 5.1384C6.10856 5.1384 3.39739 6.46224 3.39739 7.65173C3.39739 8.84122 6.10856 10.167 10.0059 10.167C13.9032 10.167 16.6144 8.84122 16.6144 7.65173C16.6144 6.46224 13.8947 5.1384 9.9974 5.1384Z" fill="#C6927E"/>
<path d="M9.9975 11.9821C9.92452 11.981 9.85486 11.9464 9.80373 11.8856C9.7526 11.8249 9.72416 11.7431 9.72461 11.658V10.4863C9.73006 10.4055 9.76143 10.3301 9.81249 10.275C9.86354 10.22 9.93051 10.1895 10 10.1895C10.0696 10.1895 10.1365 10.22 10.1876 10.275C10.2386 10.3301 10.27 10.4055 10.2755 10.4863V11.658C10.2757 11.7006 10.2687 11.7429 10.2548 11.7823C10.2409 11.8218 10.2204 11.8576 10.1946 11.8877C10.1687 11.9179 10.138 11.9417 10.1041 11.9579C10.0703 11.9741 10.0341 11.9823 9.9975 11.9821V11.9821Z" fill="#C6927E"/>
<path d="M9.99772 5.13636C9.92503 5.13585 9.85545 5.10196 9.80406 5.04204C9.75266 4.98212 9.72359 4.901 9.72314 4.81627V3.64061C9.72859 3.55981 9.75996 3.48436 9.81101 3.42934C9.86207 3.37431 9.92904 3.34375 9.99857 3.34375C10.0681 3.34375 10.1351 3.37431 10.1861 3.42934C10.2372 3.48436 10.2685 3.55981 10.274 3.64061V4.81627C10.2735 4.90134 10.2442 4.98276 10.1925 5.04273C10.1407 5.1027 10.0707 5.13637 9.99772 5.13636V5.13636Z" fill="#C6927E"/>
<path d="M3.12303 7.97128H0.274603C0.205306 7.96494 0.140607 7.92836 0.0934181 7.86884C0.046229 7.80933 0.0200195 7.73125 0.0200195 7.6502C0.0200195 7.56914 0.046229 7.49107 0.0934181 7.43155C0.140607 7.37204 0.205306 7.33546 0.274603 7.32911H3.12303C3.16101 7.32564 3.19919 7.33136 3.23518 7.34592C3.27117 7.36048 3.30418 7.38356 3.33215 7.41371C3.36012 7.44387 3.38244 7.48044 3.39771 7.52114C3.41297 7.56184 3.42085 7.60578 3.42085 7.6502C3.42085 7.69462 3.41297 7.73855 3.39771 7.77925C3.38244 7.81995 3.36012 7.85652 3.33215 7.88668C3.30418 7.91683 3.27117 7.93992 3.23518 7.95448C3.19919 7.96904 3.16101 7.97476 3.12303 7.97128Z" fill="#C6927E"/>
<path d="M19.7241 7.97128H16.8757C16.8064 7.96494 16.7417 7.92836 16.6945 7.86884C16.6473 7.80933 16.6211 7.73125 16.6211 7.6502C16.6211 7.56914 16.6473 7.49107 16.6945 7.43155C16.7417 7.37204 16.8064 7.33546 16.8757 7.32911H19.7241C19.7621 7.32564 19.8003 7.33136 19.8363 7.34592C19.8722 7.36048 19.9053 7.38356 19.9332 7.41371C19.9612 7.44387 19.9835 7.48044 19.9988 7.52114C20.014 7.56184 20.0219 7.60578 20.0219 7.6502C20.0219 7.69462 20.014 7.73855 19.9988 7.77925C19.9835 7.81995 19.9612 7.85652 19.9332 7.88668C19.9053 7.91683 19.8722 7.93992 19.8363 7.95448C19.8003 7.96904 19.7621 7.97476 19.7241 7.97128V7.97128Z" fill="#C6927E"/>
<path d="M5.33606 5.88816C5.30256 5.88833 5.26929 5.88164 5.23778 5.8684L3.30606 5.00493C3.24686 4.96815 3.20126 4.90736 3.17787 4.83404C3.15448 4.76072 3.15492 4.67996 3.17912 4.607C3.20331 4.53404 3.24958 4.47393 3.30918 4.43804C3.36878 4.40214 3.4376 4.39294 3.50262 4.41216L5.43434 5.27563C5.49393 5.30263 5.54357 5.35304 5.57469 5.41816C5.60582 5.48327 5.61648 5.55901 5.60483 5.63232C5.59318 5.70562 5.55995 5.77188 5.51089 5.81967C5.46182 5.86746 5.39999 5.89378 5.33606 5.89409V5.88816Z" fill="#C6927E"/>
<path d="M16.5944 10.9185C16.5608 10.918 16.5275 10.9106 16.4961 10.8968L14.5728 10.0333C14.513 9.99672 14.4669 9.93573 14.4432 9.86196C14.4195 9.7882 14.42 9.70685 14.4445 9.63348C14.4691 9.5601 14.516 9.49985 14.5762 9.46425C14.6365 9.42866 14.7058 9.4202 14.7711 9.44052L16.7028 10.304C16.7618 10.3319 16.8108 10.3829 16.8413 10.4481C16.8718 10.5133 16.8821 10.5888 16.8703 10.6619C16.8585 10.7349 16.8255 10.8009 16.7767 10.8488C16.728 10.8966 16.6666 10.9233 16.6028 10.9244L16.5944 10.9185Z" fill="#C6927E"/>
<path d="M14.6622 5.88915C14.6075 5.88994 14.5538 5.87152 14.5082 5.83628C14.4626 5.80104 14.4271 5.75062 14.4064 5.69156C14.3804 5.61214 14.3823 5.52396 14.4118 5.44623C14.4414 5.3685 14.496 5.30753 14.564 5.27662L16.4957 4.41513C16.5609 4.39481 16.6303 4.40326 16.6906 4.43886C16.7508 4.47446 16.7977 4.53471 16.8222 4.60809C16.8468 4.68146 16.8472 4.76281 16.8236 4.83657C16.7999 4.91034 16.7537 4.97133 16.6939 5.0079L14.7622 5.86939C14.7301 5.88266 14.6963 5.88934 14.6622 5.88915V5.88915Z" fill="#C6927E"/>
<path d="M3.4044 10.918C3.34082 10.9165 3.27963 10.8894 3.23117 10.8414C3.18271 10.7934 3.14993 10.7274 3.13838 10.6545C3.12683 10.5816 3.13721 10.5062 3.16777 10.4412C3.19833 10.3762 3.24719 10.3254 3.30612 10.2976L5.23783 9.43409C5.2721 9.41279 5.30986 9.40022 5.34861 9.3972C5.38736 9.39418 5.42622 9.40078 5.46262 9.41657C5.49902 9.43236 5.53214 9.45697 5.55977 9.48879C5.58741 9.52061 5.60894 9.5589 5.62295 9.60114C5.63696 9.64338 5.64312 9.6886 5.64103 9.73382C5.63893 9.77904 5.62864 9.82323 5.61081 9.86347C5.59299 9.90371 5.56805 9.93908 5.53764 9.96724C5.50722 9.9954 5.47203 10.0157 5.43439 10.0269L3.50268 10.8903C3.47162 10.9064 3.43832 10.9158 3.4044 10.918V10.918Z" fill="#C6927E"/>
<path d="M13.9301 19.9998H6.06943C6.03324 19.9998 5.99741 19.9915 5.96399 19.9752C5.93058 19.959 5.90024 19.9353 5.87473 19.9053C5.84921 19.8754 5.82903 19.8399 5.81533 19.8008C5.80164 19.7618 5.7947 19.7199 5.79493 19.6777V15.066C5.79493 14.8927 5.8242 14.721 5.88109 14.5609C5.93797 14.4008 6.02135 14.2552 6.12646 14.1327C6.23157 14.0101 6.35635 13.9129 6.49368 13.8466C6.63101 13.7802 6.7782 13.7461 6.92684 13.7461H13.0727C13.3728 13.7466 13.6604 13.8858 13.8726 14.1333C14.0848 14.3807 14.2042 14.7161 14.2047 15.066V19.6777C14.2047 19.7628 14.1758 19.8444 14.1244 19.9048C14.0729 19.9651 14.0031 19.9993 13.9301 19.9998ZM6.34394 19.3636H13.6539V15.066C13.6539 14.8861 13.5928 14.7135 13.4838 14.5861C13.3749 14.4586 13.227 14.3868 13.0727 14.3863H6.92684C6.77225 14.3863 6.62398 14.4579 6.51467 14.5854C6.40535 14.7128 6.34394 14.8857 6.34394 15.066V19.3636Z" fill="#C6927E"/>
<path d="M13.1051 20.0005H6.89485C6.85858 20.0005 6.82267 19.9922 6.78916 19.976C6.75565 19.9598 6.7252 19.9361 6.69955 19.9061C6.6739 19.8762 6.65356 19.8407 6.63968 19.8017C6.6258 19.7626 6.61865 19.7207 6.61865 19.6784V15.529C6.6191 15.3109 6.69374 15.1018 6.82621 14.9477C6.95867 14.7936 7.13814 14.7071 7.32525 14.7071H12.673C12.7664 14.706 12.859 14.7266 12.9455 14.7675C13.032 14.8084 13.1107 14.869 13.1771 14.9456C13.2434 15.0222 13.2961 15.1134 13.332 15.2139C13.3679 15.3144 13.3864 15.4221 13.3864 15.531V19.6804C13.3862 19.723 13.3787 19.7652 13.3644 19.8044C13.3501 19.8437 13.3293 19.8792 13.3031 19.909C13.277 19.9387 13.246 19.9622 13.212 19.9779C13.178 19.9936 13.1417 20.0013 13.1051 20.0005V20.0005ZM7.16936 19.3642H12.8306V15.531C12.8302 15.4826 12.8134 15.4364 12.7839 15.4024C12.7544 15.3683 12.7145 15.3492 12.673 15.3492H7.32525C7.28391 15.3492 7.24425 15.3684 7.21502 15.4025C7.18578 15.4366 7.16936 15.4828 7.16936 15.531V19.3642Z" fill="#C6927E"/>
<path d="M13.9305 15.6498C13.8647 15.6439 13.8029 15.6104 13.7565 15.5557C13.7101 15.5009 13.6822 15.4285 13.6778 15.3517C13.6735 15.2748 13.6931 15.1988 13.7329 15.1374C13.7728 15.076 13.8303 15.0335 13.8949 15.0175C15.9435 14.6421 17.6075 13.9861 18.5801 13.1701C18.6094 13.1454 18.6425 13.1277 18.6777 13.118C18.7128 13.1083 18.7492 13.1068 18.7849 13.1135C18.8205 13.1202 18.8547 13.135 18.8854 13.1571C18.9161 13.1792 18.9428 13.2081 18.9639 13.2422C18.9851 13.2763 19.0003 13.315 19.0086 13.3559C19.0169 13.3969 19.0183 13.4394 19.0125 13.4809C19.0068 13.5225 18.9941 13.5623 18.9751 13.5981C18.9562 13.634 18.9314 13.6651 18.9021 13.6897C17.86 14.5651 16.1113 15.2606 13.9796 15.6498C13.9633 15.6524 13.9468 15.6524 13.9305 15.6498V15.6498Z" fill="#C6927E"/>
<path d="M6.06931 15.6498C6.05523 15.6518 6.04102 15.6518 6.02694 15.6498C3.89359 15.2547 2.14657 14.5651 1.11294 13.6897C1.08368 13.6651 1.05886 13.634 1.03992 13.5981C1.02097 13.5623 1.00827 13.5225 1.00252 13.4809C0.996781 13.4394 0.998114 13.3969 1.00645 13.3559C1.01478 13.315 1.02995 13.2763 1.05109 13.2422C1.07223 13.2081 1.09892 13.1792 1.12965 13.1571C1.16038 13.135 1.19454 13.1202 1.23018 13.1135C1.26582 13.1068 1.30224 13.1083 1.33736 13.118C1.37249 13.1277 1.40563 13.1454 1.43489 13.1701C2.39905 13.9822 4.06642 14.6382 6.11167 15.0175C6.17983 15.0302 6.24142 15.0722 6.28417 15.1354C6.32692 15.1986 6.3477 15.2782 6.34235 15.3585C6.33701 15.4387 6.30595 15.5136 6.25535 15.5684C6.20475 15.6231 6.13832 15.6536 6.06931 15.6538V15.6498Z" fill="#C6927E"/>
<path d="M13.9305 19.6093C13.86 19.6125 13.7911 19.5841 13.738 19.53C13.6849 19.4758 13.6515 19.4 13.6448 19.3181C13.6381 19.2362 13.6585 19.1544 13.7019 19.0895C13.7452 19.0246 13.8082 18.9815 13.878 18.9691C16.5061 18.3763 18.0735 17.1453 18.0735 15.6654C18.071 15.6451 18.071 15.6245 18.0735 15.6041L19.4477 7.58399C19.4546 7.54209 19.4685 7.50218 19.4887 7.46654C19.5088 7.4309 19.5347 7.40023 19.565 7.37629C19.5953 7.35235 19.6294 7.33559 19.6652 7.32699C19.701 7.31838 19.738 7.31809 19.7739 7.32614C19.8099 7.33418 19.8441 7.3504 19.8747 7.37387C19.9052 7.39734 19.9315 7.42759 19.952 7.46291C19.9726 7.49823 19.9869 7.53792 19.9943 7.57972C20.0017 7.62151 20.002 7.66459 19.9951 7.7065L18.6259 15.695C18.614 16.5842 18.1176 18.6589 13.9847 19.5955L13.9305 19.6093Z" fill="#C6927E"/>
<path d="M6.06968 19.6087C6.05221 19.6107 6.03462 19.6107 6.01715 19.6087C1.87922 18.6741 1.38782 16.5975 1.37595 15.7024L3.23e-05 7.70596C-0.0143487 7.62264 0.000244931 7.53607 0.0406027 7.46529C0.0809604 7.39452 0.143776 7.34534 0.215232 7.32857C0.286687 7.3118 0.360929 7.32881 0.421624 7.37587C0.48232 7.42293 0.524497 7.49618 0.538878 7.57951L1.91988 15.6095C1.92155 15.6299 1.92155 15.6504 1.91988 15.6708C1.92497 17.1488 3.49406 18.3758 6.1222 18.9686C6.18791 18.9857 6.24597 19.0302 6.28549 19.0938C6.32501 19.1574 6.34326 19.2356 6.33681 19.3137C6.33036 19.3919 6.29965 19.4646 6.25046 19.5182C6.20127 19.5718 6.13698 19.6026 6.06968 19.6048V19.6087Z" fill="#C6927E"/>
</g>
<defs>
<clipPath id="clip0">
<rect width="20" height="20" fill="white"/>
</clipPath>
</defs>
</svg>
