<svg width="20" height="20" viewBox="0 0 20 20" fill="none" xmlns="http://www.w3.org/2000/svg">
<g clip-path="url(#clip0)">
<path d="M5.68479 7.66797H3.77002V16.3283H5.68479V7.66797Z" fill="#ECD0C7"/>
<path d="M9.24533 7.66797H7.33057V16.3283H9.24533V7.66797Z" fill="#ECD0C7"/>
<path d="M12.8054 7.66797H10.8906V16.3283H12.8054V7.66797Z" fill="#ECD0C7"/>
<path d="M17.809 5.43555H2.19092V7.66831H17.809V5.43555Z" fill="#ECD0C7"/>
<path d="M16.3655 7.66797H14.4507V16.3283H16.3655V7.66797Z" fill="#ECD0C7"/>
<path d="M19.7237 17.4453H0.274414V19.6781H19.7237V17.4453Z" fill="#ECD0C7"/>
<path d="M10.0482 4.79733C9.78608 4.79733 9.52982 4.70666 9.31188 4.53679C9.09393 4.36692 8.92409 4.12548 8.82385 3.84303C8.72361 3.56057 8.69746 3.24979 8.74873 2.95001C8.8 2.65023 8.92637 2.37491 9.11185 2.1589C9.29734 1.94288 9.53361 1.79588 9.79076 1.73648C10.0479 1.67708 10.3144 1.70797 10.5565 1.82522C10.7986 1.94247 11.0054 2.14082 11.1508 2.39518C11.2962 2.64954 11.3737 2.94847 11.3733 3.25416C11.3733 3.45698 11.339 3.6578 11.2724 3.84516C11.2058 4.03252 11.1082 4.20272 10.9851 4.34604C10.862 4.48937 10.716 4.60299 10.5552 4.68043C10.3944 4.75787 10.2222 4.79759 10.0482 4.79733V4.79733ZM10.0482 2.35117C9.89508 2.35117 9.74536 2.40413 9.61801 2.50335C9.49066 2.60257 9.39141 2.7436 9.3328 2.9086C9.27419 3.0736 9.25885 3.25516 9.28873 3.43032C9.31861 3.60548 9.39236 3.76638 9.50066 3.89266C9.60896 4.01895 9.74694 4.10495 9.89716 4.13979C10.0474 4.17463 10.2031 4.15675 10.3446 4.0884C10.4861 4.02006 10.607 3.90432 10.6921 3.75583C10.7772 3.60733 10.8226 3.43275 10.8226 3.25416C10.8222 3.01483 10.7404 2.78546 10.5953 2.61623C10.4502 2.447 10.2535 2.3517 10.0482 2.35117V2.35117Z" fill="#C6927E"/>
<path d="M5.68511 16.6501H3.77034C3.73415 16.6504 3.69827 16.6423 3.66477 16.6263C3.63127 16.6104 3.60081 16.5868 3.57514 16.5571C3.54947 16.5273 3.5291 16.492 3.5152 16.453C3.5013 16.414 3.49414 16.3722 3.49414 16.33V7.6697C3.49459 7.58463 3.52389 7.50322 3.57563 7.44324C3.62738 7.38327 3.69738 7.34961 3.77034 7.34961H5.68511C5.75791 7.34961 5.82773 7.38333 5.87921 7.44336C5.93069 7.50339 5.95961 7.58481 5.95961 7.6697V16.33C5.95984 16.3722 5.95289 16.4139 5.93918 16.4528C5.92546 16.4918 5.90525 16.5272 5.87972 16.557C5.85418 16.5867 5.82383 16.6103 5.79042 16.6263C5.75702 16.6423 5.72122 16.6504 5.68511 16.6501V16.6501ZM4.04485 16.006H5.4106V7.99177H4.04485V16.006Z" fill="#C6927E"/>
<path d="M9.24494 16.6501H7.33018C7.29406 16.6504 7.25827 16.6423 7.22486 16.6263C7.19145 16.6103 7.1611 16.5867 7.13557 16.557C7.11003 16.5272 7.08982 16.4918 7.07611 16.4528C7.06239 16.4139 7.05544 16.3722 7.05567 16.33V7.6697C7.05567 7.58481 7.08459 7.50339 7.13607 7.44336C7.18755 7.38333 7.25737 7.34961 7.33018 7.34961H9.24494C9.3179 7.34961 9.3879 7.38327 9.43965 7.44324C9.4914 7.50322 9.5207 7.58463 9.52114 7.6697V16.33C9.52115 16.3722 9.51399 16.414 9.50009 16.453C9.48619 16.492 9.46582 16.5273 9.44015 16.5571C9.41448 16.5868 9.38401 16.6104 9.35051 16.6263C9.31701 16.6423 9.28114 16.6504 9.24494 16.6501V16.6501ZM7.60468 16.006H8.97044V7.99177H7.60468V16.006Z" fill="#C6927E"/>
<path d="M12.8055 16.6501H10.8907C10.8546 16.6504 10.8188 16.6423 10.7854 16.6263C10.752 16.6103 10.7217 16.5867 10.6961 16.557C10.6706 16.5272 10.6504 16.4918 10.6367 16.4528C10.6229 16.4139 10.616 16.3722 10.6162 16.33V7.6697C10.6162 7.58481 10.6451 7.50339 10.6966 7.44336C10.7481 7.38333 10.8179 7.34961 10.8907 7.34961H12.8055C12.8784 7.34961 12.9484 7.38327 13.0002 7.44324C13.0519 7.50322 13.0812 7.58463 13.0817 7.6697V16.33C13.0817 16.3722 13.0745 16.414 13.0606 16.453C13.0467 16.492 13.0264 16.5273 13.0007 16.5571C12.975 16.5868 12.9446 16.6104 12.9111 16.6263C12.8776 16.6423 12.8417 16.6504 12.8055 16.6501V16.6501ZM11.1652 16.006H12.5395V7.99177H11.1652V16.006Z" fill="#C6927E"/>
<path d="M16.3667 16.6501H14.4503C14.3775 16.6501 14.3077 16.6164 14.2562 16.5564C14.2047 16.4964 14.1758 16.4149 14.1758 16.33V7.6697C14.1762 7.58497 14.2053 7.50385 14.2567 7.44394C14.3081 7.38402 14.3776 7.35013 14.4503 7.34961H16.3667C16.4394 7.35013 16.509 7.38402 16.5604 7.44394C16.6117 7.50385 16.6408 7.58497 16.6413 7.6697V16.33C16.6413 16.4149 16.6123 16.4964 16.5609 16.5564C16.5094 16.6164 16.4396 16.6501 16.3667 16.6501V16.6501ZM14.7265 16.006H16.0821V7.99177H14.7265V16.006Z" fill="#C6927E"/>
<path d="M19.7238 19.9999H0.274506C0.201547 19.9994 0.131729 19.9652 0.0802974 19.9049C0.0288656 19.8446 -1.373e-06 19.7629 0 19.6779L0 17.4451C0 17.3602 0.0289211 17.2788 0.0804011 17.2188C0.131881 17.1587 0.201703 17.125 0.274506 17.125H19.7238C19.796 17.126 19.865 17.1602 19.9157 17.2201C19.9665 17.2801 19.9949 17.3609 19.9949 17.4451V19.6779C19.9949 19.7623 19.9665 19.8433 19.9158 19.9035C19.8651 19.9638 19.7962 19.9984 19.7238 19.9999V19.9999ZM0.550707 19.3637H19.4493V17.7652H0.550707V19.3637Z" fill="#C6927E"/>
<path d="M17.8093 7.99017H2.19124C2.15497 7.99017 2.11905 7.98184 2.08554 7.96565C2.05203 7.94947 2.02158 7.92574 1.99594 7.89584C1.97029 7.86593 1.94994 7.83042 1.93606 7.79135C1.92218 7.75227 1.91504 7.71039 1.91504 7.6681V5.43534C1.91504 5.39313 1.92219 5.35135 1.9361 5.31238C1.95 5.27342 1.97037 5.23804 1.99604 5.20829C2.02171 5.17854 2.05217 5.15501 2.08567 5.13904C2.11917 5.12307 2.15505 5.11498 2.19124 5.11524H17.8093C17.8454 5.11498 17.8812 5.12308 17.9146 5.13907C17.948 5.15507 17.9784 5.17863 18.0039 5.20841C18.0294 5.23819 18.0497 5.27358 18.0634 5.31253C18.0771 5.35149 18.084 5.39323 18.0838 5.43534V7.6681C18.084 7.7103 18.0771 7.75214 18.0634 7.7912C18.0497 7.83026 18.0295 7.86578 18.004 7.89572C17.9785 7.92565 17.9482 7.94941 17.9147 7.96561C17.8813 7.98182 17.8455 7.99017 17.8093 7.99017V7.99017ZM2.46575 7.348H17.5348V5.75543H2.46575V7.348Z" fill="#C6927E"/>
<path d="M6.30154 17.7644H3.15319C3.11722 17.7644 3.08161 17.7561 3.0484 17.74C3.01519 17.7239 2.98503 17.7003 2.95968 17.6706C2.93432 17.6408 2.91426 17.6055 2.90065 17.5667C2.88704 17.5279 2.88015 17.4863 2.88038 17.4443V17.1302C2.87993 16.8323 2.98084 16.5465 3.16098 16.3353C3.34111 16.1241 3.58573 16.005 3.84115 16.0039H5.61358C5.86871 16.0044 6.11325 16.1228 6.29365 16.3332C6.47405 16.5436 6.5756 16.8287 6.57605 17.1262V17.4404C6.5765 17.4827 6.56973 17.5248 6.55613 17.5641C6.54254 17.6034 6.52239 17.6391 6.49686 17.6693C6.47132 17.6994 6.44091 17.7234 6.40738 17.7397C6.37385 17.756 6.33788 17.7644 6.30154 17.7644ZM3.42092 17.1242H6.02534C6.02445 16.9976 5.98067 16.8765 5.90355 16.7873C5.82642 16.6981 5.7222 16.648 5.61358 16.648H3.84115C3.7325 16.6485 3.62835 16.6987 3.55106 16.7877C3.47376 16.8767 3.42947 16.9976 3.4277 17.1242H3.42092Z" fill="#C6927E"/>
<path d="M9.86183 17.7644H6.71347C6.64067 17.7644 6.57085 17.7307 6.51937 17.6707C6.46789 17.6106 6.43897 17.5292 6.43897 17.4443V17.1302C6.43874 16.9825 6.46346 16.8363 6.51171 16.6998C6.55996 16.5633 6.63079 16.4392 6.72016 16.3346C6.80954 16.23 6.9157 16.147 7.03259 16.0902C7.14949 16.0335 7.27482 16.0042 7.40143 16.0039H9.17386C9.42899 16.0044 9.67354 16.1228 9.85394 16.3332C10.0343 16.5436 10.1359 16.8287 10.1363 17.1262V17.4404C10.137 17.4828 10.1304 17.525 10.1169 17.5644C10.1034 17.6038 10.0832 17.6397 10.0577 17.6699C10.0321 17.7001 10.0016 17.724 9.96794 17.7402C9.9343 17.7565 9.89823 17.7647 9.86183 17.7644ZM6.9812 17.1242H9.58732C9.58555 16.9976 9.54126 16.8767 9.46396 16.7877C9.38666 16.6987 9.28251 16.6485 9.17386 16.648H7.40143C7.29281 16.648 7.18859 16.6981 7.11147 16.7873C7.03434 16.8765 6.99057 16.9976 6.98967 17.1242H6.9812Z" fill="#C6927E"/>
<path d="M13.4221 17.7644H10.2738C10.2376 17.7647 10.2017 17.7566 10.1682 17.7406C10.1347 17.7247 10.1042 17.7011 10.0786 17.6714C10.0529 17.6416 10.0325 17.6063 10.0186 17.5673C10.0047 17.5283 9.99756 17.4865 9.99756 17.4443V17.1302C9.99734 16.9824 10.0221 16.8359 10.0705 16.6993C10.1188 16.5627 10.1898 16.4385 10.2794 16.3339C10.3689 16.2293 10.4753 16.1463 10.5924 16.0897C10.7094 16.0331 10.835 16.0039 10.9617 16.0039H12.7342C12.9893 16.0044 13.2338 16.1228 13.4142 16.3332C13.5946 16.5436 13.6962 16.8287 13.6966 17.1262V17.4404C13.6973 17.4828 13.6907 17.525 13.6772 17.5644C13.6637 17.6038 13.6435 17.6397 13.6179 17.6699C13.5924 17.7001 13.5619 17.724 13.5282 17.7402C13.4946 17.7565 13.4585 17.7647 13.4221 17.7644ZM10.55 17.1242H13.1476C13.1458 16.9976 13.1015 16.8767 13.0242 16.7877C12.9469 16.6987 12.8428 16.6485 12.7342 16.648H10.9617C10.8531 16.648 10.7489 16.6981 10.6718 16.7873C10.5946 16.8765 10.5509 16.9976 10.55 17.1242Z" fill="#C6927E"/>
<path d="M16.9819 17.7644H13.8353C13.7988 17.7652 13.7625 17.7575 13.7286 17.7418C13.6948 17.7261 13.6639 17.7026 13.6379 17.6728C13.6118 17.643 13.5911 17.6074 13.577 17.5682C13.5629 17.529 13.5557 17.4869 13.5557 17.4443V17.1302C13.5554 16.9822 13.5803 16.8356 13.6287 16.6989C13.6772 16.5621 13.7483 16.4378 13.8381 16.3332C13.9278 16.2286 14.0344 16.1456 14.1516 16.0891C14.2689 16.0326 14.3946 16.0036 14.5215 16.0039H16.294C16.4203 16.0039 16.5455 16.0329 16.6623 16.0893C16.779 16.1457 16.8851 16.2284 16.9745 16.3326C17.0639 16.4368 17.1348 16.5606 17.1832 16.6967C17.2315 16.8329 17.2564 16.9788 17.2564 17.1262V17.4404C17.2571 17.4828 17.2505 17.525 17.237 17.5644C17.2235 17.6038 17.2033 17.6397 17.1777 17.6699C17.1522 17.7001 17.1217 17.724 17.088 17.7402C17.0544 17.7565 17.0183 17.7647 16.9819 17.7644ZM14.1013 17.1242H16.7074C16.7061 16.9974 16.6619 16.8763 16.5845 16.7872C16.5071 16.698 16.4027 16.648 16.294 16.6481H14.5215C14.413 16.6486 14.3091 16.6988 14.232 16.7878C14.155 16.8769 14.1111 16.9977 14.1098 17.1242H14.1013Z" fill="#C6927E"/>
<path d="M18.7668 5.75504H1.36955C1.30756 5.75538 1.24731 5.73124 1.19858 5.68657C1.14986 5.6419 1.11554 5.57931 1.1012 5.50899C1.08686 5.43868 1.09335 5.36477 1.11961 5.29931C1.14588 5.23384 1.19037 5.18067 1.24585 5.14844L9.87586 0.0348226C9.91414 0.0119363 9.95654 0 9.99955 0C10.0426 0 10.085 0.0119363 10.1233 0.0348226L18.8905 5.15041C18.946 5.18264 18.9905 5.23582 19.0167 5.30128C19.043 5.36675 19.0495 5.44065 19.0352 5.51097C19.0208 5.58129 18.9865 5.64387 18.9378 5.68855C18.8891 5.73322 18.8288 5.75735 18.7668 5.75701V5.75504ZM2.51841 5.11485H17.5993L9.99786 0.678964L2.51841 5.11485Z" fill="#C6927E"/>
</g>
<defs>
<clipPath id="clip0">
<rect width="20" height="20" fill="white"/>
</clipPath>
</defs>
</svg>
