<svg width="20" height="20" viewBox="0 0 20 20" fill="none" xmlns="http://www.w3.org/2000/svg">
<g clip-path="url(#clip0)">
<path d="M9.99737 0.275391C8.07402 0.275726 6.19396 0.846394 4.59493 1.91523C2.99591 2.98407 1.74974 4.50307 1.01401 6.28014C0.278289 8.05722 0.0860492 10.0126 0.461606 11.8989C0.837162 13.7852 1.76365 15.5178 3.1239 16.8776C4.48415 18.2374 6.21708 19.1633 8.10354 19.5382C9.99 19.9131 11.9453 19.7201 13.7221 18.9838C15.4989 18.2474 17.0175 17.0007 18.0858 15.4014C19.154 13.802 19.724 11.9217 19.7237 9.99834C19.7228 7.41934 18.6977 4.94628 16.8737 3.12297C15.0498 1.29966 12.5764 0.27539 9.99737 0.275391V0.275391ZM15.3977 10.9676C15.3977 11.15 15.3252 11.325 15.1962 11.454C15.0672 11.5831 14.8922 11.6555 14.7097 11.6555H12.3375C12.1577 11.6555 11.9853 11.727 11.8582 11.8541C11.7311 11.9812 11.6597 12.1536 11.6597 12.3333V14.7056C11.6597 14.8881 11.5872 15.0631 11.4582 15.1921C11.3291 15.3211 11.1542 15.3936 10.9717 15.3936H9.03321C8.85075 15.3936 8.67576 15.3211 8.54675 15.1921C8.41773 15.0631 8.34525 14.8881 8.34525 14.7056V12.3333C8.34302 12.1525 8.2695 11.9799 8.14067 11.853C8.01185 11.726 7.83813 11.6551 7.65729 11.6555H5.28501C5.10255 11.6555 4.92756 11.5831 4.79855 11.454C4.66953 11.325 4.59705 11.15 4.59705 10.9676V9.03418C4.59705 8.85172 4.66953 8.67674 4.79855 8.54772C4.92756 8.4187 5.10255 8.34622 5.28501 8.34622H7.65729C7.83975 8.34622 8.01473 8.27374 8.14375 8.14472C8.27277 8.0157 8.34525 7.84072 8.34525 7.65826V5.28598C8.34525 5.10352 8.41773 4.92854 8.54675 4.79952C8.67576 4.6705 8.85075 4.59802 9.03321 4.59802H10.9666C11.1491 4.59802 11.3241 4.6705 11.4531 4.79952C11.5821 4.92854 11.6546 5.10352 11.6546 5.28598V7.65826C11.6541 7.8391 11.7251 8.01282 11.852 8.14164C11.9789 8.27047 12.1515 8.34399 12.3324 8.34622H14.7046C14.8871 8.34622 15.0621 8.4187 15.1911 8.54772C15.3201 8.67674 15.3926 8.85172 15.3926 9.03418L15.3977 10.9676Z" fill="#ECD0C7"/>
<path d="M9.99746 19.9949C8.02015 19.9949 6.08725 19.4086 4.44317 18.31C2.7991 17.2115 1.5177 15.6501 0.761016 13.8233C0.00433173 11.9965 -0.193651 9.98637 0.192103 8.04706C0.577857 6.10774 1.53002 4.32636 2.92819 2.92819C4.32636 1.53002 6.10774 0.577857 8.04706 0.192103C9.98637 -0.193651 11.9965 0.00433173 13.8233 0.761016C15.6501 1.5177 17.2115 2.7991 18.31 4.44317C19.4086 6.08725 19.9949 8.02015 19.9949 9.99746C19.9913 12.6479 18.9369 15.1887 17.0628 17.0628C15.1887 18.9369 12.6479 19.9913 9.99746 19.9949V19.9949ZM9.99746 0.550712C8.12833 0.551047 6.30127 1.10566 4.74736 2.14441C3.19344 3.18316 1.98246 4.65938 1.26756 6.3864C0.552657 8.11341 0.365953 10.0136 0.731055 11.8468C1.09616 13.6799 1.99667 15.3636 3.3187 16.6849C4.64073 18.0062 6.3249 18.9058 8.15823 19.2699C9.99155 19.6341 11.8917 19.4463 13.6183 18.7305C15.3449 18.0147 16.8205 16.8029 17.8584 15.2484C18.8963 13.6939 19.45 11.8666 19.4493 9.99746C19.4462 7.49211 18.4492 5.09035 16.6771 3.31927C14.9051 1.5482 12.5028 0.552505 9.99746 0.550712V0.550712Z" fill="#C6927E"/>
<path d="M10.9668 15.6736H9.03342C8.7783 15.6732 8.53375 15.5716 8.35335 15.3912C8.17295 15.2108 8.0714 14.9663 8.07095 14.7111V12.3389C8.07095 12.2847 8.06025 12.231 8.03945 12.1809C8.01865 12.1308 7.98817 12.0854 7.94975 12.0471C7.91134 12.0089 7.86575 11.9786 7.81559 11.958C7.76544 11.9374 7.71171 11.9269 7.6575 11.9271H5.28522C5.0301 11.9267 4.78555 11.8251 4.60515 11.6447C4.42475 11.4643 4.3232 11.2198 4.32275 10.9646V9.03293C4.3232 8.77781 4.42475 8.53326 4.60515 8.35286C4.78555 8.17246 5.0301 8.07091 5.28522 8.07047H7.6575C7.76715 8.07047 7.87232 8.0269 7.94986 7.94937C8.02739 7.87183 8.07095 7.76667 8.07095 7.65701V5.28473C8.0714 5.02961 8.17295 4.78506 8.35335 4.60466C8.53375 4.42426 8.7783 4.32271 9.03342 4.32227H10.9668C11.222 4.32271 11.4665 4.42426 11.6469 4.60466C11.8273 4.78506 11.9288 5.02961 11.9293 5.28473V7.65701C11.9293 7.76637 11.9726 7.87128 12.0498 7.94877C12.127 8.02626 12.2317 8.07002 12.3411 8.07047H14.7133C14.9685 8.07091 15.213 8.17246 15.3934 8.35286C15.5738 8.53326 15.6754 8.77781 15.6758 9.03293V10.9663C15.6754 11.2215 15.5738 11.466 15.3934 11.6464C15.213 11.8268 14.9685 11.9284 14.7133 11.9288H12.3411C12.2318 11.9288 12.1271 11.9722 12.0499 12.0494C11.9727 12.1266 11.9293 12.2314 11.9293 12.3406V14.7128C11.9284 14.9677 11.8267 15.2118 11.6463 15.3918C11.466 15.5719 11.2217 15.6732 10.9668 15.6736ZM5.28861 8.61948C5.17909 8.61992 5.07419 8.66363 4.99675 8.74107C4.91931 8.81851 4.8756 8.92341 4.87516 9.03293V10.9663C4.8756 11.0757 4.91936 11.1804 4.99685 11.2576C5.07434 11.3348 5.17925 11.3781 5.28861 11.3781H7.66089C7.78728 11.3781 7.91244 11.403 8.02921 11.4514C8.14598 11.4997 8.25208 11.5706 8.34146 11.66C8.43083 11.7494 8.50172 11.8555 8.55009 11.9722C8.59846 12.089 8.62336 12.2142 8.62336 12.3406V14.7128C8.6238 14.8222 8.66756 14.9269 8.74505 15.0041C8.82254 15.0813 8.92745 15.1246 9.03681 15.1246H10.9668C11.076 15.1246 11.1808 15.0812 11.258 15.004C11.3352 14.9268 11.3786 14.822 11.3786 14.7128V12.3406C11.379 12.0854 11.4806 11.8409 11.661 11.6605C11.8414 11.4801 12.0859 11.3785 12.3411 11.3781H14.7133C14.8225 11.3781 14.9273 11.3347 15.0045 11.2575C15.0817 11.1803 15.1251 11.0755 15.1251 10.9663V9.03293C15.1251 8.92357 15.0818 8.81866 15.0046 8.74117C14.9274 8.66368 14.8227 8.61993 14.7133 8.61948H12.3411C12.0859 8.61903 11.8414 8.51748 11.661 8.33708C11.4806 8.15668 11.379 7.91214 11.3786 7.65701V5.28473C11.3786 5.17537 11.3353 5.07046 11.2581 4.99297C11.1809 4.91548 11.0762 4.87173 10.9668 4.87128H9.03342C8.9239 4.87172 8.819 4.91543 8.74156 4.99287C8.66412 5.07031 8.62041 5.17522 8.61997 5.28473V7.65701C8.61997 7.7834 8.59507 7.90856 8.5467 8.02533C8.49833 8.1421 8.42744 8.2482 8.33807 8.33758C8.24869 8.42695 8.14259 8.49785 8.02582 8.54621C7.90905 8.59458 7.78389 8.61948 7.6575 8.61948H5.28861Z" fill="#C6927E"/>
</g>
<defs>
<clipPath id="clip0">
<rect width="20" height="20" fill="white"/>
</clipPath>
</defs>
</svg>
