<svg width="20" height="20" viewBox="0 0 20 20" fill="none" xmlns="http://www.w3.org/2000/svg">
<g clip-path="url(#clip0)">
<path d="M1.69466 14.7539L1.13379 15.3024V16.3383L1.83869 16.467L2.30468 16.2503L2.75202 15.7306C2.75202 15.7306 2.5131 14.7861 1.69466 14.7539Z" fill="#ECD0C7"/>
<path d="M14.2526 7.25788C14.8703 7.25788 15.371 6.75769 15.371 6.14066C15.371 5.52364 14.8703 5.02344 14.2526 5.02344C13.635 5.02344 13.1343 5.52364 13.1343 6.14066C13.1343 6.75769 13.635 7.25788 14.2526 7.25788Z" fill="#ECD0C7"/>
<path d="M10.1956 14.7539L9.63477 15.3024V16.3383L10.3397 16.467L10.804 16.2503L11.253 15.7306C11.253 15.7306 11.0141 14.7861 10.1956 14.7539Z" fill="#ECD0C7"/>
<path d="M18.6479 15.959H13.0239V19.7034H18.6479V15.959Z" fill="#ECD0C7"/>
<path d="M1.27112 13.4084H10.667L11.2127 13.0106V8.28777L10.9246 8H1.27112L1.02881 8.60262V13.0106L1.27112 13.4084Z" fill="#ECD0C7"/>
<path d="M8.79248 17.6673L9.99895 19.8425L12.0933 19.7054L10.6191 17.5234L8.79248 17.6673Z" fill="#ECD0C7"/>
<path d="M1.55034 17.668L0.415039 19.8432L2.24 19.7061L3.47358 17.7645L1.55034 17.668Z" fill="#ECD0C7"/>
<path d="M19.7241 19.975H18.7667C18.6937 19.9746 18.6239 19.9453 18.5725 19.8936C18.5211 19.8419 18.4922 19.772 18.4922 19.6991V15.9598C18.4926 15.8872 18.5217 15.8177 18.5731 15.7664C18.6245 15.715 18.694 15.686 18.7667 15.6855H19.7241C19.7962 15.6869 19.8649 15.7163 19.9155 15.7675C19.9662 15.8188 19.9948 15.8878 19.9952 15.9598V19.7042C19.9939 19.7756 19.9649 19.8437 19.9143 19.8942C19.8638 19.9448 19.7956 19.9737 19.7241 19.975V19.975ZM19.0463 19.4249H19.453V16.2357H19.0463V19.4249Z" fill="#C6927E"/>
<path d="M1.91655 16.8864C1.68624 16.8864 1.4611 16.8182 1.26963 16.6903C1.07816 16.5624 0.928951 16.3807 0.840892 16.1681C0.752833 15.9555 0.729879 15.7216 0.774934 15.496C0.819989 15.2703 0.931029 15.0631 1.094 14.9006C1.25698 14.738 1.46456 14.6274 1.69049 14.5827C1.91641 14.538 2.15053 14.5613 2.36321 14.6496C2.5759 14.7378 2.75759 14.8872 2.8853 15.0786C3.01301 15.2701 3.081 15.4951 3.08066 15.7252C3.08021 16.0333 2.95737 16.3287 2.7391 16.5464C2.52084 16.7641 2.225 16.8864 1.91655 16.8864ZM1.91655 15.1124C1.79523 15.1124 1.67664 15.1483 1.57576 15.2157C1.47489 15.283 1.39627 15.3787 1.34984 15.4907C1.30341 15.6026 1.29127 15.7258 1.31493 15.8447C1.3386 15.9636 1.39702 16.0728 1.48281 16.1585C1.5686 16.2442 1.67789 16.3025 1.79688 16.3262C1.91587 16.3498 2.03921 16.3377 2.15129 16.2913C2.26338 16.2449 2.35918 16.1664 2.42658 16.0656C2.49398 15.9648 2.52995 15.8464 2.52995 15.7252C2.52951 15.5628 2.46474 15.4072 2.3498 15.2924C2.23486 15.1775 2.0791 15.1128 1.91655 15.1124Z" fill="#C6927E"/>
<path d="M10.3243 16.8864C10.094 16.8864 9.86882 16.8182 9.67735 16.6903C9.48587 16.5624 9.33667 16.3807 9.24861 16.1681C9.16055 15.9555 9.13759 15.7216 9.18265 15.496C9.2277 15.2703 9.33874 15.0631 9.50172 14.9006C9.66469 14.738 9.87227 14.6274 10.0982 14.5827C10.3241 14.538 10.5582 14.5613 10.7709 14.6496C10.9836 14.7378 11.1653 14.8872 11.293 15.0786C11.4207 15.2701 11.4887 15.4951 11.4884 15.7252C11.4879 16.0333 11.3651 16.3287 11.1468 16.5464C10.9286 16.7641 10.6327 16.8864 10.3243 16.8864ZM10.3243 15.1124C10.2029 15.1124 10.0844 15.1483 9.98348 15.2157C9.8826 15.283 9.80398 15.3787 9.75756 15.4907C9.71113 15.6026 9.69898 15.7258 9.72265 15.8447C9.74632 15.9636 9.80474 16.0728 9.89052 16.1585C9.97631 16.2442 10.0856 16.3025 10.2046 16.3262C10.3236 16.3498 10.4469 16.3377 10.559 16.2913C10.6711 16.2449 10.7669 16.1664 10.8343 16.0656C10.9017 15.9648 10.9377 15.8464 10.9377 15.7252C10.9377 15.5627 10.873 15.4068 10.758 15.2919C10.643 15.177 10.487 15.1124 10.3243 15.1124V15.1124Z" fill="#C6927E"/>
<path d="M7.6115 7.53284H4.62921C4.50248 7.53284 4.38094 7.48255 4.29132 7.39303C4.20171 7.30351 4.15137 7.18209 4.15137 7.05548C4.15137 6.92888 4.20171 6.80746 4.29132 6.71794C4.38094 6.62842 4.50248 6.57812 4.62921 6.57812H7.6115C7.73824 6.57812 7.85978 6.62842 7.94939 6.71794C8.039 6.80746 8.08935 6.92888 8.08935 7.05548C8.08935 7.18209 8.039 7.30351 7.94939 7.39303C7.85978 7.48255 7.73824 7.53284 7.6115 7.53284Z" fill="#C6927E"/>
<path d="M19.7239 19.975H13.129C13.0928 19.975 13.057 19.9679 13.0236 19.954C12.9901 19.9401 12.9598 19.9197 12.9343 19.8941C12.9088 19.8684 12.8886 19.838 12.8749 19.8046C12.8612 19.7711 12.8543 19.7352 12.8545 19.6991V15.9598C12.8545 15.887 12.8834 15.8173 12.9349 15.7659C12.9864 15.7144 13.0562 15.6855 13.129 15.6855H19.7239C19.796 15.6869 19.8647 15.7163 19.9154 15.7675C19.966 15.8188 19.9946 15.8878 19.9951 15.9598V19.7042C19.9938 19.7756 19.9648 19.8437 19.9142 19.8942C19.8636 19.9448 19.7954 19.9737 19.7239 19.975V19.975ZM13.4035 19.4249H19.4494V16.2357H13.4035V19.4249Z" fill="#C6927E"/>
<path d="M19.7235 19.9747H18.7661C18.6931 19.9742 18.6233 19.945 18.5719 19.8933C18.5205 19.8416 18.4916 19.7716 18.4916 19.6988V7.65475L12.3372 1.50663H7.02162C6.82164 1.50663 6.62984 1.42727 6.48843 1.286C6.34702 1.14473 6.26758 0.953134 6.26758 0.753352C6.26758 0.55357 6.34702 0.36197 6.48843 0.220703C6.62984 0.0794354 6.82164 7.22509e-05 7.02162 7.22509e-05H12.8473C12.8844 -0.000784458 12.9213 0.00598547 12.9557 0.0199623C12.9901 0.0339392 13.0212 0.054825 13.0472 0.0813249L19.9234 6.95056C19.9475 6.97644 19.9661 7.00682 19.9783 7.03994C19.9905 7.07306 19.9961 7.10827 19.9946 7.14353V19.7038C19.9933 19.7753 19.9643 19.8434 19.9137 19.8939C19.8632 19.9444 19.795 19.9734 19.7235 19.9747V19.9747ZM19.0457 19.4245H19.4524V7.25864L12.7659 0.582383C12.7455 0.579343 12.7256 0.573652 12.7066 0.565455L12.6744 0.55022H7.02162C6.96769 0.55022 6.91598 0.571622 6.87784 0.609716C6.83971 0.647811 6.81829 0.699478 6.81829 0.753352C6.81829 0.807226 6.83971 0.858893 6.87784 0.896988C6.91598 0.935082 6.96769 0.956484 7.02162 0.956484H12.444C12.4802 0.956317 12.5162 0.963423 12.5497 0.977379C12.5831 0.991336 12.6135 1.01186 12.6388 1.03774L18.961 7.34667C19.0127 7.39834 19.0419 7.46828 19.0423 7.54133L19.0457 19.4245Z" fill="#C6927E"/>
<path d="M10.782 17.9431H1.46234C1.27038 17.9433 1.08026 17.9058 0.902855 17.8325C0.725446 17.7593 0.564225 17.6518 0.428412 17.5163C0.292599 17.3808 0.184857 17.2199 0.111347 17.0427C0.0378367 16.8656 -1.29169e-07 16.6757 0 16.4839L0 8.21479C0.000896619 7.55152 0.265045 6.91567 0.734526 6.44667C1.20401 5.97767 1.8405 5.71379 2.50445 5.71289H9.73651C10.4005 5.71379 11.0369 5.97767 11.5064 6.44667C11.9759 6.91567 12.2401 7.55152 12.241 8.21479V16.4839C12.241 16.8706 12.0873 17.2415 11.8137 17.5151C11.5402 17.7887 11.1691 17.9427 10.782 17.9431V17.9431ZM2.50445 6.26304C1.98656 6.26393 1.49014 6.46985 1.12393 6.83568C0.757731 7.20152 0.551603 7.69743 0.550707 8.21479V16.4839C0.550707 16.7246 0.646397 16.9554 0.816726 17.1255C0.987055 17.2957 1.21807 17.3913 1.45895 17.3913H10.7786C10.8983 17.3917 11.0168 17.3686 11.1275 17.3232C11.2382 17.2778 11.3388 17.2111 11.4236 17.1268C11.5085 17.0425 11.5758 16.9424 11.6219 16.8321C11.6679 16.7218 11.6917 16.6035 11.6919 16.4839V8.21479C11.6906 7.69728 11.4841 7.20136 11.1176 6.83558C10.7511 6.4698 10.2546 6.26393 9.73651 6.26304H2.50445Z" fill="#C6927E"/>
<path d="M10.7649 13.7335H1.47745C1.28556 13.7335 1.10152 13.6574 0.965828 13.5218C0.830137 13.3863 0.753906 13.2024 0.753906 13.0107V8.60953C0.753906 8.41783 0.830137 8.23398 0.965828 8.09842C1.10152 7.96287 1.28556 7.88672 1.47745 7.88672H10.7649C10.9568 7.88672 11.1409 7.96287 11.2765 8.09842C11.4122 8.23398 11.4885 8.41783 11.4885 8.60953V13.0107C11.488 13.2023 11.4116 13.3859 11.2761 13.5213C11.1405 13.6568 10.9567 13.7331 10.7649 13.7335V13.7335ZM1.47745 8.4284C1.43251 8.4284 1.38941 8.44624 1.35763 8.47798C1.32586 8.50973 1.308 8.55278 1.308 8.59768V12.9989C1.308 13.0438 1.32586 13.0868 1.35763 13.1186C1.38941 13.1503 1.43251 13.1681 1.47745 13.1681H10.7649C10.8099 13.1681 10.853 13.1503 10.8847 13.1186C10.9165 13.0868 10.9344 13.0438 10.9344 12.9989V8.59768C10.9344 8.55278 10.9165 8.50973 10.8847 8.47798C10.853 8.44624 10.8099 8.4284 10.7649 8.4284H1.47745Z" fill="#C6927E"/>
<path d="M2.33632 19.9992H0.274131C0.224456 19.9995 0.175634 19.9863 0.132932 19.9609C0.0902299 19.9356 0.0552687 19.899 0.0318201 19.8553C0.00849439 19.8113 -0.00255489 19.7618 -0.000169914 19.7121C0.00221506 19.6623 0.0179465 19.6142 0.045376 19.5726L1.4213 17.5125C1.44653 17.475 1.48059 17.4443 1.52047 17.4231C1.56036 17.4018 1.60485 17.3907 1.65005 17.3906H3.71224C3.76203 17.3909 3.81082 17.4046 3.85345 17.4303C3.89608 17.456 3.93096 17.4928 3.9544 17.5366C3.97784 17.5805 3.98897 17.6299 3.98661 17.6796C3.98425 17.7293 3.96849 17.7774 3.941 17.8189L2.56507 19.8773C2.53984 19.9148 2.50578 19.9455 2.4659 19.9667C2.42602 19.988 2.38152 19.9991 2.33632 19.9992ZM0.789255 19.4507H2.1889L3.20559 17.9408H1.79747L0.789255 19.4507Z" fill="#C6927E"/>
<path d="M11.9662 19.9992H9.90404C9.85884 19.9991 9.81435 19.988 9.77446 19.9667C9.73458 19.9455 9.70052 19.9148 9.67529 19.8773L8.30276 17.8189C8.27527 17.7774 8.25951 17.7293 8.25715 17.6796C8.25479 17.6299 8.26592 17.5805 8.28936 17.5367C8.3128 17.4928 8.34768 17.456 8.3903 17.4303C8.43293 17.4046 8.48172 17.3909 8.53151 17.3906H10.5903C10.6356 17.3904 10.6802 17.4014 10.7201 17.4227C10.76 17.444 10.794 17.4748 10.8191 17.5125L12.2001 19.5726C12.2275 19.6142 12.2432 19.6624 12.2456 19.7121C12.248 19.7618 12.2369 19.8113 12.2136 19.8553C12.1898 19.8998 12.154 19.9368 12.1103 19.9623C12.0667 19.9877 12.0168 20.0004 11.9662 19.9992V19.9992ZM10.0515 19.4507H11.4528L10.4361 17.9408H9.04325L10.0515 19.4507Z" fill="#C6927E"/>
<path d="M12.4511 1.50586C12.4151 1.50582 12.3794 1.49893 12.346 1.48554C12.2793 1.45648 12.2267 1.40243 12.1994 1.33501C12.1722 1.26759 12.1725 1.19218 12.2003 1.12498L12.5934 0.168572C12.6053 0.132408 12.6245 0.0990835 12.6498 0.0706943C12.6752 0.042305 12.7062 0.0194646 12.7408 0.00360855C12.7754 -0.0122475 12.813 -0.0207764 12.8511 -0.0214421C12.8892 -0.0221079 12.927 -0.014896 12.9621 -0.000259721C12.9973 0.0143765 13.029 0.0361206 13.0554 0.063606C13.0817 0.0910913 13.1021 0.123724 13.1152 0.159452C13.1283 0.19518 13.1339 0.233232 13.1316 0.271216C13.1293 0.3092 13.1191 0.346294 13.1018 0.380168L12.7086 1.33658C12.6874 1.38718 12.6516 1.43031 12.6057 1.46046C12.5598 1.49061 12.506 1.50642 12.4511 1.50586Z" fill="#C6927E"/>
<path d="M14.2728 7.64423C13.9923 7.64423 13.7181 7.56114 13.4848 7.40545C13.2516 7.24977 13.0698 7.02849 12.9625 6.76959C12.8551 6.5107 12.827 6.22582 12.8817 5.95098C12.9365 5.67614 13.0715 5.42368 13.2699 5.22553C13.4682 5.02738 13.721 4.89244 13.9961 4.83777C14.2712 4.7831 14.5564 4.81116 14.8155 4.9184C15.0747 5.02564 15.2962 5.20724 15.452 5.44023C15.6079 5.67323 15.6911 5.94717 15.6911 6.22739C15.6911 6.60316 15.5416 6.96354 15.2757 7.22925C15.0097 7.49496 14.6489 7.64423 14.2728 7.64423ZM14.2728 5.359C14.1009 5.359 13.9328 5.40993 13.7898 5.50535C13.6469 5.60077 13.5355 5.7364 13.4697 5.89507C13.4039 6.05375 13.3867 6.22835 13.4202 6.39681C13.4537 6.56526 13.5365 6.71999 13.6581 6.84143C13.7797 6.96288 13.9346 7.04559 14.1032 7.07909C14.2718 7.1126 14.4466 7.0954 14.6054 7.02968C14.7643 6.96395 14.9 6.85265 14.9955 6.70984C15.0911 6.56704 15.142 6.39914 15.142 6.22739C15.142 5.99708 15.0505 5.7762 14.8874 5.61335C14.7244 5.45049 14.5033 5.359 14.2728 5.359V5.359Z" fill="#C6927E"/>
<path d="M14.2727 5.35803C14.236 5.35827 14.1996 5.35112 14.1658 5.337C14.1319 5.32288 14.1012 5.30208 14.0756 5.27585C14.05 5.24961 14.0299 5.21848 14.0166 5.18432C14.0033 5.15016 13.997 5.11367 13.9982 5.07703V3.04571C13.9982 2.97298 14.0271 2.90323 14.0786 2.8518C14.1301 2.80038 14.1999 2.77148 14.2727 2.77148C14.3455 2.77148 14.4153 2.80038 14.4668 2.8518C14.5183 2.90323 14.5472 2.97298 14.5472 3.04571V5.07703C14.5483 5.11367 14.5421 5.15016 14.5288 5.18432C14.5154 5.21848 14.4954 5.24961 14.4698 5.27585C14.4441 5.30208 14.4135 5.32288 14.3796 5.337C14.3457 5.35112 14.3094 5.35827 14.2727 5.35803V5.35803Z" fill="#C6927E"/>
</g>
<defs>
<clipPath id="clip0">
<rect width="20" height="20" fill="white"/>
</clipPath>
</defs>
</svg>
