<svg width="20" height="20" viewBox="0 0 20 20" fill="none" xmlns="http://www.w3.org/2000/svg">
<g clip-path="url(#clip0)">
<path d="M7.12376 15.9718H5.6377L6.32396 14.8555H7.81172L7.12376 15.9718Z" fill="#ECD0C7"/>
<path d="M10.3994 15.9718H8.91162L9.59958 14.8555H11.0873L10.3994 15.9718Z" fill="#ECD0C7"/>
<path d="M13.6748 15.9718H12.187L12.875 14.8555H14.3627L13.6748 15.9718Z" fill="#ECD0C7"/>
<path d="M5.03083 18.5625H0.274414V19.6789H5.03083V18.5625Z" fill="#ECD0C7"/>
<path d="M19.7237 18.5625H14.9673V19.6789H19.7237V18.5625Z" fill="#ECD0C7"/>
<path d="M4.23625 8.68555H3.36529C3.3213 8.68555 3.28564 8.72713 3.28564 8.77841V13.6569C3.28564 13.7082 3.3213 13.7498 3.36529 13.7498H4.23625C4.28023 13.7498 4.31589 13.7082 4.31589 13.6569V8.77841C4.31589 8.72713 4.28023 8.68555 4.23625 8.68555Z" fill="#ECD0C7"/>
<path d="M18.9291 8.68555H18.0582C18.0142 8.68555 17.9785 8.72713 17.9785 8.77841V13.6569C17.9785 13.7082 18.0142 13.7498 18.0582 13.7498H18.9291C18.9731 13.7498 19.0088 13.7082 19.0088 13.6569V8.77841C19.0088 8.72713 18.9731 8.68555 18.9291 8.68555Z" fill="#ECD0C7"/>
<path d="M4.77137 14.1758H0.535156V18.5642H4.77137V14.1758Z" fill="#ECD0C7"/>
<path d="M19.4642 14.1758H15.228V18.5642H19.4642V14.1758Z" fill="#ECD0C7"/>
<path d="M7.02353 0.320381H13.0135C13.0402 0.319852 13.0667 0.325558 13.0915 0.337163C13.1163 0.348767 13.1388 0.366035 13.1577 0.387948C13.1767 0.409862 13.1917 0.435978 13.2018 0.464756C13.212 0.493534 13.2171 0.524393 13.2169 0.555512V3.64186H6.77783V0.593054C6.77783 0.519165 6.803 0.448301 6.84781 0.396054C6.89262 0.343806 6.95339 0.314453 7.01675 0.314453L7.02353 0.320381Z" fill="#ECD0C7"/>
<path d="M3.48896 15.5588H1.81819C1.74494 15.5588 1.67469 15.5249 1.62289 15.4645C1.57109 15.4041 1.54199 15.3222 1.54199 15.2368V14.5037C1.54199 14.4183 1.57109 14.3364 1.62289 14.276C1.67469 14.2156 1.74494 14.1816 1.81819 14.1816H3.48896C3.56221 14.1816 3.63246 14.2156 3.68426 14.276C3.73606 14.3364 3.76516 14.4183 3.76516 14.5037V15.2368C3.76516 15.3222 3.73606 15.4041 3.68426 15.4645C3.63246 15.5249 3.56221 15.5588 3.48896 15.5588V15.5588ZM2.0927 14.9167H3.21953V14.8199H2.0927V14.9167Z" fill="#C6927E"/>
<path d="M18.1818 15.5588H16.5094C16.4364 15.5583 16.3666 15.5242 16.3152 15.4638C16.2637 15.4035 16.2349 15.3218 16.2349 15.2368V14.5037C16.2349 14.4186 16.2637 14.337 16.3152 14.2767C16.3666 14.2163 16.4364 14.1822 16.5094 14.1816H18.1818C18.218 14.1816 18.2539 14.19 18.2873 14.2062C18.3207 14.2224 18.351 14.2462 18.3765 14.2761C18.402 14.306 18.4222 14.3415 18.4359 14.3806C18.4496 14.4197 18.4566 14.4615 18.4563 14.5037V15.2368C18.4566 15.279 18.4496 15.3208 18.4359 15.3599C18.4222 15.3989 18.402 15.4345 18.3765 15.4644C18.351 15.4943 18.3207 15.5181 18.2873 15.5343C18.2539 15.5505 18.218 15.5588 18.1818 15.5588V15.5588ZM16.7856 14.9167H17.9073V14.8199H16.7856V14.9167Z" fill="#C6927E"/>
<path d="M19.7238 3.96362H0.274506C0.201547 3.9631 0.131729 3.92894 0.0802974 3.8686C0.0288656 3.80825 -1.373e-06 3.72663 0 3.64155L0 2.52517C0.000444456 2.44044 0.0295083 2.35932 0.0808922 2.2994C0.132276 2.23949 0.20184 2.2056 0.274506 2.20508H6.78641C6.85921 2.20508 6.92904 2.2388 6.98052 2.29883C7.032 2.35886 7.06092 2.44028 7.06092 2.52517C7.06092 2.61007 7.032 2.69148 6.98052 2.75151C6.92904 2.81154 6.85921 2.84527 6.78641 2.84527H0.550707V3.32146H19.4493V2.84527H13.217C13.1442 2.84527 13.0744 2.81154 13.0229 2.75151C12.9714 2.69148 12.9425 2.61007 12.9425 2.52517C12.9425 2.44028 12.9714 2.35886 13.0229 2.29883C13.0744 2.2388 13.1442 2.20508 13.217 2.20508H19.7238C19.7959 2.20662 19.8646 2.24097 19.9152 2.30077C19.9659 2.36058 19.9945 2.44111 19.9949 2.52517V3.64155C19.9949 3.72595 19.9665 3.80699 19.9158 3.86722C19.8651 3.92745 19.7962 3.96207 19.7238 3.96362V3.96362Z" fill="#C6927E"/>
<path d="M14.2826 16.2898H5.71694C5.51695 16.2898 5.32516 16.1972 5.18375 16.0323C5.04233 15.8674 4.96289 15.6437 4.96289 15.4105C4.96289 15.1773 5.04233 14.9537 5.18375 14.7888C5.32516 14.6239 5.51695 14.5313 5.71694 14.5312H14.2826C14.4825 14.5312 14.6743 14.6239 14.8157 14.7888C14.9572 14.9537 15.0366 15.1773 15.0366 15.4105C15.0366 15.6437 14.9572 15.8674 14.8157 16.0323C14.6743 16.1972 14.4825 16.2898 14.2826 16.2898ZM5.71694 15.1734C5.68856 15.1704 5.65995 15.1743 5.63295 15.1849C5.60594 15.1955 5.58112 15.2125 5.56008 15.2349C5.53903 15.2573 5.52222 15.2846 5.51072 15.315C5.49922 15.3454 5.49328 15.3783 5.49328 15.4115C5.49328 15.4447 5.49922 15.4776 5.51072 15.508C5.52222 15.5384 5.53903 15.5657 5.56008 15.5881C5.58112 15.6105 5.60594 15.6275 5.63295 15.6381C5.65995 15.6487 5.68856 15.6526 5.71694 15.6496H14.2826C14.3335 15.6442 14.3809 15.6168 14.4154 15.5727C14.4498 15.5287 14.469 15.4712 14.469 15.4115C14.469 15.3519 14.4498 15.2944 14.4154 15.2503C14.3809 15.2063 14.3335 15.1788 14.2826 15.1734H5.71694Z" fill="#C6927E"/>
<path d="M3.1313 8.49727H2.17392C2.10096 8.49675 2.03114 8.46258 1.97971 8.40224C1.92828 8.3419 1.89941 8.26027 1.89941 8.1752V3.63064C1.89986 3.54591 1.92892 3.46479 1.98031 3.40487C2.03169 3.34496 2.10125 3.31107 2.17392 3.31055H3.1313C3.20427 3.31055 3.27426 3.34421 3.32601 3.40418C3.37776 3.46415 3.40706 3.54557 3.40751 3.63064V8.1752C3.40751 8.21749 3.40036 8.25937 3.38648 8.29845C3.3726 8.33752 3.35226 8.37303 3.32661 8.40294C3.30096 8.43284 3.27051 8.45657 3.237 8.47275C3.20349 8.48894 3.16758 8.49727 3.1313 8.49727V8.49727ZM2.45351 7.8551H2.86019V3.96457H2.45351V7.8551Z" fill="#C6927E"/>
<path d="M5.03262 19.9988H0.274506C0.201547 19.9983 0.131729 19.9641 0.0802974 19.9038C0.0288656 19.8434 -1.373e-06 19.7618 0 19.6767L0 18.5603C0.000444456 18.4756 0.0295083 18.3945 0.0808922 18.3346C0.132276 18.2746 0.20184 18.2408 0.274506 18.2402H5.03262C5.10529 18.2408 5.17485 18.2746 5.22623 18.3346C5.27762 18.3945 5.30668 18.4756 5.30713 18.5603V19.6767C5.30713 19.7618 5.27826 19.8434 5.22683 19.9038C5.1754 19.9641 5.10558 19.9983 5.03262 19.9988ZM0.550707 19.3625H4.75642V18.8883H0.550707V19.3625Z" fill="#C6927E"/>
<path d="M4.77146 18.8848H0.535249C0.46229 18.8843 0.392471 18.8501 0.34104 18.7898C0.289608 18.7294 0.260741 18.6478 0.260742 18.5627V8.99744C0.26119 8.69681 0.363808 8.40863 0.546115 8.19605C0.728422 7.98346 0.975555 7.8638 1.23338 7.86328H4.06655C4.32438 7.8638 4.57151 7.98346 4.75382 8.19605C4.93612 8.40863 5.03874 8.69681 5.03919 8.99744V18.5627C5.03922 18.6465 5.01129 18.7269 4.96131 18.7871C4.91133 18.8472 4.84323 18.8822 4.77146 18.8848V18.8848ZM0.809755 18.2427H4.49526V8.99744C4.49594 8.93158 4.48532 8.86621 4.46401 8.8052C4.44271 8.74419 4.41116 8.68877 4.37121 8.64219C4.33127 8.59561 4.28374 8.55882 4.23142 8.53398C4.17909 8.50914 4.12304 8.49675 4.06655 8.49754H1.23338C1.12132 8.49754 1.01382 8.54931 0.934428 8.64153C0.855032 8.73374 0.810203 8.85887 0.809755 8.98954V18.2427Z" fill="#C6927E"/>
<path d="M4.77146 18.8841H0.535249C0.46229 18.8836 0.392471 18.8495 0.34104 18.7891C0.289608 18.7288 0.260741 18.6472 0.260742 18.5621V14.1756C0.260741 14.0905 0.289608 14.0089 0.34104 13.9485C0.392471 13.8882 0.46229 13.854 0.535249 13.8535H4.77146C4.84442 13.854 4.91424 13.8882 4.96567 13.9485C5.0171 14.0089 5.04597 14.0905 5.04597 14.1756V18.5621C5.04597 18.6472 5.0171 18.7288 4.96567 18.7891C4.91424 18.8495 4.84442 18.8836 4.77146 18.8841V18.8841ZM0.809755 18.242H4.49526V14.4878H0.809755V18.242Z" fill="#C6927E"/>
<path d="M17.8242 8.49727H16.8668C16.8306 8.49727 16.7948 8.48893 16.7614 8.47272C16.7279 8.45651 16.6976 8.43275 16.6721 8.40282C16.6466 8.37288 16.6264 8.33736 16.6127 8.2983C16.599 8.25924 16.5921 8.2174 16.5923 8.1752V3.63064C16.5923 3.58861 16.5994 3.54698 16.6132 3.50815C16.627 3.46931 16.6472 3.43402 16.6727 3.4043C16.6982 3.37458 16.7284 3.351 16.7617 3.33491C16.7951 3.31883 16.8307 3.31055 16.8668 3.31055H17.8242C17.8971 3.31055 17.9671 3.34421 18.0189 3.40418C18.0706 3.46415 18.0999 3.54557 18.1004 3.63064V8.1752C18.1004 8.21749 18.0932 8.25937 18.0794 8.29845C18.0655 8.33752 18.0451 8.37303 18.0195 8.40294C17.9938 8.43284 17.9634 8.45657 17.9299 8.47275C17.8964 8.48894 17.8605 8.49727 17.8242 8.49727V8.49727ZM17.1464 7.8551H17.5548V3.96457H17.1464V7.8551Z" fill="#C6927E"/>
<path d="M19.7238 19.9988H14.9674C14.9312 19.9988 14.8954 19.9904 14.8619 19.9742C14.8285 19.958 14.7982 19.9343 14.7727 19.9043C14.7472 19.8744 14.727 19.8389 14.7133 19.7998C14.6996 19.7607 14.6927 19.7189 14.6929 19.6767V18.5603C14.6929 18.5183 14.7 18.4767 14.7138 18.4378C14.7276 18.399 14.7478 18.3637 14.7733 18.334C14.7988 18.3043 14.829 18.2807 14.8623 18.2646C14.8956 18.2485 14.9313 18.2402 14.9674 18.2402H19.7238C19.7959 18.2418 19.8646 18.2761 19.9152 18.3359C19.9659 18.3957 19.9945 18.4763 19.9949 18.5603V19.6767C19.9949 19.7611 19.9665 19.8421 19.9158 19.9024C19.8651 19.9626 19.7962 19.9972 19.7238 19.9988V19.9988ZM15.2504 19.3625H19.4578V18.8883H15.2504V19.3625Z" fill="#C6927E"/>
<path d="M19.4629 18.8848H15.2267C15.1905 18.8848 15.1546 18.8765 15.1212 18.8603C15.0878 18.8441 15.0575 18.8203 15.032 18.7904C15.0064 18.7604 14.9863 18.7249 14.9726 18.6859C14.9589 18.6468 14.9519 18.605 14.9522 18.5627V8.99745C14.9524 8.84825 14.9778 8.70056 15.027 8.56281C15.0761 8.42507 15.1481 8.29997 15.2387 8.19465C15.3294 8.08934 15.4369 8.00587 15.5552 7.94901C15.6735 7.89215 15.8002 7.86302 15.9282 7.86328H18.7681C19.026 7.86381 19.2731 7.98347 19.4554 8.19605C19.6377 8.40863 19.7403 8.69681 19.7408 8.99745V18.5627C19.7408 18.6052 19.7336 18.6473 19.7196 18.6865C19.7056 18.7257 19.6851 18.7613 19.6593 18.7912C19.6334 18.8211 19.6028 18.8448 19.5691 18.8609C19.5354 18.8769 19.4993 18.8851 19.4629 18.8848V18.8848ZM15.5029 18.2427H19.1884V8.99745C19.189 8.93225 19.1786 8.86753 19.1578 8.80705C19.1369 8.74656 19.1059 8.69149 19.0667 8.64502C19.0275 8.59854 18.9807 8.56159 18.9292 8.53628C18.8777 8.51096 18.8224 8.4978 18.7664 8.49754H15.9282C15.8161 8.49754 15.7086 8.54932 15.6292 8.64153C15.5498 8.73374 15.505 8.85888 15.5046 8.98954L15.5029 18.2427Z" fill="#C6927E"/>
<path d="M19.4629 18.8841H15.2267C15.1905 18.8841 15.1546 18.8758 15.1212 18.8596C15.0878 18.8434 15.0575 18.8196 15.032 18.7897C15.0064 18.7598 14.9863 18.7242 14.9726 18.6852C14.9589 18.6461 14.9519 18.6043 14.9522 18.5621V14.1756C14.9519 14.1334 14.9589 14.0915 14.9726 14.0525C14.9863 14.0134 15.0064 13.9779 15.032 13.948C15.0575 13.918 15.0878 13.8943 15.1212 13.8781C15.1546 13.8619 15.1905 13.8535 15.2267 13.8535H19.4629C19.5361 13.8535 19.6064 13.8874 19.6582 13.9478C19.71 14.0082 19.7391 14.0902 19.7391 14.1756V18.5621C19.7391 18.6475 19.71 18.7294 19.6582 18.7898C19.6064 18.8502 19.5361 18.8841 19.4629 18.8841ZM15.5029 18.242H19.1884V14.4878H15.5029V18.242Z" fill="#C6927E"/>
<path d="M5.87797 19.9995H5.03073C4.99275 20.003 4.95457 19.9973 4.91858 19.9827C4.88259 19.9682 4.84958 19.9451 4.82161 19.9149C4.79364 19.8848 4.77132 19.8482 4.75605 19.8075C4.74079 19.7668 4.73291 19.7229 4.73291 19.6785C4.73291 19.634 4.74079 19.5901 4.75605 19.5494C4.77132 19.5087 4.79364 19.4721 4.82161 19.442C4.84958 19.4118 4.88259 19.3887 4.91858 19.3742C4.95457 19.3596 4.99275 19.3539 5.03073 19.3574H5.60177V15.9707C5.60721 15.8899 5.63858 15.8144 5.68962 15.7594C5.74066 15.7044 5.80761 15.6738 5.87712 15.6738C5.94663 15.6738 6.01359 15.7044 6.06463 15.7594C6.11567 15.8144 6.14704 15.8899 6.15248 15.9707V19.6775C6.15248 19.7625 6.12361 19.8442 6.07218 19.9045C6.02075 19.9648 5.95093 19.999 5.87797 19.9995Z" fill="#C6927E"/>
<path d="M5.87807 15.1755C5.80541 15.175 5.73584 15.1411 5.68446 15.0812C5.63308 15.0213 5.60401 14.9402 5.60357 14.8554V14.0987C5.60357 13.8412 5.51597 13.5942 5.35999 13.4119C5.20401 13.2297 4.99239 13.127 4.77158 13.1265C4.69877 13.1265 4.62895 13.0928 4.57747 13.0328C4.52599 12.9727 4.49707 12.8913 4.49707 12.8064C4.49707 12.7215 4.52599 12.6401 4.57747 12.5801C4.62895 12.5201 4.69877 12.4863 4.77158 12.4863C5.13815 12.4869 5.48959 12.6569 5.7488 12.9591C6.00801 13.2614 6.15383 13.6712 6.15428 14.0987V14.8554C6.15383 14.9405 6.12453 15.0219 6.07278 15.0819C6.02103 15.1419 5.95104 15.1755 5.87807 15.1755Z" fill="#C6927E"/>
<path d="M13.217 3.96364H6.78646C6.7132 3.96364 6.64295 3.92971 6.59115 3.86931C6.53935 3.80891 6.51025 3.72699 6.51025 3.64157V1.72298C6.51025 0.804189 7.15246 0 7.88618 0H12.1139C12.8459 0 13.4881 0.804189 13.4881 1.72298V3.64157C13.4886 3.72613 13.4603 3.80746 13.4095 3.8678C13.3587 3.92815 13.2895 3.9626 13.217 3.96364V3.96364ZM7.06096 3.32148H12.9391V1.72298C12.9391 1.1559 12.546 0.642166 12.1139 0.642166H7.88618C7.45408 0.642166 7.06096 1.1559 7.06096 1.72298V3.32148Z" fill="#C6927E"/>
</g>
<defs>
<clipPath id="clip0">
<rect width="20" height="20" fill="white"/>
</clipPath>
</defs>
</svg>
