<svg id="Layer_1" data-name="Layer 1" xmlns="http://www.w3.org/2000/svg" viewBox="0 0 800 800"><defs><style>.cls-1{fill:#c8947f;}</style></defs><title>TMRBB</title><path class="cls-1" d="M400,25C193.22,25,25,193.22,25,400S193.22,775,400,775,775,606.78,775,400,606.78,25,400,25Zm0,735.29C201.33,760.29,39.71,598.67,39.71,400S201.33,39.71,400,39.71,760.29,201.33,760.29,400,598.67,760.29,400,760.29Z"/><path class="cls-1" d="M513.51,158C380.05,95.38,220.57,153,158,286.49S153,579.43,286.49,642a265.74,265.74,0,0,0,113.1,25.28c100.52,0,197-56.93,242.43-153.79C704.61,380.06,647,220.57,513.51,158Zm115.2,349.29c-59.15,126.11-209.88,180.58-336,121.44s-180.59-209.86-121.45-336a18.61,18.61,0,0,1,34.05,15A215.41,215.41,0,0,0,387.88,615q6.21.36,12.4.35A215.33,215.33,0,1,0,256.56,239.41a216,216,0,0,0-38.83,45.87,33.18,33.18,0,0,0-32.81-17.79c46.82-76.1,129.57-120.09,215.47-120.09a251.16,251.16,0,0,1,106.87,23.89C633.37,230.44,687.85,381.15,628.71,507.27ZM218.36,314.81c.27-.58.49-1.17.73-1.76A201.1,201.1,0,0,1,399.75,199.37c3.83,0,7.69.11,11.55.33a200.62,200.62,0,1,1-160.92,334,18.64,18.64,0,1,1,27.81-24.84l0,0a162.14,162.14,0,0,0,85.6,50.43,164.92,164.92,0,0,0,36.49,4.11A163.41,163.41,0,1,0,261.8,487.05c.19.31.41.61.61.92a33.16,33.16,0,0,0-29.74,22.75,201,201,0,0,1-14.53-195.57C218.2,315,218.3,314.94,218.36,314.81Zm102.43-40.57a18.64,18.64,0,0,1,19.87,31.55,5.21,5.21,0,0,0-.52.41,110.87,110.87,0,1,0,23.55-11.43,33.3,33.3,0,0,0-16.41-33.72,146.73,146.73,0,0,1,52.43-9.73,150.1,150.1,0,0,1,33.2,3.74,148.64,148.64,0,1,1-112.12,19.18ZM400,459.35a59.35,59.35,0,1,0-54.43-82.93,33.2,33.2,0,0,0-37.29-6.78A96.59,96.59,0,1,1,303.37,400a18.64,18.64,0,0,1,37.28,0A59.42,59.42,0,0,0,400,459.35ZM355.36,400A44.64,44.64,0,1,1,400,444.64,44.68,44.68,0,0,1,355.36,400Z"/><circle class="cls-1" cx="400" cy="400" r="26"/></svg>