<svg id="Layer_1" data-name="Layer 1" xmlns="http://www.w3.org/2000/svg" viewBox="0 0 800 800"><defs><style>.cls-1{fill:#c8947f;}</style></defs><title>TMRBB</title><path class="cls-1" d="M400,25C193.22,25,25,193.22,25,400S193.22,775,400,775,775,606.78,775,400,606.78,25,400,25Zm0,735.3C201.33,760.3,39.71,598.67,39.71,400S201.33,39.7,400,39.7,760.29,201.33,760.29,400,598.67,760.3,400,760.3Z"/><path class="cls-1" d="M268.58,275.93a59.76,59.76,0,1,0-59.76-59.76A59.82,59.82,0,0,0,268.58,275.93Zm0-104.81a45.06,45.06,0,1,1-45,45A45.1,45.1,0,0,1,268.58,171.12Z"/><path class="cls-1" d="M531.42,524.06a59.76,59.76,0,1,0,59.76,59.76A59.82,59.82,0,0,0,531.42,524.06Zm0,104.82a45.06,45.06,0,1,1,45.05-45.06A45.11,45.11,0,0,1,531.42,628.88Z"/><path class="cls-1" d="M457.89,576.47H232a84.56,84.56,0,0,1,0-169.12h21a7.36,7.36,0,0,0,0-14.71H232a99.27,99.27,0,1,0,0,198.53H457.89a7.35,7.35,0,1,0,0-14.7Z"/><path class="cls-1" d="M568.05,208.82H342.11a7.36,7.36,0,0,0,0,14.71H568.05a84.56,84.56,0,1,1,0,169.11h-21a7.36,7.36,0,0,0,0,14.71h21a99.27,99.27,0,1,0,0-198.53Z"/><path class="cls-1" d="M290,308.09V491.91a7.36,7.36,0,0,0,7.35,7.36H502.68a7.36,7.36,0,0,0,7.35-7.36V308.09a7.36,7.36,0,0,0-7.35-7.36H297.32A7.36,7.36,0,0,0,290,308.09Zm14.71,176.47V361.19a32.71,32.71,0,0,0,43.57-6.68,32.74,32.74,0,0,0,50.93,0,32.74,32.74,0,0,0,50.93,0A32.67,32.67,0,0,0,495.32,360V484.56Zm189-150.71a18.12,18.12,0,0,1-36.23,0V315.44h36.23Zm-50.93,0a18.12,18.12,0,0,1-36.23,0V315.44h36.23Zm-50.93,0a18.11,18.11,0,1,1-36.22,0V315.44h36.22Zm-87.15-18.41H340.9v18.41a18.11,18.11,0,1,1-36.22,0Z"/></svg>