<svg id="Layer_1" data-name="Layer 1" xmlns="http://www.w3.org/2000/svg" viewBox="0 0 800 800"><defs><style>.cls-1{fill:#c8947f;}</style></defs><title>TMRBB</title><path class="cls-1" d="M400,25C193.22,25,25,193.22,25,400S193.22,775,400,775,775,606.78,775,400,606.78,25,400,25Zm0,735.29C201.33,760.29,39.71,598.67,39.71,400S201.33,39.71,400,39.71,760.29,201.33,760.29,400,598.67,760.29,400,760.29Z"/><path class="cls-1" d="M641.58,309.93H602.21a25.48,25.48,0,0,0-11,2.52V289.71A25.77,25.77,0,0,0,565.44,264H526.06a25.76,25.76,0,0,0-25.73,25.74v80H299.67v-80A25.76,25.76,0,0,0,273.94,264H234.56a25.77,25.77,0,0,0-25.74,25.74v22.74a25.48,25.48,0,0,0-11-2.52H158.42a25.76,25.76,0,0,0-25.74,25.73V464.34a25.76,25.76,0,0,0,25.74,25.73h39.37a25.48,25.48,0,0,0,11-2.52v22.74A25.77,25.77,0,0,0,234.56,536h39.38a25.76,25.76,0,0,0,25.73-25.74v-80H500.33v80A25.76,25.76,0,0,0,526.06,536h39.38a25.77,25.77,0,0,0,25.74-25.74V487.55a25.48,25.48,0,0,0,11,2.52h39.37a25.76,25.76,0,0,0,25.74-25.73V335.66A25.76,25.76,0,0,0,641.58,309.93ZM197.79,475.37H158.42a11,11,0,0,1-11-11V335.66a11,11,0,0,1,11-11h39.37a11,11,0,0,1,11,11V464.34A11,11,0,0,1,197.79,475.37ZM285,510.29a11,11,0,0,1-11,11H234.56a11,11,0,0,1-11-11V289.71a11,11,0,0,1,11-11h39.38a11,11,0,0,1,11,11V510.29Zm14.7-94.67V384.38H500.33v31.24Zm276.8,94.67a11,11,0,0,1-11,11H526.06a11,11,0,0,1-11-11V289.71a11,11,0,0,1,11-11h39.38a11,11,0,0,1,11,11V510.29Zm76.14-46a11,11,0,0,1-11,11H602.21a11,11,0,0,1-11-11V335.66a11,11,0,0,1,11-11h39.37a11,11,0,0,1,11,11Z"/></svg>