<svg id="Layer_1" data-name="Layer 1" xmlns="http://www.w3.org/2000/svg" viewBox="0 0 800 800"><defs><style>.cls-1{fill:#c8947f;}</style></defs><title>TMRBB</title><path class="cls-1" d="M400,25C193.22,25,25,193.22,25,400S193.22,775,400,775,775,606.78,775,400,606.78,25,400,25Zm0,735.29C201.33,760.29,39.71,598.67,39.71,400S201.33,39.71,400,39.71,760.29,201.33,760.29,400,598.67,760.29,400,760.29Z"/><path class="cls-1" d="M537.87,485.47a7.36,7.36,0,0,0-7.36,7.35v83.65H407.35V400s0,0,0,0,0,0,0,0V223.53H530.51v68.79a7.36,7.36,0,1,0,14.71,0V216.18a7.35,7.35,0,0,0-7.35-7.35H407.35V140a7.35,7.35,0,0,0-10.9-6.44L258.58,209.74a7.35,7.35,0,0,0-3.8,6.44V583.83a7.33,7.33,0,0,0,3.8,6.43l137.87,76.15a7.35,7.35,0,0,0,10.9-6.44V591.18H537.87a7.35,7.35,0,0,0,7.35-7.35v-91A7.35,7.35,0,0,0,537.87,485.47ZM392.65,392.65H338.42V182.45l54.23-29.95ZM323.71,190.57V392.65H269.49V220.52ZM269.49,407.36h54.22V609.44l-54.22-30ZM392.65,647.51l-54.23-30V407.36h54.23Z"/><path class="cls-1" d="M481.89,356.71a7.36,7.36,0,0,0,0,14.71A84.65,84.65,0,0,1,566.45,456a7.36,7.36,0,0,0,14.71,0A99.38,99.38,0,0,0,481.89,356.71Z"/><path class="cls-1" d="M520.49,456a7.36,7.36,0,0,0,14.71,0,53.36,53.36,0,0,0-53.31-53.31,7.36,7.36,0,0,0,0,14.71A38.64,38.64,0,0,1,520.49,456Z"/><path class="cls-1" d="M481.89,310.76a7.35,7.35,0,1,0,0,14.7A130.67,130.67,0,0,1,612.41,456a7.35,7.35,0,0,0,14.7,0C627.11,375.9,562,310.76,481.89,310.76Z"/><path class="cls-1" d="M456,462.65a19.24,19.24,0,1,0,19.24-19.24A19.23,19.23,0,0,0,456,462.65Z"/></svg>