<svg id="Layer_1" data-name="Layer 1" xmlns="http://www.w3.org/2000/svg" viewBox="0 0 800 800"><defs><style>.cls-1{fill:#c8947f;}</style></defs><title>TMRBB</title><path class="cls-1" d="M400,25C193.22,25,25,193.22,25,400S193.22,775,400,775,775,606.78,775,400,606.78,25,400,25Zm0,735.3C201.33,760.3,39.71,598.67,39.71,400S201.33,39.7,400,39.7,760.29,201.33,760.29,400,598.67,760.3,400,760.3Z"/><path class="cls-1" d="M660,208.82H140a7.35,7.35,0,0,0-7.35,7.35V583.82a7.35,7.35,0,0,0,7.35,7.35H660a7.35,7.35,0,0,0,7.35-7.35V216.17A7.35,7.35,0,0,0,660,208.82ZM476.14,392.64H400a7.36,7.36,0,0,0-7.36,7.35V576.47H223.53V507.68a7.36,7.36,0,0,0-7.35-7.36H147.39v-93h68.79a7.35,7.35,0,0,0,7.35-7.35V299.67h68.79a7.35,7.35,0,0,0,7.35-7.35V223.53h93v68.79a7.36,7.36,0,0,0,7.36,7.35H576.47V400a7.35,7.35,0,0,0,7.35,7.35h68.79v93H483.49V400A7.35,7.35,0,0,0,476.14,392.64ZM652.61,223.53V392.65H591.18V292.32a7.37,7.37,0,0,0-7.36-7.36H407.35V223.53Zm-505.22,0H285V285H216.18a7.37,7.37,0,0,0-7.36,7.36V392.65H147.39Zm0,352.94V515h61.43v61.44Zm505.22,0H407.35V407.35h61.44V507.68a7.35,7.35,0,0,0,7.35,7.35H652.61Z"/></svg>