<svg id="Layer_1" data-name="Layer 1" xmlns="http://www.w3.org/2000/svg" viewBox="0 0 800 800"><defs><style>.cls-1{fill:#c8947f;}</style></defs><title>TMRBB</title><path class="cls-1" d="M400,25C193.22,25,25,193.22,25,400S193.22,775,400,775,775,606.78,775,400,606.78,25,400,25Zm0,735.29C201.33,760.29,39.71,598.67,39.71,400S201.33,39.71,400,39.71,760.29,201.33,760.29,400,598.67,760.29,400,760.29Z"/><path class="cls-1" d="M485.1,421.06a7.36,7.36,0,0,0-3.46-9.81,189.36,189.36,0,0,0-82.36-18.6c-105.42,0-191.18,85.76-191.18,191.17a7.36,7.36,0,1,0,14.71,0c0-97.3,79.16-176.47,176.47-176.47a174.88,174.88,0,0,1,76,17.17A7.36,7.36,0,0,0,485.1,421.06Z"/><path class="cls-1" d="M399.28,382.49a86.84,86.84,0,1,0-86.83-86.83A86.93,86.93,0,0,0,399.28,382.49Zm0-159a72.13,72.13,0,1,1-72.13,72.13A72.21,72.21,0,0,1,399.28,223.53Z"/><path class="cls-1" d="M661.49,432.9,571.09,404a7.29,7.29,0,0,0-4.48,0L476.22,432.9a7.36,7.36,0,0,0-5.11,7v99.33a97.75,97.75,0,1,0,195.49,0V439.91A7.37,7.37,0,0,0,661.49,432.9Zm-9.6,106.34a83,83,0,1,1-166.08,0v-94l83-26.58,83,26.58Z"/><path class="cls-1" d="M521,510a7.35,7.35,0,0,0-10.4,10.4l38.77,38.77a7.34,7.34,0,0,0,10.4,0l67.33-67.33a7.35,7.35,0,1,0-10.4-10.39l-62.13,62.13Z"/></svg>