<svg id="Layer_1" data-name="Layer 1" xmlns="http://www.w3.org/2000/svg" viewBox="0 0 800 800"><defs><style>.cls-1{fill:#c8947f;}</style></defs><title>TMRBB</title><path class="cls-1" d="M400,25C193.22,25,25,193.22,25,400S193.22,775,400,775,775,606.78,775,400,606.78,25,400,25Zm0,735.29C201.33,760.29,39.71,598.67,39.71,400S201.33,39.71,400,39.71,760.29,201.33,760.29,400,598.67,760.29,400,760.29Z"/><path class="cls-1" d="M621.9,384.83H591.1V178.1a7.35,7.35,0,0,0-7.35-7.35H241.49a7.35,7.35,0,0,0-7.35,7.35V304H215.27a44.56,44.56,0,0,0-44.51,44.51v144.8a7.36,7.36,0,0,0,7.35,7.36H246.9v72.46L174.4,615.4a7.35,7.35,0,0,0,7.42,12.7l65.08-38v31.64a7.35,7.35,0,0,0,14.7,0V588.18L359,628.68a7.26,7.26,0,0,0,2.83.57h222a7.36,7.36,0,0,0,0-14.71h-57V445.42h57a7.35,7.35,0,0,0,7.35-7.35V399.53h30.8a7.35,7.35,0,1,0,0-14.7ZM576.4,185.46v29.75H248.84V185.46ZM248.84,229.91H576.4V384.83H361.79a7.35,7.35,0,0,0,0,14.7h95.1v31.19H312.23V348.46A44.56,44.56,0,0,0,267.72,304H248.84ZM512.09,430.72H471.6V399.53h40.49ZM185.46,348.46a29.84,29.84,0,0,1,29.81-29.8h52.45a29.84,29.84,0,0,1,29.8,29.8v82.26H185.46Zm0,97h169v40.49h-169ZM261.6,572.25V500.62H361.79a7.36,7.36,0,0,0,7.35-7.36V445.42h87.75V614.54H363.26Zm250.49,42.29H471.6V445.42h40.49ZM576.4,430.72H526.79V399.53H576.4Z"/><path class="cls-1" d="M400,362.5h96.1a7.36,7.36,0,0,0,5.12-12.63l-83.48-81a7.35,7.35,0,1,0-10.24,10.56L478,347.79H400a7.36,7.36,0,0,0,0,14.71Z"/></svg>