<svg id="Layer_1" data-name="Layer 1" xmlns="http://www.w3.org/2000/svg" viewBox="0 0 800 800"><defs><style>.cls-1{fill:#c8947f;}</style></defs><title>TMRBB</title><path class="cls-1" d="M400,25C193.22,25,25,193.22,25,400S193.22,775,400,775,775,606.78,775,400,606.78,25,400,25Zm0,735.29C201.33,760.29,39.71,598.67,39.71,400S201.33,39.71,400,39.71,760.29,201.33,760.29,400,598.67,760.29,400,760.29Z"/><path class="cls-1" d="M583.82,208.83H216.18a7.36,7.36,0,0,0-7.36,7.35V583.83a7.36,7.36,0,0,0,7.36,7.35H583.82a7.35,7.35,0,0,0,7.35-7.35V216.18A7.35,7.35,0,0,0,583.82,208.83ZM331.37,576.47H223.53V223.53H331.37Zm122.55,0H346.08V407.36H453.92Zm0-183.82H346.08V223.53H453.92ZM576.47,576.47H468.63V223.53H576.47Z"/><path class="cls-1" d="M406,352.07h22.2v22.2a7.36,7.36,0,0,0,14.71,0V344.71a7.35,7.35,0,0,0-7.35-7.35H406a7.36,7.36,0,0,0,0,14.71Z"/><path class="cls-1" d="M406,535.89h22.2v22.2a7.36,7.36,0,0,0,14.71,0V528.54a7.36,7.36,0,0,0-7.35-7.36H406a7.36,7.36,0,0,0,0,14.71Z"/><path class="cls-1" d="M528.53,392.58h22.21v22.2a7.35,7.35,0,0,0,14.7,0V385.23a7.36,7.36,0,0,0-7.35-7.36H528.53a7.36,7.36,0,0,0,0,14.71Z"/><path class="cls-1" d="M283.43,392.58h22.21v22.2a7.35,7.35,0,0,0,14.7,0V385.23a7.36,7.36,0,0,0-7.35-7.36H283.43a7.36,7.36,0,0,0,0,14.71Z"/></svg>