<svg id="Layer_1" data-name="Layer 1" xmlns="http://www.w3.org/2000/svg" viewBox="0 0 800 800"><defs><style>.cls-1{fill:#c8947f;}</style></defs><title>TMRBB</title><path class="cls-1" d="M400,25C193.22,25,25,193.22,25,400S193.22,775,400,775,775,606.78,775,400,606.78,25,400,25Zm0,735.29C201.33,760.29,39.71,598.67,39.71,400S201.33,39.71,400,39.71,760.29,201.33,760.29,400,598.67,760.29,400,760.29Z"/><path class="cls-1" d="M213.94,593.29H586.06a7.35,7.35,0,0,0,7.35-7.35V214.06a7.35,7.35,0,0,0-7.35-7.35H213.94a7.35,7.35,0,0,0-7.35,7.35V585.94A7.35,7.35,0,0,0,213.94,593.29ZM476,324.11v54.34H221.3V324.11H476Zm102.69,88h-88v-88h88Zm-357.4,0V393.16H476v18.93Zm0,14.71H392.65V578.59H221.3ZM578.7,578.59H407.35V426.8H578.7Zm0-269.19H324v-88H578.7Zm-357.4-88h88v88h-88Z"/><path class="cls-1" d="M616.86,175.9H183.14a7.35,7.35,0,0,0-7.35,7.36V616.74a7.35,7.35,0,0,0,7.35,7.36H616.86a7.35,7.35,0,0,0,7.35-7.36V183.26A7.35,7.35,0,0,0,616.86,175.9Zm-7.35,433.49h-419V190.61h419Z"/><path class="cls-1" d="M363.24,495.34h-25.7a7.35,7.35,0,1,0,0,14.7h25.7a7.35,7.35,0,0,0,0-14.7Z"/><path class="cls-1" d="M462.46,495.34h-25.7a7.35,7.35,0,1,0,0,14.7h25.7a7.35,7.35,0,1,0,0-14.7Z"/></svg>