<svg id="Layer_1" data-name="Layer 1" xmlns="http://www.w3.org/2000/svg" viewBox="0 0 800 800"><defs><style>.cls-1{fill:#c8947f;}</style></defs><title>TMRBB</title><path class="cls-1" d="M400,25C193.22,25,25,193.22,25,400S193.22,775,400,775,775,606.78,775,400,606.78,25,400,25Zm0,735.29C201.33,760.29,39.71,598.67,39.71,400S201.33,39.71,400,39.71,760.29,201.33,760.29,400,598.67,760.29,400,760.29Z"/><path class="cls-1" d="M590.35,293.28c0-.15-.09-.29-.14-.43a7.26,7.26,0,0,0-.5-1.22l-.23-.42a6.79,6.79,0,0,0-1-1.28l-.06-.08a7.13,7.13,0,0,0-1.38-1.06l-.14-.11L403.29,182a7.35,7.35,0,0,0-7.38,0L212.5,287.84c-.06,0-.1.09-.15.12A7,7,0,0,0,211,289h0a7.21,7.21,0,0,0-1,1.36c-.09.14-.16.28-.24.43a8.14,8.14,0,0,0-.49,1.18c0,.16-.1.31-.14.48a6.83,6.83,0,0,0-.22,1.64s0,.06,0,.09h0v0l.6,210.76a7.35,7.35,0,0,0,3.66,6.33L396.71,618h0a7.76,7.76,0,0,0,1.12.46c.22.08.43.21.66.27a7.54,7.54,0,0,0,1.89.25,7.34,7.34,0,0,0,3.68-1L587.5,512.16a7.39,7.39,0,0,0,3.68-6.39L590.58,295A7.59,7.59,0,0,0,590.35,293.28ZM399.58,196.81l169,98.2L399.82,392.43l-169-98.2ZM223.57,307l168.9,98.16L393,598.89,224.11,500.73ZM407.73,599l-.55-193.8,168.73-97.42.55,193.8Z"/><path class="cls-1" d="M386.77,256.82c7,4.07,18.44,4.06,25.43,0s7-10.66-.06-14.73-18.46-4.07-25.45,0S379.7,252.75,386.77,256.82Z"/><path class="cls-1" d="M465,302c7.05,4.07,18.46,4.07,25.46,0s7-10.68-.08-14.74-18.46-4.07-25.46,0S458,297.93,465,302Z"/><path class="cls-1" d="M334.39,287.26c-7.06-4.08-18.43-4.08-25.43,0s-7,10.67.08,14.74,18.41,4.07,25.43,0S341.43,291.33,334.39,287.26Z"/><path class="cls-1" d="M412.73,347.16c7-4.06,6.94-10.66-.1-14.73s-18.44-4.08-25.43,0-7,10.68.08,14.74S405.71,351.24,412.73,347.16Z"/><path class="cls-1" d="M491.76,438.7c-7,4.07-12.72,13.92-12.7,22s5.75,11.36,12.79,7.29,12.75-13.92,12.72-22S498.83,434.62,491.76,438.7Z"/><path class="cls-1" d="M329.13,474.31c-7-4.06-12.78-.81-12.81,7.28s5.69,18,12.73,22,12.79.82,12.81-7.3S336.18,478.38,329.13,474.31Z"/><path class="cls-1" d="M287.53,402.26c-7-4.06-12.78-.82-12.81,7.3s5.69,17.95,12.73,22,12.79.82,12.81-7.27S294.58,406.33,287.53,402.26Z"/></svg>