<svg id="Layer_1" data-name="Layer 1" xmlns="http://www.w3.org/2000/svg" viewBox="0 0 800 800"><defs><style>.cls-1{fill:#c8947f;}</style></defs><title>TMRBB</title><path class="cls-1" d="M400,25C193.22,25,25,193.22,25,400S193.22,775,400,775,775,606.78,775,400,606.78,25,400,25Zm0,735.29C201.33,760.29,39.71,598.66,39.71,400S201.33,39.71,400,39.71,760.29,201.33,760.29,400,598.67,760.29,400,760.29Z"/><path class="cls-1" d="M548.69,308.57H406.63V248.14a38.94,38.94,0,0,0-38.9-38.9,7.36,7.36,0,0,0,0,14.71,24.22,24.22,0,0,1,23,16.84H290.4a39,39,0,0,0-38.18-31.55,7.36,7.36,0,0,0,0,14.71,24.22,24.22,0,0,1,24.19,24.19v60.43H249.87A118,118,0,0,0,132,426.48v47.21A118,118,0,0,0,249.87,591.6H548.69A118,118,0,0,0,666.6,473.69V426.48A118,118,0,0,0,548.69,308.57ZM291.12,387.85V365.79H391.93v22.06Zm0-58.83H391.93v22.06H291.12Zm0-14.7V292.26H391.93v22.06Zm100.81-36.77H291.12V255.49H391.93Zm260,196.14a103.32,103.32,0,0,1-103.2,103.2H249.87a103.33,103.33,0,0,1-103.21-103.2V426.48a103.32,103.32,0,0,1,103.21-103.2h26.54V400a7.34,7.34,0,0,0,14.22,2.55H392.41A7.34,7.34,0,0,0,406.63,400V323.28H548.69a103.31,103.31,0,0,1,103.2,103.2Z"/><path class="cls-1" d="M478.74,431.7c-13.21,0-19.93,7.47-25.33,13.46-5.09,5.65-8.05,8.6-14.41,8.6s-9.32-2.95-14.41-8.59c-5.4-6-12.12-13.47-25.33-13.47s-19.93,7.47-25.33,13.47c-5.08,5.64-8,8.59-14.39,8.59s-9.31-2.95-14.4-8.6c-5.4-6-12.12-13.46-25.32-13.46a7.36,7.36,0,1,0,0,14.71c6.36,0,9.31,2.95,14.39,8.59,5.4,6,12.13,13.47,25.33,13.47S379.46,461,384.86,455c5.09-5.64,8-8.59,14.4-8.59s9.32,2.95,14.4,8.6c5.41,6,12.13,13.46,25.34,13.46S458.93,461,464.33,455c5.09-5.64,8-8.59,14.41-8.59a7.36,7.36,0,0,0,0-14.71Z"/><path class="cls-1" d="M371.77,518.07c-13.21,0-19.94,7.46-25.34,13.46-5.09,5.65-8,8.6-14.41,8.6s-9.32-3-14.4-8.6c-5.41-6-12.13-13.46-25.34-13.46s-19.92,7.46-25.32,13.46c-5.08,5.65-8,8.6-14.39,8.6s-9.31-3-14.4-8.6c-5.4-6-12.12-13.46-25.33-13.46a7.35,7.35,0,0,0,0,14.7c6.36,0,9.31,3,14.4,8.6,5.4,6,12.12,13.46,25.33,13.46s19.92-7.46,25.32-13.46c5.08-5.65,8-8.6,14.39-8.6s9.32,3,14.41,8.6c5.4,6,12.13,13.46,25.33,13.46s19.93-7.46,25.34-13.46c5.09-5.65,8-8.6,14.41-8.6a7.35,7.35,0,1,0,0-14.7Z"/><path class="cls-1" d="M585.72,345.33c-13.21,0-19.94,7.47-25.34,13.47-5.09,5.65-8,8.59-14.41,8.59s-9.32-2.94-14.4-8.6c-5.41-6-12.13-13.46-25.34-13.46s-19.92,7.47-25.32,13.47c-5.08,5.65-8,8.59-14.39,8.59s-9.31-2.94-14.4-8.59c-5.4-6-12.12-13.47-25.33-13.47a7.36,7.36,0,0,0,0,14.71c6.36,0,9.31,2.95,14.4,8.6,5.4,6,12.12,13.46,25.33,13.46s19.92-7.46,25.32-13.46c5.08-5.65,8-8.6,14.39-8.6s9.32,2.95,14.41,8.6c5.4,6,12.13,13.46,25.33,13.46s19.93-7.46,25.34-13.46c5.09-5.65,8-8.6,14.41-8.6a7.36,7.36,0,0,0,0-14.71Z"/></svg>