<svg id="Layer_1" data-name="Layer 1" xmlns="http://www.w3.org/2000/svg" viewBox="0 0 800 800"><defs><style>.cls-1{fill:#c8947f;}</style></defs><title>TMRBB</title><path class="cls-1" d="M400,25C193.22,25,25,193.22,25,400S193.22,775,400,775,775,606.78,775,400,606.78,25,400,25Zm0,735.29C201.33,760.29,39.71,598.67,39.71,400S201.33,39.71,400,39.71,760.29,201.33,760.29,400,598.67,760.29,400,760.29Z"/><path class="cls-1" d="M239.61,458.84a7.36,7.36,0,0,0-7.36,7.35v29.55a7.36,7.36,0,1,0,14.71,0V466.19A7.35,7.35,0,0,0,239.61,458.84Z"/><path class="cls-1" d="M262.31,469.94a7.35,7.35,0,0,0-7.35,7.35v29.56a7.35,7.35,0,0,0,14.7,0V477.29A7.35,7.35,0,0,0,262.31,469.94Z"/><path class="cls-1" d="M590.93,420.65,590.58,295a7.59,7.59,0,0,0-.23-1.73c0-.15-.09-.29-.14-.43a7.26,7.26,0,0,0-.5-1.22l-.23-.42a6.79,6.79,0,0,0-1-1.28l-.06-.08a7.13,7.13,0,0,0-1.38-1.06l-.14-.11L403.29,182a7.35,7.35,0,0,0-7.38,0L212.5,287.84c-.06,0-.1.09-.15.12A7,7,0,0,0,211,289h0a7.21,7.21,0,0,0-1,1.36c-.09.14-.16.28-.24.43a8.14,8.14,0,0,0-.49,1.18c0,.16-.1.31-.14.48a6.83,6.83,0,0,0-.22,1.64s0,.06,0,.09h0v0l.6,210.76a7.35,7.35,0,0,0,3.66,6.33L396.71,618h0a7.76,7.76,0,0,0,1.12.46c.22.08.43.21.66.27a7.54,7.54,0,0,0,1.89.25,7.34,7.34,0,0,0,3.68-1l109.34-63.13a85.42,85.42,0,1,0,77.5-134.27ZM399.82,392.43,337.05,356l168.73-97.42L568.55,295ZM288.54,344.77l27.54,16v50l-27.54-15.08Zm4.14-14.6,168.74-97.42L491.13,250,322.4,347.43Zm106.9-133.36,47.18,27.42L278,321.65l-47.18-27.42ZM223.57,307l50.27,29.21V400a7.34,7.34,0,0,0,3.82,6.45l42.24,23.13a7.38,7.38,0,0,0,3.53.9,7.35,7.35,0,0,0,7.35-7.35V369.32l61.69,35.85L393,598.89,224.11,500.73ZM407.73,599l-.55-193.8,168.73-97.42.32,112.85A85.39,85.39,0,0,0,506,542.24Zm175.49-22.5A70.74,70.74,0,1,1,654,505.73,70.81,70.81,0,0,1,583.22,576.47Z"/><path class="cls-1" d="M634.12,473.31a7.36,7.36,0,0,0-10.4,0l-49.25,49.25-31.74-31.75a7.35,7.35,0,1,0-10.4,10.4l36.94,36.95a7.36,7.36,0,0,0,10.4,0l54.45-54.45A7.36,7.36,0,0,0,634.12,473.31Z"/></svg>