<svg id="Layer_1" data-name="Layer 1" xmlns="http://www.w3.org/2000/svg" viewBox="0 0 800 800"><defs><style>.cls-1{fill:#c8947f;}</style></defs><title>TMRBB</title><path class="cls-1" d="M400,25C193.22,25,25,193.22,25,400S193.22,775,400,775,775,606.78,775,400,606.78,25,400,25Zm0,735.29C201.33,760.29,39.71,598.67,39.71,400S201.33,39.71,400,39.71,760.29,201.33,760.29,400,598.67,760.29,400,760.29Z"/><path class="cls-1" d="M583.82,293H299.62a83.71,83.71,0,1,0-39,78.26L371.9,518.8V652.61H308.09a7.36,7.36,0,0,0,0,14.71H491.91a7.36,7.36,0,0,0,0-14.71H428.1V518.8l161.59-214A7.35,7.35,0,0,0,583.82,293ZM263.41,350.55l-32.33-42.86h53.77A68.75,68.75,0,0,1,263.41,350.55Zm-47.09,18.72A68.94,68.94,0,1,1,284.85,293H216.32a7.35,7.35,0,0,0-5.87,11.78l41.22,54.64A68.4,68.4,0,0,1,216.32,369.27ZM414.89,511.9a7.34,7.34,0,0,0-1.49,4.43V652.61H386.6V516.33a7.35,7.35,0,0,0-1.48-4.42l-102.6-136H517.57ZM528.67,361.19h-255a83.48,83.48,0,0,0,26-53.5H569.06Z"/></svg>