<?xml version="1.0" encoding="utf-8"?>
<!-- Generator: Adobe Illustrator 23.0.1, SVG Export Plug-In . SVG Version: 6.00 Build 0)  -->
<svg version="1.1" id="Layer_1" xmlns="http://www.w3.org/2000/svg" xmlns:xlink="http://www.w3.org/1999/xlink" x="0px" y="0px"
	 viewBox="0 0 375 256" style="enable-background:new 0 0 375 256;" xml:space="preserve">
<style type="text/css">
	.st0{fill:#C6C6C6;}
	.st1{fill-rule:evenodd;clip-rule:evenodd;fill:#C6C6C6;}
</style>
<g>
	<path class="st0" d="M290.22,35.74v0.97h-0.73v-1.02c0-1.26-0.48-2.21-1.75-2.21c-1.27,0-1.75,0.96-1.75,2.21v6.1
		c0,1.26,0.48,2.2,1.75,2.2c1.27,0,1.75-0.94,1.75-2.2V40.4h0.73v1.34c0,1.69-0.73,2.97-2.49,2.97c-1.77,0-2.49-1.27-2.49-2.97v-6
		c0-1.69,0.73-2.97,2.49-2.97C289.49,32.77,290.22,34.05,290.22,35.74"/>
	<path class="st0" d="M295.37,38.31v0.7h-3.15v4.9h3.8v0.7h-4.56V32.87h4.56v0.7h-3.8v4.73H295.37z"/>
	<path class="st0" d="M297.95,44.61h-0.69V32.87h0.99l3.47,9.91v-9.91h0.69v11.73h-0.84l-3.62-10.46V44.61z"/>
	<path class="st0" d="M305.66,44.61V33.58h-2.34v-0.7h5.46v0.7h-2.36v11.03H305.66z"/>
	<path class="st0" d="M311.7,38.66c1.35,0,2.15-0.39,2.15-1.96v-1.11c0-1.26-0.48-2.01-1.73-2.01h-1.63v5.08H311.7z M312.13,32.87
		c1.77,0,2.48,0.99,2.48,2.65v1.02c0,1.37-0.53,2.16-1.67,2.43c1.19,0.27,1.67,1.12,1.67,2.4v1.83c-0.04,0.49,0.06,0.97,0.28,1.41
		h-0.79c-0.2-0.44-0.29-0.93-0.25-1.41v-1.84c0-1.56-0.84-1.99-2.16-1.99h-1.21v5.25h-0.76V32.87H312.13z"/>
	<path class="st0" d="M317.31,41.34h3.37l-1.7-7.59L317.31,41.34z M317.2,42.01l-0.58,2.6h-0.69l2.53-11.75h1.11l2.58,11.75h-0.76
		l-0.58-2.6H317.2z"/>
	<path class="st0" d="M323.29,44.61V32.87h0.76V43.9h3.63v0.7H323.29z"/>
	<path class="st0" d="M290.38,49.62v1.01h-1.22v-1.07c0-1.06-0.41-1.69-1.35-1.69c-0.93,0-1.35,0.64-1.35,1.69v6.2
		c0,1.06,0.43,1.69,1.35,1.69c0.94,0,1.35-0.64,1.35-1.69V53.4h-1.19v-1.17h2.41v3.45c0,1.78-0.82,2.95-2.61,2.95
		c-1.77,0-2.59-1.17-2.59-2.95v-6.07c0-1.78,0.83-2.95,2.59-2.95C289.56,46.67,290.38,47.84,290.38,49.62z"/>
	<path class="st0" d="M293.85,52.31c1.02,0,1.63-0.33,1.63-1.61v-1.12c0-1.06-0.38-1.61-1.34-1.61h-1.26v4.34H293.85z M294.18,46.78
		c1.82,0,2.58,0.94,2.58,2.68v0.96c0,1.29-0.45,2.1-1.44,2.41c1.06,0.32,1.45,1.19,1.45,2.45v1.83c-0.04,0.48,0.04,0.96,0.23,1.41
		h-1.3c-0.18-0.45-0.25-0.94-0.21-1.42v-1.84c0-1.32-0.61-1.74-1.68-1.74h-0.91v5.01h-1.29V46.78H294.18z"/>
	<path class="st0" d="M299.58,55.03h2.58l-1.3-6.77L299.58,55.03z M299.42,56.15l-0.45,2.36h-1.19l2.21-11.73h1.87l2.21,11.73h-1.29
		l-0.45-2.36H299.42z"/>
	<path class="st0" d="M306.37,53.24v5.28h-1.29V46.78h1.29v5.28h2.84v-5.28h1.29v11.73h-1.29v-5.28H306.37z"/>
	<path class="st0" d="M313.29,55.03h2.58l-1.3-6.77L313.29,55.03z M313.12,56.15l-0.45,2.36h-1.19l2.21-11.73h1.87l2.21,11.73h-1.29
		l-0.45-2.36H313.12z"/>
	<path class="st0" d="M287.72,60.56c1.77,0,2.67,1.07,2.67,2.95v0.37h-1.72v-0.49c0-0.84-0.33-1.16-0.91-1.16
		c-0.58,0-0.91,0.32-0.91,1.16c0,2.41,3.55,2.87,3.55,6.22c0,1.88-0.92,2.95-2.71,2.95c-1.78,0-2.71-1.07-2.71-2.95v-0.72h1.72v0.84
		c0,0.84,0.36,1.14,0.94,1.14c0.58,0,0.94-0.3,0.94-1.14c0-2.41-3.55-2.87-3.55-6.22C285.05,61.63,285.96,60.56,287.72,60.56"/>
	<path class="st0" d="M293.27,65.64h2.49v1.68h-2.49v3.44h3.14v1.68h-4.95V60.69h4.95v1.68h-3.14V65.64z"/>
	<path class="st0" d="M297.04,70.75c0.2,0.02,0.43,0.02,0.63,0.02c0.58,0,1.04-0.22,1.04-1.12v-8.95h1.82v8.82
		c0,2.35-1.24,2.95-2.61,2.95c-0.29,0.01-0.58,0-0.88-0.03V70.75z"/>
	<path class="st0" d="M303.49,68.7h1.75l-0.87-5.93L303.49,68.7z M307.64,72.42h-1.83l-0.31-2.13h-2.23l-0.31,2.13h-1.67l1.85-11.73
		h2.66L307.64,72.42z"/>
	<path class="st0" d="M310.3,72.42h-1.82V60.69h1.82v5.03h2.06v-5.03h1.85v11.73h-1.85V67.4h-2.06V72.42z"/>
	<path class="st0" d="M315,60.69h5.61v1.68h-1.9v10.06h-1.82V62.37H315V60.69z"/>
	<path class="st0" d="M323.22,65.64h2.49v1.68h-2.49v3.44h3.14v1.68h-4.95V60.69h4.95v1.68h-3.14V65.64z"/>
	<path class="st0" d="M329.3,62.37v3.6h0.71c0.68,0,1.09-0.3,1.09-1.24v-1.16c0-0.84-0.28-1.21-0.92-1.21L329.3,62.37z
		 M331.28,72.42c-0.15-0.46-0.21-0.95-0.16-1.44v-1.84c0-1.09-0.36-1.49-1.19-1.49h-0.63v4.78h-1.82V60.69h2.74
		c1.88,0,2.69,0.89,2.69,2.7v0.92c0,1.21-0.38,1.99-1.19,2.38c0.91,0.39,1.21,1.27,1.21,2.5V71c-0.03,0.48,0.03,0.97,0.2,1.42
		H331.28z"/>
	<path class="st0" d="M335.86,68.7h1.75l-0.88-5.93L335.86,68.7z M340,72.42h-1.83l-0.31-2.13h-2.23l-0.31,2.13h-1.67l1.85-11.73
		h2.66L340,72.42z"/>
</g>
<g>
	<g>
		<path class="st1" d="M115.11,127.9l2.74,1.15c-1.05-0.5-1.91-1.16-2.22-1.63c0,0,0.1-2.09,0.95-3.38l-1.95,2.63
			c0.29,0.28,0.48,0.68,0.48,1.12C115.12,127.83,115.12,127.86,115.11,127.9z"/>
		<path class="st1" d="M112.1,128.39l-3.97,1.67c0.2-0.08,0.4-0.15,0.61-0.22c1.53-0.51,3.85,0.34,3.85,0.34
			c0.39,0.53,0.71,1.82,0.71,3.19v-4.03C112.76,129.25,112.3,128.88,112.1,128.39z"/>
		<path class="st1" d="M116.57,115.88l-0.56-0.99l-1.66,1.29c0,0,0.1,0.87-0.85,0.88c-0.95,0.01-0.82-0.88-0.82-0.88l-1.67-1.29
			l-0.52,0.92c-0.12,0.7-0.22,2.89-0.22,2.89c0.27,5.13,3.31,6.07,3.31,6.07c2.71-1.12,3.18-4.84,3.16-6.04
			C116.73,117.53,116.57,115.88,116.57,115.88z"/>
		<path class="st1" d="M105.61,133.09c0,0-1.37,1.71-1.75,2.33l-0.21,1.04l2.11,0.11c0,0,0.48-0.76,1.2-0.14
			c0.71,0.63,0.06,1.22,0.06,1.22l0.4,2.05l1.08-0.39c0,0,1.21-1.14,2.02-2.04c0.81-0.9,2.91-4.01,1.6-6.62
			C112.12,130.66,109.2,129.4,105.61,133.09z"/>
		<path class="st1" d="M109.16,129.09l2.82-1.18c0-0.04,0-0.08,0-0.12c0-0.43,0.18-0.83,0.47-1.11l-2.01-2.67
			c0.87,1.28,0.96,3.41,0.96,3.41C111.09,127.9,110.23,128.59,109.16,129.09z"/>
		<path class="st1" d="M106.14,122.02c0,0-2.11-0.65-2.82-0.77l-1.05,0.18l0.66,2c0,0,0.89,0.17,0.56,1.06
			c-0.33,0.89-1.12,0.5-1.12,0.5l-1.78,1.11l0.76,0.85c0,0,1.51,0.71,2.65,1.13c1.13,0.42,4.82,1.24,6.79-0.92
			C110.78,127.16,110.91,124.01,106.14,122.02z"/>
		<path class="st1" d="M115,130.66c-1.31,2.61,0.79,5.72,1.6,6.62c0.8,0.9,2.02,2.04,2.02,2.04l1.08,0.39l0.4-2.05
			c0,0-0.65-0.6,0.06-1.22c0.71-0.63,1.2,0.14,1.2,0.14l2.11-0.11l-0.21-1.04c-0.37-0.61-1.75-2.33-1.75-2.33
			C117.92,129.4,115,130.66,115,130.66z"/>
		<path class="st1" d="M113.28,111.95c-8.86,0-16.05,7.15-16.05,15.97c0,8.82,7.19,15.97,16.05,15.97s16.05-7.15,16.05-15.97
			C129.34,119.1,122.15,111.95,113.28,111.95z M125.53,128.33c-0.53,0.23-2.28,0.89-2.88,1.02c-0.61,0.14-2.71,0.49-4.07,0l4.53,1.9
			c0.23-0.27,0.61-0.37,0.95-0.23c0.42,0.18,0.62,0.66,0.44,1.08s-0.66,0.61-1.08,0.44c-0.34-0.14-0.53-0.49-0.5-0.83l-3.45-1.45
			c1,0.47,1.79,1.06,2.39,1.6c0.8,0.73,1.79,1.99,2.12,2.51c0.33,0.53,0.77,1.45,0.81,2.08c0.04,0.63-0.31,1.43-1.03,1.54
			c-0.45,0.07-0.57-0.23-0.57-0.23l-1.73,0.17l-0.39,1.66c0,0,0.2,0.21,0.15,0.51c-0.12,0.69-0.88,1.1-1.7,0.93
			c-0.81-0.17-1.85-0.96-2.26-1.37c-0.41-0.41-1.66-1.79-2.01-2.3c-0.35-0.51-1.43-2.35-1.46-3.79v4.23
			c0.34,0.1,0.58,0.42,0.58,0.78c0,0.45-0.37,0.82-0.83,0.82s-0.83-0.37-0.83-0.82c0-0.37,0.24-0.68,0.58-0.78v-4.34
			c0,0.04,0,0.08,0,0.11c-0.03,1.44-1.09,3.28-1.44,3.79c-0.35,0.51-1.6,1.88-2.01,2.29c-0.41,0.41-1.45,1.2-2.26,1.37
			c-0.81,0.17-1.58-0.23-1.7-0.93c-0.05-0.3,0.15-0.51,0.15-0.51l-0.39-1.66l-1.73-0.17c0,0-0.12,0.3-0.57,0.23
			c-0.72-0.11-1.07-0.9-1.03-1.54c0.04-0.63,0.48-1.56,0.81-2.08c0.33-0.53,1.32-1.79,2.12-2.51c0.65-0.59,1.52-1.22,2.65-1.71
			l-3.7,1.55c0.03,0.35-0.16,0.69-0.5,0.83c-0.42,0.18-0.9-0.02-1.08-0.44c-0.18-0.42,0.02-0.9,0.44-1.08
			c0.34-0.14,0.72-0.04,0.95,0.23l4.48-1.88c-1.36,0.5-3.5,0.12-4.11-0.02c-0.61-0.14-2.35-0.8-2.88-1.02
			c-0.54-0.23-1.65-0.9-2.11-1.59c-0.45-0.69-0.35-1.54,0.26-1.9c0.26-0.16,0.53-0.04,0.53-0.04l1.42-0.97l-0.47-1.67
			c0,0-0.33,0-0.42-0.44c-0.16-0.71,0.46-1.32,1.07-1.51c0.61-0.19,1.64-0.12,2.25,0c0.61,0.12,2.16,0.58,3.13,1.05
			c0.97,0.47,2.06,1.29,3.1,2.52l-2.93-3.91c-0.33,0.12-0.71,0.01-0.94-0.28c-0.27-0.36-0.2-0.88,0.17-1.15
			c0.37-0.27,0.88-0.2,1.16,0.17c0.22,0.29,0.21,0.69,0.01,0.97l5.12,6.82c0.21-0.1,0.45-0.16,0.7-0.16c0.25,0,0.48,0.06,0.69,0.16
			l2.22-3c-0.93,1.11-2.16,1.9-2.84,2.05c0,0-2.36-0.9-3.19-2.29c-0.82-1.38-1.11-2.68-1.23-3.75c-0.12-1.07-0.04-2.67,0.06-3.28
			c0.1-0.61,0.38-1.6,0.76-2.1c0.39-0.5,1.17-0.88,1.79-0.49c0.39,0.24,0.27,0.54,0.27,0.54l1.42,1l1.4-1c0,0-0.02-0.29,0.22-0.48
			c0.55-0.45,1.39-0.25,1.89,0.4c0.5,0.66,0.76,1.93,0.8,2.5c0.04,0.58,0.07,2.43,0,3.04c-0.07,0.56-0.37,2.38-1.13,3.53l2.65-3.58
			c-0.2-0.28-0.2-0.66,0.01-0.96c0.27-0.36,0.79-0.44,1.16-0.18c0.37,0.27,0.45,0.78,0.18,1.15c-0.22,0.3-0.61,0.41-0.95,0.28
			l-2.97,4.01c0,0,0.01-0.01,0.01-0.01c1.03-1.23,2.12-2.05,3.09-2.53c0.97-0.47,2.52-0.93,3.13-1.05c0.61-0.12,1.64-0.19,2.25,0
			c0.61,0.19,1.23,0.8,1.07,1.51c-0.1,0.44-0.42,0.44-0.42,0.44l-0.47,1.67l1.42,0.97c0,0,0.27-0.11,0.53,0.04
			c0.61,0.36,0.71,1.22,0.25,1.9C127.18,127.43,126.07,128.1,125.53,128.33z"/>
		<path class="st1" d="M123.55,124.48c-0.33-0.89,0.56-1.06,0.56-1.06l0.66-2l-1.05-0.18c-0.71,0.12-2.82,0.77-2.82,0.77
			c-4.77,1.99-4.64,5.14-4.64,5.14c1.98,2.16,5.66,1.34,6.79,0.92c1.14-0.42,2.65-1.13,2.65-1.13l0.75-0.86l-1.78-1.11
			C124.67,124.98,123.88,125.37,123.55,124.48z"/>
		<path class="st1" d="M113.8,129.33v3.95c0.02-1.33,0.35-2.58,0.74-3.1c0,0,2.32-0.86,3.85-0.36c0.11,0.04,0.21,0.07,0.31,0.11
			l-3.69-1.55C114.8,128.88,114.34,129.25,113.8,129.33z"/>
	</g>
	<path class="st1" d="M92.55,153.63l1.31-0.29c0.16,0.76,0.76,1.14,1.81,1.14c0.48,0,0.85-0.1,1.1-0.29
		c0.26-0.19,0.39-0.43,0.39-0.72c0-0.21-0.06-0.4-0.18-0.58c-0.12-0.18-0.37-0.32-0.75-0.42l-1.43-0.38
		c-0.49-0.13-0.85-0.28-1.08-0.45c-0.23-0.17-0.42-0.4-0.56-0.7c-0.14-0.3-0.21-0.62-0.21-0.97c0-0.68,0.25-1.23,0.75-1.64
		c0.5-0.41,1.13-0.62,1.91-0.62c0.64,0,1.22,0.14,1.72,0.43s0.83,0.69,0.97,1.22l-1.28,0.32c-0.2-0.58-0.66-0.87-1.38-0.87
		c-0.42,0-0.74,0.09-0.96,0.27c-0.22,0.18-0.33,0.41-0.33,0.68c0,0.44,0.35,0.74,1.04,0.92l1.27,0.32c0.77,0.2,1.29,0.49,1.55,0.88
		c0.26,0.39,0.39,0.81,0.39,1.28c0,0.75-0.28,1.34-0.83,1.77c-0.55,0.43-1.27,0.65-2.15,0.65c-0.74,0-1.39-0.16-1.95-0.48
		C93.11,154.79,92.74,154.3,92.55,153.63z"/>
	<path class="st1" d="M104.13,155.47h1.44l-2.51-7.65h-1.66l-2.48,7.65h1.15l0.59-1.82h2.88L104.13,155.47z M102.08,149.13
		l1.09,3.41h-2.18L102.08,149.13z"/>
	<path class="st1" d="M112.34,155.47h-1.51l-1.58-3.9l-1.45,1.96v1.93h-1.35v-7.65h1.35v4.02c0.17-0.27,0.3-0.46,0.37-0.57
		l2.48-3.45h1.36l-1.77,2.52L112.34,155.47z"/>
	<path class="st1" d="M118.48,147.82v4.92c0,0.66-0.07,1.18-0.22,1.54c-0.15,0.36-0.43,0.67-0.85,0.93
		c-0.42,0.26-0.93,0.39-1.53,0.39c-0.61,0-1.11-0.11-1.5-0.34c-0.39-0.22-0.67-0.53-0.85-0.92c-0.17-0.39-0.26-0.89-0.26-1.49v-5.02
		h1.38v4.92c0,0.67,0.14,1.11,0.41,1.33c0.28,0.21,0.6,0.32,0.96,0.32c0.42,0,0.76-0.11,1.01-0.34c0.25-0.23,0.38-0.66,0.38-1.3
		v-4.92H118.48L118.48,147.82z"/>
	<path class="st1" d="M124.43,155.47h1.42l-1.31-3.38c0.9-0.37,1.35-1.05,1.35-2.03c0-0.66-0.21-1.2-0.64-1.62
		c-0.42-0.42-1.09-0.62-1.99-0.62h-3.24v7.65h1.35v-3.14h1.89L124.43,155.47z M123.05,151.22h-1.68v-2.3h1.79
		c0.42,0,0.75,0.1,0.98,0.31c0.23,0.21,0.35,0.48,0.35,0.82c0,0.37-0.12,0.65-0.36,0.86C123.89,151.12,123.53,151.22,123.05,151.22z
		"/>
	<path class="st1" d="M131.66,155.47h1.44l-2.51-7.65h-1.66l-2.48,7.65h1.15l0.59-1.82h2.88L131.66,155.47z M129.61,149.13
		l1.09,3.41h-2.18L129.61,149.13z"/>
	<path class="st1" d="M78.35,163.98h0.83v-1.78h1.14c0.43,0,0.78-0.13,1.06-0.38c0.28-0.25,0.42-0.59,0.42-1
		c0-0.36-0.13-0.67-0.39-0.94c-0.26-0.26-0.65-0.4-1.19-0.4h-1.87V163.98z M80.15,161.51h-0.98v-1.35h0.9c0.32,0,0.55,0.07,0.67,0.2
		c0.12,0.13,0.19,0.29,0.19,0.47c0,0.2-0.07,0.37-0.2,0.49C80.6,161.45,80.41,161.51,80.15,161.51z"/>
	<path class="st1" d="M85.16,163.99h0.87l-0.8-1.98c0.55-0.22,0.83-0.61,0.83-1.19c0-0.39-0.13-0.71-0.39-0.95
		c-0.26-0.25-0.67-0.37-1.22-0.37h-1.99v4.49h0.83v-1.85h1.16L85.16,163.99z M84.32,161.49h-1.03v-1.35h1.09
		c0.26,0,0.46,0.06,0.6,0.18c0.14,0.12,0.21,0.28,0.21,0.48c0,0.21-0.07,0.38-0.22,0.51C84.83,161.43,84.61,161.49,84.32,161.49z"/>
	<path class="st1" d="M87.08,163.38c0.34,0.45,0.81,0.67,1.42,0.67c0.59,0,1.07-0.21,1.43-0.64c0.36-0.43,0.54-0.99,0.54-1.68
		c0-0.66-0.17-1.21-0.52-1.65c-0.35-0.44-0.82-0.66-1.41-0.66c-0.59,0-1.07,0.22-1.43,0.66c-0.36,0.44-0.54,0.99-0.54,1.64
		C86.58,162.38,86.75,162.93,87.08,163.38z M89.27,163.04c-0.21,0.24-0.46,0.36-0.75,0.36c-0.34,0-0.59-0.14-0.77-0.42
		c-0.18-0.28-0.27-0.69-0.27-1.23c0-1.12,0.35-1.67,1.06-1.67c0.36,0,0.62,0.15,0.79,0.44c0.17,0.29,0.26,0.7,0.26,1.21
		C89.58,162.36,89.47,162.8,89.27,163.04z"/>
	<path class="st1" d="M92.83,159.49v3.1c0,0.51-0.11,0.89-0.34,1.12c-0.23,0.23-0.59,0.34-1.08,0.34c-0.29,0-0.51-0.02-0.67-0.07
		v-0.65c0.25,0.02,0.43,0.03,0.53,0.03c0.28,0,0.46-0.05,0.56-0.15s0.15-0.31,0.15-0.62v-3.1L92.83,159.49L92.83,159.49z"/>
	<path class="st1" d="M96.77,163.99h-2.97v-4.49h2.94v0.67h-2.12v1.22h1.7v0.65h-1.7v1.26h2.15V163.99z"/>
	<path class="st1" d="M100.04,162.43l0.76,0.08c-0.05,0.45-0.23,0.82-0.53,1.11c-0.31,0.29-0.71,0.44-1.2,0.44
		c-0.42,0-0.76-0.1-1.02-0.31c-0.26-0.21-0.46-0.49-0.6-0.84s-0.21-0.74-0.21-1.17c0-0.68,0.17-1.24,0.5-1.67
		c0.33-0.43,0.79-0.64,1.36-0.64c0.45,0,0.83,0.14,1.13,0.41c0.3,0.28,0.49,0.67,0.57,1.18l-0.77,0.08
		c-0.14-0.68-0.45-1.02-0.93-1.02c-0.31,0-0.55,0.14-0.72,0.42c-0.17,0.28-0.26,0.69-0.26,1.23c0,0.54,0.09,0.95,0.28,1.23
		c0.18,0.28,0.43,0.42,0.73,0.42c0.24,0,0.45-0.09,0.62-0.28C99.92,162.91,100.01,162.68,100.04,162.43z"/>
	<path class="st1" d="M103.06,163.99h-0.89v-3.8h-1.22v-0.69h3.32v0.69h-1.22L103.06,163.99L103.06,163.99z"/>
	<path class="st1" d="M110.98,163.99h-0.84v-3.93l-1.27,3.93h-0.43l-1.28-3.93v3.93h-0.67v-4.49h1.29l0.96,2.89l0.94-2.89h1.3
		V163.99z"/>
	<path class="st1" d="M114.7,163.99h0.88l-1.54-4.49h-1.02l-1.52,4.49h0.7l0.36-1.07h1.76L114.7,163.99z M113.45,160.26l0.67,2
		h-1.33L113.45,160.26z"/>
	<path class="st1" d="M119.59,163.99h-0.8l-1.74-2.87c-0.03-0.04-0.07-0.12-0.13-0.21c-0.03-0.04-0.07-0.11-0.12-0.21v3.29h-0.66
		v-4.49h0.91l1.6,2.65c0.01,0.02,0.11,0.18,0.29,0.48v-3.13h0.65L119.59,163.99L119.59,163.99z"/>
	<path class="st1" d="M123.31,163.99h0.88l-1.54-4.49h-1.02l-1.52,4.49h0.7l0.36-1.07h1.76L123.31,163.99z M122.06,160.26l0.67,2
		h-1.33L122.06,160.26z"/>
	<path class="st1" d="M128.06,161.69v2.3h-0.37l-0.25-0.61c-0.27,0.45-0.68,0.67-1.24,0.67c-0.62,0-1.09-0.23-1.4-0.7
		c-0.31-0.46-0.46-1-0.46-1.62c0-0.65,0.17-1.19,0.51-1.64c0.34-0.45,0.82-0.67,1.44-0.67c0.46,0,0.84,0.13,1.14,0.39
		c0.3,0.26,0.49,0.59,0.56,0.98l-0.72,0.12c-0.13-0.55-0.46-0.82-0.96-0.82c-0.32,0-0.59,0.13-0.79,0.39
		c-0.2,0.26-0.31,0.66-0.31,1.19c0,1.13,0.36,1.7,1.09,1.7c0.28,0,0.51-0.1,0.7-0.29c0.18-0.19,0.28-0.44,0.28-0.76h-0.95v-0.65
		L128.06,161.69L128.06,161.69z"/>
	<path class="st1" d="M131.97,163.99H129v-4.49h2.95v0.67h-2.12v1.22h1.7v0.65h-1.7v1.26h2.15V163.99z"/>
	<path class="st1" d="M137.17,163.99h-0.84v-3.93l-1.27,3.93h-0.43l-1.28-3.93v3.93h-0.67v-4.49h1.29l0.96,2.89l0.94-2.89h1.3
		V163.99z"/>
	<path class="st1" d="M141.16,163.99h-2.97v-4.49h2.94v0.67h-2.12v1.22h1.7v0.65h-1.7v1.26h2.15V163.99z"/>
	<path class="st1" d="M145.33,163.99h-0.8l-1.74-2.87c-0.03-0.04-0.07-0.12-0.13-0.21c-0.03-0.04-0.07-0.11-0.12-0.21v3.29h-0.66
		v-4.49h0.91l1.6,2.65c0.01,0.02,0.11,0.18,0.29,0.48v-3.13h0.65L145.33,163.99L145.33,163.99z"/>
	<path class="st1" d="M147.93,163.99h-0.88v-3.8h-1.22v-0.69h3.32v0.69h-1.22L147.93,163.99L147.93,163.99z"/>
</g>
<g>
	<path class="st0" d="M177.35,80.91c-0.35-0.32-0.81-0.51-1.29-0.51c-0.37,0.01-0.73,0.17-0.99,0.44c-0.26,0.27-0.4,0.64-0.39,1.01
		c0.01,0.38,0.16,0.74,0.43,1c0.27,0.26,0.63,0.41,1,0.4c0.39,0.01,0.77-0.1,1.1-0.3l0-0.76l-1.17,0l0-0.58l1.76,0.01l-0.01,1.65
		c-0.51,0.36-1.11,0.55-1.72,0.56c-0.27,0.01-0.53-0.03-0.78-0.13c-0.25-0.1-0.48-0.24-0.67-0.43c-0.19-0.19-0.34-0.41-0.45-0.66
		c-0.1-0.25-0.16-0.51-0.16-0.78c0-0.27,0.05-0.54,0.15-0.78c0.1-0.25,0.25-0.47,0.44-0.66c0.19-0.19,0.42-0.33,0.66-0.43
		c0.25-0.1,0.51-0.14,0.78-0.14c0.64,0.02,1.25,0.26,1.74,0.69L177.35,80.91z"/>
	<path class="st0" d="M180.12,83.72l0.01-3.77l2.06,0.01c0.2-0.01,0.4,0.01,0.58,0.08c0.19,0.07,0.36,0.18,0.5,0.32
		c0.19,0.21,0.3,0.48,0.29,0.76c-0.01,0.24-0.09,0.48-0.24,0.67c-0.15,0.19-0.35,0.33-0.59,0.4l0.89,1.54l-0.74,0l-0.79-1.45
		l-1.33-0.01l-0.01,1.45L180.12,83.72z M180.77,80.53l0,1.17l1.53,0.01c0.16,0,0.31-0.05,0.43-0.16c0.12-0.11,0.19-0.26,0.19-0.42
		c0-0.14-0.06-0.28-0.15-0.38c-0.08-0.07-0.17-0.13-0.27-0.17c-0.1-0.04-0.21-0.05-0.31-0.04L180.77,80.53z"/>
	<path class="st0" d="M187.55,79.86c0.39,0.02,0.76,0.16,1.07,0.4c0.31,0.24,0.55,0.56,0.68,0.93c0.13,0.37,0.15,0.77,0.06,1.15
		c-0.09,0.38-0.29,0.73-0.57,0.99c-0.28,0.27-0.64,0.45-1.02,0.51c-0.38,0.07-0.78,0.02-1.13-0.14c-0.36-0.16-0.66-0.42-0.87-0.75
		c-0.21-0.33-0.32-0.71-0.32-1.11c0.02-0.55,0.25-1.06,0.65-1.43C186.48,80.04,187.01,79.84,187.55,79.86z M187.53,83.29
		c0.19,0,0.37-0.03,0.55-0.1c0.18-0.07,0.33-0.17,0.47-0.3c0.14-0.13,0.24-0.29,0.32-0.46c0.07-0.17,0.11-0.36,0.11-0.55
		c0-0.19-0.04-0.38-0.11-0.55c-0.07-0.18-0.18-0.33-0.31-0.47c-0.13-0.13-0.29-0.24-0.47-0.31c-0.17-0.07-0.36-0.1-0.55-0.1
		c-0.19,0-0.37,0.03-0.54,0.1c-0.17,0.07-0.33,0.17-0.46,0.31c-0.13,0.13-0.24,0.29-0.31,0.46c-0.07,0.17-0.11,0.36-0.11,0.55
		c0,0.19,0.04,0.37,0.11,0.55c0.07,0.17,0.18,0.33,0.31,0.47c0.13,0.13,0.29,0.24,0.46,0.31C187.16,83.25,187.35,83.29,187.53,83.29
		z"/>
	<path class="st0" d="M195.02,80.01l-0.01,2.43c0,0.93-0.71,1.45-1.66,1.45c-0.94,0-1.65-0.53-1.65-1.46l0.01-2.43l0.64,0
		l-0.01,2.43c0,0.57,0.44,0.88,1.01,0.88c0.57,0,1.02-0.31,1.02-0.87l0.01-2.43L195.02,80.01z"/>
	<path class="st0" d="M197.4,83.79l0.01-3.77l2.06,0.01c0.2-0.02,0.4,0.01,0.58,0.08c0.19,0.07,0.36,0.18,0.5,0.32
		c0.19,0.21,0.3,0.48,0.29,0.76c0,0.15-0.03,0.3-0.09,0.44c-0.06,0.14-0.15,0.27-0.26,0.37c-0.14,0.12-0.3,0.22-0.48,0.28
		c-0.18,0.06-0.37,0.08-0.55,0.07l-1.42-0.01l-0.01,1.45L197.4,83.79z M198.05,80.6l0,1.17l1.42,0.01c0.21,0.02,0.41-0.05,0.57-0.18
		c0.05-0.05,0.1-0.11,0.13-0.18s0.05-0.14,0.05-0.22c0-0.14-0.05-0.28-0.15-0.38c-0.08-0.07-0.17-0.13-0.27-0.17
		c-0.1-0.04-0.21-0.05-0.31-0.04L198.05,80.6z"/>
	<path class="st0" d="M160.16,64.19l-2.47-0.01l-0.03,7.98l-2.17-0.01l0.03-7.98l-3.02-0.01l0-1.23c0-0.07,0.01-0.14,0.04-0.21
		c0.03-0.07,0.07-0.13,0.12-0.18c0.05-0.05,0.11-0.09,0.18-0.12c0.07-0.03,0.14-0.04,0.21-0.04l7.66,0.03l0,1.23
		c0,0.15-0.06,0.29-0.16,0.39C160.45,64.13,160.31,64.19,160.16,64.19z"/>
	<path class="st0" d="M172.04,63L172,72.21l-2.17-0.01l0.01-4.04l-4.1-0.02l-0.02,4.04l-2.17-0.01l0.04-9.76l1.62,0.01
		c0.07,0,0.14,0.01,0.21,0.04c0.07,0.03,0.13,0.07,0.18,0.12c0.05,0.05,0.09,0.11,0.12,0.18c0.03,0.07,0.04,0.14,0.04,0.21
		l-0.01,3.38l4.1,0.02l0.01-3.93l1.62,0.01c0.07,0,0.14,0.01,0.21,0.04c0.07,0.03,0.13,0.07,0.18,0.12
		c0.05,0.05,0.09,0.11,0.12,0.18C172.03,62.86,172.04,62.93,172.04,63z"/>
	<path class="st0" d="M178.01,64.16L178,66.4l4.86,0.02l-0.01,1.63l-4.86-0.02l-0.01,2.51l4.64,0.02c0.07,0,0.14,0.01,0.21,0.04
		c0.07,0.03,0.13,0.07,0.18,0.12c0.05,0.05,0.09,0.11,0.12,0.18c0.03,0.07,0.04,0.14,0.04,0.21l0,1.13l-7.35-0.03l0.04-9.76
		l7.35,0.03l0,1.13c0,0.15-0.06,0.29-0.16,0.39c-0.1,0.1-0.24,0.16-0.39,0.16L178.01,64.16z"/>
	<path class="st0" d="M201.05,62.56l-0.04,9.76l-2.08-0.01l0.02-6.48l-2.8,3.81l-0.22,0l-2.77-3.83l-0.02,6.48l-2.08-0.01l0.04-9.76
		l1.69,0.01c0.09,0,0.17,0.02,0.25,0.06c0.08,0.04,0.14,0.1,0.19,0.17l2.83,4.06l2.86-4.04c0.05-0.07,0.12-0.13,0.2-0.17
		c0.08-0.04,0.16-0.06,0.25-0.06L201.05,62.56z"/>
	<path class="st0" d="M211.06,70.28l-4-0.02l-0.77,2.07l-2.26-0.01l3.9-9.75l1.93,0.01c0.11,0,0.22,0.03,0.31,0.1
		c0.09,0.06,0.16,0.15,0.2,0.25l3.7,9.43l-2.26-0.01L211.06,70.28z M210.48,68.63l-1.39-3.85l-1.42,3.84L210.48,68.63z"/>
	<path class="st0" d="M222.48,69.1c0,0.44-0.04,0.89-0.12,1.32c-0.07,0.41-0.22,0.79-0.45,1.13c-0.24,0.34-0.57,0.62-0.95,0.79
		c-0.51,0.22-1.06,0.32-1.61,0.29c-0.69,0.02-1.38-0.18-1.96-0.57c-0.39-0.28-0.69-0.68-0.86-1.14c-0.03-0.07-0.04-0.15-0.04-0.23
		c0-0.08,0.03-0.16,0.06-0.23c0.04-0.07,0.09-0.13,0.15-0.18c0.06-0.05,0.13-0.08,0.21-0.1l1.42-0.35c0.03,0.24,0.14,0.46,0.32,0.61
		c0.17,0.16,0.4,0.25,0.64,0.25c0.21,0.01,0.42-0.05,0.58-0.19c0.14-0.13,0.24-0.29,0.3-0.47c0.07-0.2,0.11-0.4,0.12-0.61
		c0.01-0.22,0.02-0.42,0.02-0.61l0.02-6.22l1.6,0.01c0.14,0,0.28,0.06,0.39,0.16c0.1,0.1,0.16,0.25,0.16,0.39L222.48,69.1z"/>
	<path class="st0" d="M186.8,45.59l-7.71-0.03c-0.05,0-0.1-0.01-0.14-0.03c-0.05-0.02-0.09-0.05-0.12-0.08
		c-0.04-0.04-0.06-0.08-0.08-0.12c-0.02-0.05-0.03-0.1-0.03-0.15l0.03-7.79c0-0.05,0.01-0.1,0.03-0.15
		c0.02-0.05,0.05-0.09,0.08-0.12c0.04-0.04,0.08-0.06,0.12-0.08c0.05-0.02,0.1-0.03,0.14-0.03l4.63,0.02c0.05,0,0.1,0.01,0.14,0.03
		c0.05,0.02,0.09,0.05,0.12,0.08c0.03,0.04,0.06,0.08,0.08,0.12s0.03,0.1,0.03,0.15l-0.02,4.67c0,0.05-0.01,0.1-0.03,0.15
		c-0.02,0.05-0.05,0.09-0.08,0.12c-0.04,0.04-0.08,0.06-0.12,0.08c-0.05,0.02-0.1,0.03-0.14,0.03l-1.54-0.01
		c-0.05,0-0.1-0.01-0.14-0.03c-0.05-0.02-0.09-0.05-0.12-0.08c-0.04-0.04-0.06-0.08-0.08-0.12s-0.03-0.1-0.03-0.15l0.01-2.73
		l-0.78,0l-0.02,3.91l3.87,0.02l0.02-5.85c0-0.05,0.01-0.1,0.03-0.15c0.02-0.05,0.05-0.09,0.08-0.12c0.04-0.04,0.08-0.06,0.12-0.08
		c0.05-0.02,0.1-0.03,0.14-0.03l1.54,0.01c0.05,0,0.1,0.01,0.14,0.03c0.05,0.02,0.09,0.05,0.12,0.08c0.04,0.04,0.06,0.08,0.08,0.12
		c0.02,0.05,0.03,0.1,0.03,0.15l-0.03,7.79c0,0.05-0.01,0.1-0.03,0.15c-0.02,0.05-0.05,0.09-0.08,0.12
		c-0.04,0.04-0.08,0.06-0.12,0.08C186.9,45.58,186.85,45.59,186.8,45.59z M179.47,44.8l6.95,0.03l0.03-7.02l-0.78,0l-0.02,5.85
		c0,0.05-0.01,0.1-0.03,0.15c-0.02,0.05-0.05,0.09-0.08,0.12c-0.04,0.04-0.08,0.06-0.12,0.08c-0.05,0.02-0.09,0.03-0.14,0.03
		l-4.62-0.02c-0.05,0-0.1-0.01-0.15-0.03c-0.05-0.02-0.09-0.05-0.12-0.08c-0.04-0.04-0.06-0.08-0.08-0.12
		c-0.02-0.05-0.03-0.1-0.03-0.15l0.02-4.67c0-0.05,0.01-0.1,0.03-0.15c0.02-0.05,0.05-0.09,0.08-0.12c0.04-0.04,0.08-0.06,0.12-0.08
		c0.05-0.02,0.1-0.03,0.15-0.03l1.54,0.01c0.05,0,0.1,0.01,0.14,0.03c0.05,0.02,0.09,0.05,0.12,0.08c0.04,0.04,0.06,0.08,0.08,0.12
		c0.02,0.05,0.03,0.1,0.03,0.15l-0.01,2.73l0.78,0l0.01-3.91l-3.87-0.01L179.47,44.8z"/>
	<path class="st0" d="M186.83,36.24l-1.54-0.01c-0.05,0-0.1-0.01-0.15-0.03c-0.05-0.02-0.09-0.05-0.12-0.08
		c-0.04-0.04-0.06-0.08-0.08-0.12c-0.02-0.05-0.03-0.1-0.03-0.15l0.02-5.85l-3.87-0.02l-0.01,3.91l0.78,0l0.01-2.73
		c0-0.05,0.01-0.1,0.03-0.15c0.02-0.05,0.05-0.09,0.08-0.12c0.04-0.04,0.08-0.06,0.12-0.08c0.05-0.02,0.1-0.03,0.14-0.03l1.54,0.01
		c0.05,0,0.1,0.01,0.15,0.03c0.05,0.02,0.09,0.05,0.12,0.08c0.04,0.04,0.06,0.08,0.08,0.12s0.03,0.1,0.03,0.15l-0.02,4.67
		c0,0.05-0.01,0.1-0.03,0.15c-0.02,0.05-0.05,0.09-0.08,0.12c-0.04,0.04-0.08,0.06-0.12,0.08c-0.05,0.02-0.1,0.03-0.15,0.03
		l-4.62-0.02c-0.05,0-0.1-0.01-0.14-0.03c-0.05-0.02-0.09-0.05-0.12-0.08c-0.03-0.04-0.06-0.08-0.08-0.12
		c-0.02-0.05-0.03-0.1-0.03-0.15l0.03-7.79c0-0.05,0.01-0.1,0.03-0.15c0.02-0.05,0.05-0.09,0.08-0.12c0.04-0.04,0.08-0.06,0.12-0.08
		c0.05-0.02,0.1-0.03,0.14-0.03l7.71,0.03c0.05,0,0.1,0.01,0.14,0.03c0.05,0.02,0.09,0.05,0.12,0.08c0.04,0.04,0.06,0.08,0.08,0.12
		s0.03,0.1,0.03,0.15l-0.03,7.79c0,0.05-0.01,0.1-0.03,0.15c-0.02,0.05-0.05,0.09-0.08,0.12c-0.04,0.04-0.08,0.06-0.12,0.08
		C186.93,36.23,186.88,36.24,186.83,36.24z M185.67,35.47l0.78,0l0.03-7.02l-6.95-0.03l-0.03,7.02l3.87,0.01l0.02-3.91l-0.78,0
		l-0.01,2.73c0,0.05-0.01,0.1-0.03,0.15c-0.02,0.05-0.05,0.09-0.08,0.12c-0.04,0.04-0.08,0.06-0.12,0.08
		c-0.05,0.02-0.1,0.03-0.15,0.03l-1.54-0.01c-0.05,0-0.1-0.01-0.14-0.03c-0.05-0.02-0.09-0.05-0.12-0.08
		c-0.03-0.04-0.06-0.08-0.08-0.12s-0.03-0.1-0.03-0.15l0.02-4.67c0-0.05,0.01-0.1,0.03-0.15c0.02-0.05,0.05-0.09,0.08-0.12
		c0.04-0.04,0.08-0.06,0.12-0.08c0.05-0.02,0.1-0.03,0.14-0.03l4.63,0.02c0.05,0,0.1,0.01,0.14,0.03c0.05,0.02,0.09,0.05,0.12,0.08
		c0.04,0.04,0.06,0.08,0.08,0.12c0.02,0.05,0.03,0.1,0.03,0.15L185.67,35.47z"/>
	<path class="st0" d="M196.08,36.28l-4.62-0.02c-0.05,0-0.1-0.01-0.14-0.03c-0.05-0.02-0.09-0.05-0.12-0.08
		c-0.04-0.04-0.06-0.08-0.08-0.12c-0.02-0.05-0.03-0.1-0.03-0.15l0.02-4.67c0-0.05,0.01-0.1,0.03-0.15
		c0.02-0.05,0.05-0.09,0.08-0.12c0.04-0.04,0.08-0.06,0.12-0.08c0.05-0.02,0.1-0.03,0.14-0.03l1.54,0.01c0.05,0,0.1,0.01,0.15,0.03
		c0.05,0.02,0.09,0.05,0.12,0.08c0.04,0.04,0.06,0.08,0.08,0.12c0.02,0.05,0.03,0.1,0.03,0.15l-0.01,2.73l0.78,0l0.02-3.91
		l-3.87-0.02l-0.02,5.85c0,0.05-0.01,0.1-0.03,0.15c-0.02,0.05-0.05,0.09-0.08,0.12c-0.04,0.04-0.08,0.06-0.12,0.08
		c-0.05,0.02-0.09,0.03-0.14,0.03l-1.54-0.01c-0.05,0-0.1-0.01-0.14-0.03c-0.05-0.02-0.09-0.05-0.12-0.08
		c-0.04-0.04-0.06-0.08-0.08-0.12c-0.02-0.05-0.03-0.1-0.03-0.15l0.03-7.79c0-0.05,0.01-0.1,0.03-0.15
		c0.02-0.05,0.05-0.09,0.08-0.12c0.04-0.04,0.08-0.06,0.12-0.08c0.05-0.02,0.09-0.03,0.14-0.03l7.71,0.03c0.05,0,0.1,0.01,0.14,0.03
		c0.05,0.02,0.09,0.05,0.12,0.08c0.04,0.04,0.06,0.08,0.08,0.12s0.03,0.1,0.03,0.15l-0.03,7.79c0,0.05-0.01,0.1-0.03,0.15
		c-0.02,0.05-0.05,0.09-0.08,0.12c-0.04,0.04-0.08,0.06-0.12,0.08C196.18,36.27,196.13,36.28,196.08,36.28z M191.84,35.49l3.87,0.02
		l0.03-7.02l-6.95-0.03l-0.03,7.02l0.78,0l0.02-5.85c0-0.05,0.01-0.1,0.03-0.15c0.02-0.05,0.05-0.09,0.08-0.12
		c0.04-0.04,0.08-0.06,0.12-0.08c0.05-0.02,0.1-0.03,0.15-0.03l4.62,0.02c0.05,0,0.1,0.01,0.15,0.03c0.05,0.02,0.09,0.05,0.12,0.08
		c0.04,0.04,0.06,0.08,0.08,0.12c0.02,0.05,0.03,0.1,0.03,0.15l-0.02,4.67c0,0.05-0.01,0.1-0.03,0.15
		c-0.02,0.05-0.05,0.09-0.08,0.12c-0.04,0.04-0.08,0.06-0.12,0.08c-0.05,0.02-0.1,0.03-0.15,0.03l-1.54-0.01
		c-0.05,0-0.1-0.01-0.14-0.03c-0.05-0.02-0.09-0.05-0.12-0.08c-0.03-0.04-0.06-0.08-0.08-0.12c-0.02-0.05-0.03-0.1-0.03-0.15
		l0.01-2.73l-0.78,0L191.84,35.49z"/>
	<path class="st0" d="M196.05,45.63l-7.71-0.03c-0.05,0-0.1-0.01-0.14-0.03s-0.09-0.05-0.12-0.08c-0.03-0.04-0.06-0.08-0.08-0.12
		c-0.02-0.05-0.03-0.1-0.03-0.15l0.03-7.79c0-0.05,0.01-0.1,0.03-0.15c0.02-0.05,0.05-0.09,0.08-0.12c0.04-0.04,0.08-0.06,0.12-0.08
		c0.05-0.02,0.1-0.03,0.14-0.03l1.54,0.01c0.05,0,0.1,0.01,0.15,0.03c0.05,0.02,0.09,0.05,0.12,0.08c0.04,0.04,0.06,0.08,0.08,0.12
		c0.02,0.05,0.03,0.1,0.03,0.15l-0.02,5.85l3.87,0.01l0.01-3.91l-0.78,0l-0.01,2.73c0,0.05-0.01,0.1-0.03,0.15
		c-0.02,0.05-0.05,0.09-0.08,0.12c-0.04,0.04-0.08,0.06-0.12,0.08c-0.05,0.02-0.1,0.03-0.14,0.03l-1.54-0.01
		c-0.05,0-0.1-0.01-0.14-0.03c-0.05-0.02-0.09-0.05-0.12-0.08c-0.04-0.04-0.06-0.08-0.08-0.12s-0.03-0.1-0.03-0.15l0.02-4.67
		c0-0.05,0.01-0.1,0.03-0.15c0.02-0.05,0.05-0.09,0.08-0.12s0.08-0.06,0.12-0.08c0.05-0.02,0.1-0.03,0.15-0.03l4.62,0.02
		c0.05,0,0.1,0.01,0.14,0.03c0.05,0.02,0.09,0.05,0.12,0.08c0.03,0.04,0.06,0.08,0.08,0.12c0.02,0.05,0.03,0.1,0.03,0.15l-0.03,7.79
		c0,0.05-0.01,0.1-0.03,0.15c-0.02,0.05-0.05,0.09-0.08,0.12c-0.04,0.04-0.08,0.06-0.12,0.08C196.15,45.62,196.1,45.63,196.05,45.63
		z M188.72,44.83l6.95,0.03l0.03-7.02l-3.87-0.02l-0.01,3.91l0.78,0l0.01-2.73c0-0.05,0.01-0.1,0.03-0.15
		c0.02-0.05,0.05-0.09,0.08-0.12c0.04-0.04,0.08-0.06,0.12-0.08c0.05-0.02,0.1-0.03,0.15-0.03l1.54,0.01c0.05,0,0.1,0.01,0.14,0.03
		c0.05,0.02,0.09,0.05,0.12,0.08c0.03,0.04,0.06,0.08,0.08,0.12c0.02,0.05,0.03,0.1,0.03,0.15l-0.02,4.67c0,0.05-0.01,0.1-0.03,0.15
		c-0.02,0.05-0.05,0.09-0.08,0.12c-0.03,0.04-0.08,0.06-0.12,0.08c-0.05,0.02-0.1,0.03-0.14,0.03l-4.63-0.02
		c-0.05,0-0.1-0.01-0.14-0.03c-0.05-0.02-0.09-0.05-0.12-0.08c-0.03-0.04-0.06-0.08-0.08-0.12c-0.02-0.05-0.03-0.1-0.03-0.15
		l0.02-5.85l-0.78,0L188.72,44.83z"/>
	<path class="st0" d="M199.12,48.76l-10.79-0.04c-0.05,0-0.1-0.01-0.14-0.03c-0.05-0.02-0.09-0.05-0.12-0.08
		c-0.03-0.04-0.06-0.08-0.08-0.12s-0.03-0.1-0.03-0.15l0.01-1.56c0-0.05,0.01-0.1,0.03-0.15c0.02-0.05,0.05-0.09,0.08-0.12
		c0.04-0.04,0.08-0.06,0.12-0.08c0.05-0.02,0.1-0.03,0.14-0.03l8.87,0.03l0.07-19.49l-8.87-0.03c-0.05,0-0.1-0.01-0.14-0.03
		c-0.05-0.02-0.09-0.05-0.12-0.08c-0.04-0.04-0.06-0.08-0.08-0.12c-0.02-0.05-0.03-0.1-0.03-0.15l0.01-1.56
		c0-0.05,0.01-0.1,0.03-0.15c0.02-0.05,0.05-0.09,0.08-0.12c0.04-0.04,0.08-0.06,0.12-0.08c0.05-0.02,0.1-0.03,0.14-0.03l10.79,0.04
		c0.05,0,0.1,0.01,0.14,0.03c0.05,0.02,0.09,0.05,0.12,0.08c0.04,0.04,0.06,0.08,0.08,0.12c0.02,0.05,0.03,0.1,0.03,0.15
		l-0.09,23.37c0,0.05-0.01,0.1-0.03,0.15c-0.02,0.05-0.05,0.09-0.08,0.12c-0.04,0.04-0.08,0.06-0.12,0.08
		C199.22,48.75,199.17,48.76,199.12,48.76z M188.71,47.95l10.03,0.04l0.09-22.61l-10.03-0.04l0,0.79l8.87,0.03
		c0.05,0,0.1,0.01,0.14,0.03c0.05,0.02,0.09,0.05,0.12,0.08c0.03,0.04,0.06,0.08,0.08,0.12c0.02,0.05,0.03,0.1,0.03,0.15
		l-0.08,20.26c0,0.05-0.01,0.1-0.03,0.15c-0.02,0.05-0.05,0.09-0.08,0.12c-0.04,0.04-0.08,0.06-0.12,0.08
		c-0.05,0.02-0.1,0.03-0.14,0.03l-8.87-0.03L188.71,47.95z"/>
	<path class="st0" d="M186.79,48.71l-10.79-0.04c-0.05,0-0.1-0.01-0.14-0.03c-0.05-0.02-0.09-0.05-0.12-0.08
		c-0.03-0.04-0.06-0.08-0.08-0.12c-0.02-0.05-0.03-0.1-0.03-0.15l0.09-23.37c0-0.05,0.01-0.1,0.03-0.15
		c0.02-0.05,0.05-0.09,0.08-0.12c0.04-0.04,0.08-0.06,0.12-0.08c0.05-0.02,0.1-0.03,0.14-0.03l10.79,0.04c0.05,0,0.1,0.01,0.15,0.03
		c0.05,0.02,0.09,0.05,0.12,0.08c0.04,0.04,0.06,0.08,0.08,0.12c0.02,0.05,0.03,0.1,0.03,0.15l-0.01,1.56c0,0.05-0.01,0.1-0.03,0.15
		c-0.02,0.05-0.05,0.09-0.08,0.12c-0.04,0.04-0.08,0.06-0.12,0.08c-0.05,0.02-0.1,0.03-0.15,0.03L178,26.86l-0.07,19.49l8.87,0.03
		c0.05,0,0.1,0.01,0.14,0.03c0.05,0.02,0.09,0.05,0.12,0.08c0.03,0.04,0.06,0.08,0.08,0.12s0.03,0.1,0.03,0.15l-0.01,1.56
		c0,0.05-0.01,0.1-0.03,0.15c-0.02,0.05-0.05,0.09-0.08,0.12c-0.04,0.04-0.08,0.06-0.12,0.08C186.89,48.7,186.84,48.71,186.79,48.71
		z M176.38,47.9l10.03,0.04l0-0.79l-8.87-0.03c-0.05,0-0.1-0.01-0.15-0.03c-0.05-0.02-0.09-0.05-0.12-0.08
		c-0.04-0.04-0.06-0.08-0.08-0.12c-0.02-0.05-0.03-0.1-0.03-0.15l0.08-20.26c0-0.05,0.01-0.1,0.03-0.15
		c0.02-0.05,0.05-0.09,0.08-0.12c0.04-0.04,0.08-0.06,0.12-0.08c0.05-0.02,0.1-0.03,0.15-0.03l8.87,0.03l0-0.79l-10.03-0.04
		L176.38,47.9z"/>
	<path class="st0" d="M174.47,44.22c-0.05,0-0.1-0.01-0.14-0.03c-0.05-0.02-0.09-0.05-0.12-0.08c-0.03-0.04-0.06-0.08-0.08-0.12
		c-0.02-0.05-0.03-0.1-0.03-0.15l0.06-14.49c0-0.05,0.01-0.1,0.03-0.15c0.02-0.05,0.05-0.09,0.08-0.12s0.08-0.06,0.12-0.08
		c0.05-0.02,0.1-0.03,0.14-0.03c0.05,0,0.1,0.01,0.14,0.03c0.05,0.02,0.09,0.05,0.12,0.08s0.06,0.08,0.08,0.12
		c0.02,0.05,0.03,0.1,0.03,0.15l-0.06,14.49c0,0.05-0.01,0.1-0.03,0.15c-0.02,0.05-0.05,0.09-0.08,0.12
		c-0.04,0.04-0.08,0.06-0.12,0.08C174.57,44.21,174.52,44.22,174.47,44.22z"/>
	<path class="st0" d="M172.95,39.41c-0.05,0-0.1-0.01-0.14-0.03c-0.05-0.02-0.09-0.05-0.12-0.08c-0.04-0.04-0.06-0.08-0.08-0.12
		c-0.02-0.05-0.03-0.1-0.03-0.15l0.02-4.89c0-0.05,0.01-0.1,0.03-0.15c0.02-0.05,0.05-0.09,0.08-0.12c0.04-0.04,0.08-0.06,0.12-0.08
		c0.05-0.02,0.1-0.03,0.15-0.03c0.05,0,0.1,0.01,0.14,0.03c0.05,0.02,0.09,0.05,0.12,0.08c0.04,0.04,0.06,0.08,0.08,0.12
		c0.02,0.05,0.03,0.1,0.03,0.15l-0.02,4.89c0,0.05-0.01,0.1-0.03,0.15c-0.02,0.05-0.05,0.09-0.08,0.12
		c-0.04,0.04-0.08,0.06-0.12,0.08C173.05,39.4,173,39.41,172.95,39.41z"/>
	<path class="st0" d="M194.82,23.81l-14.34-0.06c-0.05,0-0.1-0.01-0.14-0.03c-0.05-0.02-0.09-0.05-0.12-0.08
		c-0.07-0.07-0.11-0.17-0.11-0.27c0-0.1,0.04-0.2,0.11-0.27c0.07-0.07,0.17-0.11,0.27-0.11l14.34,0.06c0.1,0,0.2,0.04,0.27,0.11
		c0.07,0.07,0.11,0.17,0.11,0.27c0,0.1-0.04,0.2-0.11,0.27C195.02,23.77,194.92,23.81,194.82,23.81z"/>
	<path class="st0" d="M190.07,22.23l-4.83-0.02c-0.1,0-0.2-0.04-0.27-0.11c-0.07-0.07-0.11-0.17-0.11-0.27c0-0.1,0.04-0.2,0.11-0.27
		c0.07-0.07,0.17-0.11,0.27-0.11l4.83,0.02c0.05,0,0.1,0.01,0.15,0.03c0.05,0.02,0.09,0.05,0.12,0.08c0.04,0.04,0.06,0.08,0.08,0.12
		c0.02,0.05,0.03,0.1,0.03,0.15c0,0.05-0.01,0.1-0.03,0.15c-0.02,0.05-0.05,0.09-0.08,0.12c-0.04,0.04-0.08,0.06-0.12,0.08
		S190.12,22.23,190.07,22.23L190.07,22.23z"/>
	<path class="st0" d="M194.72,50.3l-14.34-0.06c-0.05,0-0.1-0.01-0.14-0.03c-0.05-0.02-0.09-0.05-0.12-0.08
		c-0.03-0.04-0.06-0.08-0.08-0.12c-0.02-0.05-0.03-0.1-0.03-0.15c0-0.05,0.01-0.1,0.03-0.15c0.02-0.05,0.05-0.09,0.08-0.12
		c0.04-0.04,0.08-0.06,0.12-0.08c0.05-0.02,0.09-0.03,0.14-0.03l14.34,0.06c0.1,0,0.2,0.04,0.27,0.11c0.07,0.07,0.11,0.17,0.11,0.27
		c0,0.1-0.04,0.2-0.11,0.27S194.82,50.3,194.72,50.3L194.72,50.3z"/>
	<path class="st0" d="M189.96,51.84l-4.83-0.02c-0.05,0-0.1-0.01-0.15-0.03c-0.05-0.02-0.09-0.05-0.12-0.08
		c-0.04-0.04-0.06-0.08-0.08-0.13c-0.02-0.05-0.03-0.1-0.03-0.15c0-0.05,0.01-0.1,0.03-0.15c0.02-0.05,0.05-0.09,0.08-0.12
		c0.04-0.04,0.08-0.06,0.12-0.08c0.05-0.02,0.1-0.03,0.15-0.03l4.83,0.02c0.1,0,0.2,0.04,0.27,0.11c0.07,0.07,0.11,0.17,0.11,0.27
		c0,0.1-0.04,0.2-0.11,0.27C190.16,51.8,190.06,51.84,189.96,51.84L189.96,51.84z"/>
	<path class="st0" d="M200.68,44.32c-0.05,0-0.1-0.01-0.14-0.03c-0.05-0.02-0.09-0.05-0.12-0.08c-0.03-0.04-0.06-0.08-0.08-0.12
		c-0.02-0.05-0.03-0.1-0.03-0.15l0.06-14.49c0-0.1,0.04-0.2,0.11-0.27c0.07-0.07,0.17-0.11,0.27-0.11c0.1,0,0.2,0.04,0.27,0.11
		c0.07,0.07,0.11,0.17,0.11,0.27l-0.06,14.49c0,0.05-0.01,0.1-0.03,0.15c-0.02,0.05-0.05,0.09-0.08,0.12
		c-0.04,0.04-0.08,0.06-0.12,0.08C200.78,44.31,200.73,44.32,200.68,44.32z"/>
	<path class="st0" d="M202.24,39.52c-0.05,0-0.1-0.01-0.15-0.03c-0.05-0.02-0.09-0.05-0.12-0.08c-0.04-0.04-0.06-0.08-0.08-0.12
		c-0.02-0.05-0.03-0.1-0.03-0.15l0.02-4.89c0-0.1,0.04-0.2,0.11-0.27c0.07-0.07,0.17-0.11,0.27-0.11c0.1,0,0.2,0.04,0.27,0.11
		c0.07,0.07,0.11,0.17,0.11,0.27l-0.02,4.89c0,0.05-0.01,0.1-0.03,0.15c-0.02,0.05-0.05,0.09-0.08,0.12
		c-0.04,0.04-0.08,0.06-0.12,0.08C202.34,39.51,202.29,39.52,202.24,39.52z"/>
</g>
<g>
	<path class="st0" d="M34.17,55.09h-6.94v-9.37l3.45-1.25v7.4l4.64,0.01L34.17,55.09z"/>
	<path class="st0" d="M38.12,53.07c0.03-0.29,0.17-0.57,0.39-0.77c0.22-0.2,0.51-0.31,0.8-0.31c0.3,0,0.58,0.11,0.8,0.31
		c0.22,0.2,0.36,0.47,0.39,0.77H38.12z M42.41,54.22c0-2.32-1.16-3.78-3.17-3.78c-1.88,0-3.2,1.37-3.2,3.64
		c0,2.35,1.43,3.62,3.35,3.62c1.32,0,2.62-0.73,2.94-2.34h-1.97c-0.08,0.19-0.22,0.36-0.39,0.47c-0.18,0.11-0.38,0.17-0.59,0.15
		c-0.85,0-1.29-0.53-1.29-1.51h4.32V54.22z"/>
	<path class="st0" d="M46.37,50.43c-1.86,0-3.49,1.31-3.49,3.64c0,2.32,1.64,3.62,3.49,3.62c1.86,0,3.49-1.31,3.49-3.62
		C49.85,51.75,48.23,50.43,46.37,50.43z M46.37,52.53c0.84,0,1.32,0.7,1.32,1.54c0,0.86-0.49,1.53-1.32,1.53
		c-0.84,0-1.32-0.66-1.32-1.53C45.05,53.23,45.53,52.53,46.37,52.53z"/>
	<path class="st0" d="M52.54,50.66h-2.05v10.21h2.05v-4.05c0.21,0.28,0.48,0.5,0.79,0.65c0.31,0.15,0.66,0.23,1,0.22
		c1.71,0,2.9-1.65,2.9-3.61c0-1.95-1.2-3.65-2.92-3.65c-0.35-0.01-0.7,0.08-1.01,0.26c-0.31,0.18-0.56,0.43-0.74,0.74h-0.02V50.66z
		 M53.79,52.53c0.84,0,1.32,0.7,1.32,1.54c0,0.86-0.49,1.53-1.32,1.53c-0.84,0-1.32-0.66-1.32-1.53
		C52.47,53.23,52.96,52.53,53.79,52.53z"/>
	<path class="st0" d="M61.1,52.53c0.84,0,1.32,0.7,1.32,1.54c0,0.86-0.48,1.53-1.32,1.53c-0.83,0-1.32-0.66-1.32-1.53
		C59.78,53.23,60.27,52.53,61.1,52.53z M64.41,50.66h-2.05v0.66c-0.21-0.28-0.48-0.51-0.79-0.66c-0.31-0.15-0.66-0.23-1-0.23
		c-1.72,0-2.9,1.67-2.9,3.62c0,1.95,1.21,3.64,2.92,3.64c0.35,0.01,0.7-0.07,1.01-0.25c0.31-0.17,0.56-0.43,0.74-0.73h0.02v0.76
		h2.05L64.41,50.66z"/>
	<path class="st0" d="M67.48,46.45h-2.05v11.02h2.05V46.45z"/>
	<path class="st0" d="M71.6,52.53c0.83,0,1.32,0.7,1.32,1.54c0,0.86-0.49,1.53-1.32,1.53c-0.83,0-1.32-0.66-1.32-1.53
		C70.28,53.23,70.76,52.53,71.6,52.53z M74.9,50.66h-2.05v0.66c-0.21-0.28-0.48-0.51-0.79-0.66c-0.31-0.15-0.66-0.23-1-0.23
		c-1.71,0-2.9,1.67-2.9,3.62c0,1.95,1.21,3.64,2.92,3.64c0.35,0.01,0.7-0.07,1.01-0.25c0.31-0.17,0.56-0.43,0.74-0.73h0.02v0.76
		h2.05V50.66z"/>
	<path class="st0" d="M80.22,50.83c-0.4-0.26-0.87-0.4-1.35-0.4c-1.82,0-3.24,1.51-3.24,3.7c0,2.06,1.43,3.56,3.15,3.56
		c0.51,0,1.01-0.13,1.44-0.38v-2.04c-0.13,0.14-0.29,0.26-0.47,0.34c-0.18,0.08-0.37,0.12-0.56,0.13c-0.85,0-1.44-0.69-1.44-1.67
		c0-0.94,0.62-1.66,1.41-1.66c0.4,0.03,0.78,0.2,1.06,0.48V50.83z"/>
	<path class="st0" d="M82.92,53.07c0.03-0.29,0.17-0.57,0.39-0.77c0.22-0.2,0.51-0.31,0.8-0.31c0.3,0,0.58,0.11,0.8,0.31
		c0.22,0.2,0.36,0.47,0.39,0.77H82.92z M87.2,54.22c0-2.32-1.16-3.78-3.17-3.78c-1.89,0-3.21,1.37-3.21,3.64
		c0,2.35,1.43,3.62,3.35,3.62c1.32,0,2.62-0.73,2.95-2.34h-1.98c-0.08,0.19-0.21,0.36-0.39,0.47c-0.18,0.11-0.38,0.17-0.59,0.15
		c-0.85,0-1.29-0.53-1.29-1.51h4.32V54.22z"/>
	<path class="st0" d="M92.92,55.27l1.32-1.45c0.87-0.93,1.38-1.77,1.38-3.2c0-2.18-1.5-3.56-3.28-3.56c-2.01,0-3.25,1.55-3.32,3.85
		h2.44c-0.02-0.14-0.03-0.28-0.03-0.43c0-0.68,0.33-1.22,0.93-1.22c0.59,0,0.97,0.66,0.97,1.3c-0.05,0.9-0.39,1.76-0.97,2.46
		l-3.47,4.45h6.84v-2.2L92.92,55.27z"/>
	<path class="st0" d="M97.79,49.66v7.81H100V47.46h-3.43v2.2H97.79z"/>
	<path class="st0" d="M25,57.55l0-13.09l2.83,1.57v8.68h5.14l2.34,2.84L25,57.55z"/>
	<path class="st0" d="M35.31,51.87v5.68l-2.84-2.83L35.31,51.87z"/>
	<path class="st0" d="M25,44.47h5.67l-2.84,2.84L25,44.47z"/>
</g>
<g>
	<path class="st0" d="M79.29,216.32c0.27-0.07,0.53-0.21,0.73-0.4c0.29-0.29,0.49-0.67,0.56-1.07c0.06-0.29,0.09-0.59,0.07-0.88
		c-0.01-0.38-0.13-0.75-0.34-1.07c-0.2-0.28-0.57-0.42-1.12-0.42c-0.09-0.01-0.17,0-0.26,0.03c-0.08,0.03-0.16,0.07-0.22,0.13
		c-0.1,0.15-0.17,0.32-0.2,0.5l-0.72,3.36C78.29,216.47,78.79,216.41,79.29,216.32L79.29,216.32z M77.25,221.47
		c0.19,0.05,0.38,0.07,0.57,0.06c0.43,0.02,0.85-0.09,1.2-0.33c0.35-0.24,0.62-0.58,0.76-0.98c0.21-0.51,0.31-1.07,0.27-1.62
		c-0.04-0.69-0.31-1.15-0.8-1.39c-0.29-0.14-0.81-0.23-1.56-0.26l-0.77,3.65c-0.01,0.06-0.03,0.12-0.04,0.2c0,0.09,0,0.17,0,0.26
		c0,0.1,0.04,0.2,0.1,0.27C77.07,221.39,77.15,221.45,77.25,221.47z M73.85,221.57c0.15-0.02,0.3-0.08,0.44-0.16
		c0.21-0.15,0.36-0.44,0.46-0.87l1.44-6.71c0.04-0.2,0.07-0.37,0.08-0.5c0.02-0.1,0.02-0.2,0.02-0.31c-0.02-0.27-0.1-0.44-0.26-0.5
		c-0.07-0.03-0.14-0.05-0.21-0.07l0.1-0.47h3.28c1.12,0,1.99,0.18,2.63,0.53c0.31,0.17,0.57,0.41,0.75,0.71
		c0.18,0.3,0.28,0.64,0.28,1c0.05,0.76-0.3,1.37-1.03,1.83c-0.5,0.29-1.04,0.5-1.61,0.62c0.49,0.15,0.96,0.38,1.38,0.67
		c0.23,0.19,0.42,0.42,0.55,0.69c0.13,0.27,0.2,0.56,0.21,0.85c0.03,0.41-0.04,0.81-0.19,1.19c-0.15,0.38-0.39,0.71-0.69,0.98
		c-0.64,0.62-1.75,0.93-3.34,0.93h-4.39L73.85,221.57z"/>
	<path class="st0" d="M87.47,216.06c-0.04-0.1-0.12-0.19-0.21-0.25c-0.1-0.06-0.21-0.09-0.32-0.08c-0.54,0-1.06,0.64-1.56,1.92
		c-0.45,1.14-0.65,2-0.62,2.61c0,0.22,0.07,0.44,0.2,0.62c0.05,0.08,0.13,0.15,0.21,0.19c0.08,0.05,0.18,0.07,0.28,0.07
		c0.5,0,1.03-0.66,1.59-1.97c0.39-1.11,0.57-1.98,0.54-2.62C87.56,216.37,87.53,216.21,87.47,216.06L87.47,216.06z M84.05,216.87
		c0.84-1.18,1.73-1.77,2.67-1.77c0.16-0.01,0.32,0.01,0.47,0.07c0.15,0.06,0.28,0.15,0.39,0.26c0.15,0.21,0.26,0.44,0.32,0.69
		l0.59-0.83h1.3l-0.89,3.42c-0.12,0.5-0.21,0.88-0.26,1.14c-0.09,0.35-0.14,0.71-0.14,1.07c0,0.03,0,0.07,0.01,0.1
		s0.03,0.06,0.05,0.08c0.04,0.03,0.08,0.05,0.13,0.05c0.09,0,0.18-0.04,0.25-0.1c0.1-0.08,0.19-0.18,0.27-0.29l0.06-0.08
		c0.1,0.07,0.24,0.16,0.35,0.24c-0.2,0.28-0.43,0.54-0.67,0.78c-0.28,0.3-0.67,0.48-1.08,0.5c-0.25-0.01-0.49-0.1-0.68-0.25
		c-0.11-0.09-0.21-0.2-0.27-0.33c-0.06-0.13-0.1-0.27-0.1-0.42c0.02-0.31,0.07-0.61,0.14-0.91l-0.05,0.08
		c-0.05,0.09-0.13,0.22-0.24,0.39c-0.23,0.39-0.53,0.73-0.89,1.02c-0.33,0.27-0.74,0.42-1.17,0.41c-0.42-0.01-0.82-0.17-1.13-0.45
		c-0.35-0.29-0.55-0.8-0.59-1.51C82.84,219.15,83.23,218.03,84.05,216.87"/>
	<path class="st0" d="M89.91,221.99l1.16-5.03c0.04-0.2,0.07-0.35,0.1-0.46c0.03-0.14,0.05-0.29,0.05-0.44
		c-0.01-0.18-0.07-0.29-0.2-0.34c-0.09-0.03-0.18-0.04-0.27-0.05l0.07-0.38h2.41l-0.73,2.59l0.04,0.02
		c-0.02,0.03,0.11-0.19,0.4-0.66c0.25-0.41,0.53-0.79,0.85-1.15c0.25-0.28,0.53-0.51,0.85-0.71c0.29-0.18,0.63-0.27,0.98-0.27
		c0.29-0.01,0.58,0.09,0.81,0.27c0.13,0.11,0.23,0.25,0.29,0.4s0.1,0.32,0.1,0.49c0.02,0.38-0.16,1.21-0.53,2.51
		c-0.37,1.29-0.56,1.98-0.56,2.07c0,0.04,0.01,0.08,0.02,0.11c0.02,0.04,0.04,0.07,0.07,0.09c0.05,0.04,0.1,0.06,0.16,0.07
		c0.12,0,0.28-0.14,0.5-0.42l0.36,0.23c-0.13,0.19-0.27,0.38-0.42,0.55c-0.17,0.21-0.38,0.37-0.62,0.49
		c-0.24,0.12-0.5,0.18-0.77,0.19c-0.26,0-0.52-0.08-0.73-0.23c-0.11-0.09-0.2-0.2-0.26-0.33c-0.06-0.13-0.09-0.27-0.09-0.41
		c0-0.32,0.04-0.63,0.11-0.94c0.08-0.41,0.19-0.83,0.31-1.26l0.63-2.23l0.03-0.14c0-0.04,0-0.08,0-0.12c0-0.05-0.01-0.09-0.03-0.13
		c-0.02-0.04-0.06-0.07-0.1-0.1c-0.07-0.04-0.16-0.07-0.25-0.07c-0.3,0-0.63,0.24-0.99,0.71c-0.33,0.44-0.62,0.92-0.85,1.42
		c-0.23,0.5-0.42,1.02-0.57,1.55c-0.15,0.52-0.32,1.22-0.52,2.11H89.91z"/>
	<path class="st0" d="M97.11,221.99c0,0,1.95-8.77,1.96-8.86c0.02-0.09,0.02-0.18,0.02-0.27c-0.01-0.22-0.09-0.36-0.23-0.41
		c-0.09-0.03-0.18-0.04-0.28-0.05l0.09-0.4h2.43l-1.4,6.38c0.54-0.41,1.02-0.8,1.42-1.16c0.62-0.57,0.92-0.97,0.91-1.19
		c0-0.07-0.02-0.14-0.06-0.19c-0.04-0.06-0.1-0.09-0.17-0.11c-0.07-0.02-0.14-0.03-0.22-0.04l0.09-0.39l2.19,0.02l-0.14,0.51
		c-0.39,0.02-0.37,0.05-1.34,0.98c0,0-0.72,0.68-0.82,0.77l-0.07,0.07c0.01,0.04,0.07,0.29,0.18,0.76c0.13,0.54,0.22,0.91,0.29,1.1
		c0.14,0.43,0.29,0.86,0.47,1.28c0.03,0.08,0.09,0.16,0.16,0.21c0.07,0.05,0.16,0.08,0.25,0.08c0.1-0.01,0.19-0.03,0.28-0.08
		c0.08-0.05,0.15-0.12,0.21-0.2c0.02-0.02,0.04-0.05,0.05-0.07l0.31,0.24c-0.13,0.22-0.28,0.44-0.45,0.64
		c-0.13,0.17-0.3,0.31-0.49,0.41c-0.19,0.1-0.41,0.15-0.62,0.15c-0.31,0.01-0.61-0.11-0.84-0.33c-0.25-0.25-0.45-0.55-0.59-0.88
		c-0.19-0.43-0.33-0.87-0.44-1.33c-0.12-0.5-0.18-0.78-0.18-0.82l-0.56,0.4l-0.6,2.8L97.11,221.99z"/>
	<path class="st0" d="M127.11,217.66h1.69c0.64,0,1.19,0.11,1.19,0.86c0,0.81-0.75,1.01-1.3,1.01h-1.97L127.11,217.66z
		 M123.23,221.88h5.72c2.18,0,4.11-0.95,4.11-3.36c0-0.92-0.59-1.81-1.51-2v-0.03h0.01c1.2-0.32,1.83-1.15,1.83-2.41
		c0-1.44-0.81-2.2-2.98-2.2h-5.12L123.23,221.88z M127.8,214.28h1.58c0.55,0,0.95,0.11,0.95,0.71c0,0.6-0.61,0.8-1.1,0.8h-1.74
		L127.8,214.28z"/>
	<path class="st0" d="M135.69,221.88h3.07l1.54-7.44h2.77l0.53-2.56h-8.61l-0.53,2.56h2.77L135.69,221.88z"/>
	<path class="st0" d="M142.62,221.88h2.92l1.16-5.6h0.03l1.83,5.6h3.02l2.1-10h-2.92l-1.12,5.46h-0.03l-1.87-5.46h-3.05
		L142.62,221.88z"/>
	<path class="st0" d="M122.09,228.78c0.09-0.34,0.05-0.34,0.28-1.26c0.16-0.91,1.16-2.29,2.91-2.43c0.6-0.07,23.56-1.05,28.47-1.39
		l-0.15,0.85C148.98,225.15,128.07,228,122.09,228.78z"/>
	<path class="st0" d="M112.05,221.88v1.82l1.57-0.91l1.57,0.91v-1.82l-1.57-0.91L112.05,221.88z"/>
	<path class="st0" d="M118.34,221.88v-1.82l-4.71-2.73l-4.71,2.73v1.82l4.71-2.73L118.34,221.88z"/>
	<path class="st0" d="M107.34,213.69l6.29-3.64l6.29,3.64v7.28l-1.57,0.91v-7.28l-4.72-2.73l-4.71,2.73v7.28l-1.57-0.91V213.69z"/>
	<path class="st0" d="M113.63,213.69l3.14,1.82v7.28l-1.57,0.91v-7.28l-1.57-0.91l-1.57,0.91v7.28l-1.57-0.91v-7.28L113.63,213.69z"
		/>
	<path class="st0" d="M84.4,232.98c-0.06-0.52-0.39-0.74-0.9-0.74c-0.4,0-0.81,0.15-0.81,0.62c0,0.47,0.59,0.51,1.17,0.65
		c0.59,0.13,1.15,0.34,1.15,1.05c0,0.77-0.75,1.08-1.41,1.08c-0.81,0-1.5-0.39-1.5-1.28h0.46c0,0.61,0.51,0.87,1.05,0.87
		c0.44,0,0.92-0.14,0.92-0.66c0-0.52-0.59-0.59-1.16-0.71c-0.57-0.13-1.17-0.29-1.17-0.96c0-0.74,0.66-1.06,1.31-1.06
		c0.74,0,1.3,0.35,1.33,1.15H84.4z"/>
	<path class="st0" d="M87.84,235.53c-0.1,0.05-0.2,0.07-0.31,0.07c-0.22,0-0.36-0.12-0.36-0.4c-0.11,0.13-0.26,0.24-0.42,0.31
		c-0.16,0.07-0.33,0.1-0.51,0.1c-0.48,0-0.87-0.21-0.87-0.73c0-0.59,0.44-0.72,0.89-0.81c0.45-0.09,0.88-0.06,0.88-0.39
		c0-0.38-0.31-0.44-0.59-0.44c-0.37,0-0.63,0.11-0.65,0.5h-0.43c0.03-0.65,0.53-0.88,1.11-0.88c0.47,0,0.98,0.11,0.98,0.72v1.35
		c0,0.2,0,0.29,0.14,0.29c0.05,0,0.09-0.01,0.13-0.02L87.84,235.53z M87.14,234.19c-0.17,0.12-0.49,0.13-0.78,0.18
		c-0.29,0.05-0.53,0.15-0.53,0.47c0,0.28,0.24,0.39,0.51,0.39c0.57,0,0.8-0.36,0.8-0.59V234.19z"/>
	<path class="st0" d="M88.24,231.91h0.43v1.39h0.01c0.08-0.14,0.2-0.26,0.35-0.34c0.15-0.08,0.31-0.12,0.48-0.1
		c0.69,0,0.9,0.39,0.9,0.96v1.73h-0.43v-1.77c0-0.07-0.01-0.14-0.03-0.21c-0.03-0.07-0.06-0.13-0.11-0.18s-0.11-0.09-0.18-0.11
		c-0.07-0.02-0.14-0.03-0.21-0.03c-0.52,0-0.78,0.35-0.78,0.82v1.48h-0.43L88.24,231.91z"/>
	<path class="st0" d="M93.38,235.53c-0.1,0.05-0.2,0.07-0.31,0.07c-0.22,0-0.36-0.12-0.36-0.4c-0.11,0.13-0.26,0.24-0.42,0.31
		c-0.16,0.07-0.33,0.1-0.51,0.1c-0.47,0-0.86-0.21-0.86-0.73c0-0.59,0.44-0.72,0.89-0.81c0.48-0.09,0.88-0.06,0.88-0.39
		c0-0.38-0.31-0.44-0.59-0.44c-0.36,0-0.63,0.11-0.66,0.5h-0.43c0.03-0.65,0.53-0.88,1.11-0.88c0.47,0,0.98,0.11,0.98,0.72v1.35
		c0,0.2,0,0.29,0.14,0.29c0.05,0,0.09-0.01,0.13-0.02L93.38,235.53z M92.68,234.19c-0.17,0.12-0.49,0.13-0.78,0.18
		c-0.29,0.05-0.53,0.15-0.53,0.47c0,0.28,0.24,0.39,0.51,0.39c0.56,0,0.8-0.36,0.8-0.59V234.19z"/>
	<path class="st0" d="M93.79,231.91h0.43v1.37c0.14-0.29,0.48-0.42,0.84-0.42c0.81,0,1.21,0.64,1.21,1.38c0,0.74-0.39,1.37-1.2,1.37
		c-0.16,0.01-0.33-0.03-0.47-0.1c-0.15-0.07-0.28-0.18-0.37-0.31v0.35h-0.43L93.79,231.91z M95,233.24c-0.59,0-0.8,0.5-0.8,0.99
		c0,0.49,0.23,1,0.82,1c0.59,0,0.79-0.5,0.79-1.02S95.56,233.23,95,233.24"/>
	<path class="st0" d="M99.1,235.53c-0.09,0.05-0.2,0.07-0.31,0.07c-0.22,0-0.36-0.12-0.36-0.4c-0.11,0.13-0.26,0.24-0.42,0.31
		c-0.16,0.07-0.33,0.1-0.51,0.1c-0.48,0-0.87-0.21-0.87-0.73c0-0.59,0.44-0.72,0.89-0.81c0.48-0.09,0.88-0.06,0.88-0.39
		c0-0.38-0.31-0.44-0.59-0.44c-0.36,0-0.63,0.11-0.65,0.5h-0.43c0.03-0.65,0.53-0.88,1.11-0.88c0.47,0,0.98,0.11,0.98,0.72v1.35
		c0,0.2,0,0.29,0.14,0.29c0.04,0,0.09-0.01,0.13-0.02L99.1,235.53z M98.4,234.19c-0.17,0.12-0.49,0.13-0.78,0.18
		c-0.29,0.05-0.53,0.15-0.53,0.47c0,0.28,0.24,0.39,0.5,0.39c0.57,0,0.8-0.36,0.8-0.59V234.19z"/>
	<path class="st0" d="M100.1,232.92h0.52v0.38h-0.52v1.63c0,0.2,0.06,0.23,0.32,0.23h0.2v0.39h-0.33c-0.44,0-0.62-0.09-0.62-0.57
		v-1.67h-0.45v-0.38h0.45v-0.78h0.43V232.92z"/>
	<path class="st0" d="M102.57,231.91h0.48v1.81l1.84-1.81h0.62l-1.53,1.47l1.59,2.16h-0.61l-1.31-1.83l-0.6,0.56v1.27h-0.48V231.91z
		"/>
	<path class="st0" d="M108.12,234.71c-0.04,0.26-0.18,0.5-0.39,0.67c-0.21,0.17-0.47,0.25-0.73,0.23c-0.83,0-1.23-0.57-1.26-1.38
		c-0.03-0.81,0.52-1.37,1.23-1.37c0.93,0,1.21,0.87,1.19,1.5h-1.96c-0.01,0.11,0,0.23,0.04,0.33c0.04,0.11,0.1,0.21,0.17,0.29
		c0.08,0.08,0.17,0.15,0.28,0.19c0.1,0.04,0.22,0.06,0.33,0.05c0.16,0.01,0.31-0.03,0.44-0.13c0.13-0.09,0.21-0.23,0.24-0.39
		L108.12,234.71z M107.7,233.98c0-0.2-0.08-0.39-0.22-0.53c-0.14-0.14-0.33-0.22-0.53-0.22c-0.2,0-0.39,0.08-0.53,0.22
		c-0.14,0.14-0.22,0.33-0.22,0.53H107.7z"/>
	<path class="st0" d="M109.06,231.92h-0.43v3.63h0.43V231.92z"/>
	<path class="st0" d="M111.9,235.54h-0.41v-0.42c-0.08,0.15-0.21,0.28-0.36,0.36c-0.15,0.09-0.32,0.13-0.49,0.12
		c-0.69,0-0.9-0.39-0.9-0.96v-1.73h0.43v1.78c0,0.07,0.01,0.14,0.03,0.21c0.02,0.07,0.06,0.13,0.11,0.18
		c0.05,0.05,0.11,0.09,0.18,0.11c0.07,0.02,0.14,0.03,0.21,0.03c0.52,0,0.78-0.35,0.78-0.82v-1.48h0.43L111.9,235.54z"/>
	<path class="st0" d="M114.86,235.53c-0.1,0.05-0.2,0.07-0.31,0.07c-0.22,0-0.36-0.12-0.36-0.4c-0.11,0.13-0.26,0.24-0.42,0.31
		c-0.16,0.07-0.33,0.1-0.51,0.1c-0.48,0-0.87-0.21-0.87-0.73c0-0.59,0.44-0.72,0.89-0.81c0.48-0.09,0.88-0.06,0.88-0.39
		c0-0.38-0.31-0.44-0.59-0.44c-0.37,0-0.63,0.11-0.65,0.5h-0.43c0.03-0.65,0.53-0.88,1.11-0.88c0.47,0,0.98,0.11,0.98,0.72v1.35
		c0,0.2,0,0.29,0.14,0.29c0.04,0,0.09-0.01,0.13-0.02L114.86,235.53z M114.17,234.19c-0.17,0.12-0.5,0.13-0.78,0.18
		c-0.29,0.05-0.53,0.15-0.53,0.47c0,0.28,0.24,0.39,0.51,0.39c0.57,0,0.8-0.36,0.8-0.59L114.17,234.19z"/>
	<path class="st0" d="M115.25,232.92h0.41v0.55c0.07-0.19,0.21-0.36,0.38-0.47c0.17-0.11,0.38-0.16,0.58-0.15v0.46
		c-0.7,0-0.95,0.39-0.95,1.06v1.17h-0.43L115.25,232.92z"/>
	<path class="st0" d="M119.07,235.32c0,0.85-0.39,1.29-1.22,1.29c-0.49,0-1.06-0.2-1.08-0.78h0.43c0.02,0.32,0.39,0.43,0.68,0.43
		c0.56,0,0.78-0.41,0.78-1v-0.17h-0.01c-0.08,0.15-0.19,0.27-0.34,0.36c-0.14,0.08-0.31,0.12-0.48,0.12c-0.78,0-1.17-0.61-1.17-1.33
		c0-0.62,0.3-1.39,1.21-1.39c0.16-0.01,0.31,0.03,0.45,0.11c0.14,0.08,0.25,0.19,0.33,0.33h0.01v-0.37h0.4L119.07,235.32z
		 M118.64,234.17c0-0.46-0.2-0.94-0.74-0.94s-0.78,0.45-0.78,0.96c0,0.47,0.17,1,0.74,1C118.43,235.19,118.64,234.67,118.64,234.17"
		/>
	<path class="st0" d="M122.04,235.53c-0.1,0.05-0.2,0.07-0.31,0.07c-0.22,0-0.37-0.12-0.37-0.4c-0.11,0.13-0.26,0.24-0.42,0.31
		c-0.16,0.07-0.33,0.1-0.51,0.1c-0.48,0-0.87-0.21-0.87-0.73c0-0.59,0.44-0.72,0.89-0.81c0.48-0.09,0.88-0.06,0.88-0.39
		c0-0.38-0.31-0.44-0.59-0.44c-0.36,0-0.63,0.11-0.65,0.5h-0.43c0.03-0.65,0.53-0.88,1.11-0.88c0.47,0,0.98,0.11,0.98,0.72v1.35
		c0,0.2,0,0.29,0.14,0.29c0.05,0,0.09-0.01,0.13-0.02L122.04,235.53z M121.34,234.19c-0.16,0.12-0.49,0.13-0.78,0.18
		c-0.29,0.05-0.53,0.15-0.53,0.47c0,0.28,0.24,0.39,0.51,0.39c0.57,0,0.8-0.36,0.8-0.59L121.34,234.19z"/>
	<path class="st0" d="M124.42,231.92h-0.48v3.63h0.48V231.92z"/>
	<path class="st0" d="M125.16,232.92h0.41v0.42h0.01c0.08-0.15,0.21-0.28,0.36-0.36c0.15-0.09,0.32-0.13,0.5-0.12
		c0.69,0,0.9,0.39,0.9,0.96v1.73h-0.43v-1.78c0-0.07-0.01-0.14-0.03-0.21c-0.03-0.07-0.06-0.13-0.12-0.18
		c-0.05-0.05-0.11-0.09-0.18-0.11c-0.07-0.02-0.14-0.03-0.21-0.03c-0.52,0-0.78,0.35-0.78,0.82v1.48h-0.43L125.16,232.92z"/>
	<path class="st0" d="M130.31,235.54h-0.43v-0.35c-0.14,0.29-0.48,0.42-0.84,0.42c-0.81,0-1.21-0.64-1.21-1.38
		c0-0.75,0.39-1.37,1.2-1.37c0.16-0.01,0.33,0.03,0.47,0.1c0.15,0.07,0.28,0.18,0.37,0.31v-1.35h0.43V235.54z M129.1,235.23
		c0.59,0,0.8-0.5,0.8-0.99c0-0.5-0.23-1-0.83-1c-0.6,0-0.78,0.5-0.78,1.02S128.54,235.24,129.1,235.23"/>
	<path class="st0" d="M132.11,232.85c0.83,0,1.27,0.6,1.27,1.37c0,0.76-0.44,1.37-1.27,1.37c-0.83,0-1.27-0.6-1.27-1.37
		C130.84,233.46,131.28,232.85,132.11,232.85z M132.11,235.22c0.45,0,0.82-0.36,0.82-0.99c0-0.64-0.36-0.99-0.82-0.99
		c-0.45,0-0.82,0.36-0.82,0.99C131.29,234.87,131.66,235.22,132.11,235.22z"/>
	<path class="st0" d="M133.89,232.92h0.4v0.42h0.01c0.08-0.15,0.21-0.28,0.36-0.36c0.15-0.08,0.32-0.12,0.5-0.12
		c0.69,0,0.9,0.39,0.9,0.96v1.73h-0.43v-1.78c0.01-0.07-0.01-0.14-0.03-0.21c-0.02-0.07-0.06-0.13-0.11-0.18s-0.11-0.09-0.18-0.11
		c-0.07-0.02-0.14-0.03-0.21-0.03c-0.52,0-0.78,0.35-0.78,0.82v1.48h-0.43L133.89,232.92z"/>
	<path class="st0" d="M138.94,234.71c-0.04,0.26-0.18,0.5-0.39,0.66c-0.21,0.17-0.47,0.25-0.73,0.23c-0.84,0-1.23-0.57-1.26-1.38
		c-0.03-0.81,0.52-1.37,1.23-1.37c0.93,0,1.21,0.87,1.19,1.5h-1.96c-0.01,0.11,0,0.23,0.04,0.33c0.04,0.11,0.1,0.2,0.17,0.29
		c0.08,0.08,0.17,0.15,0.28,0.19c0.1,0.04,0.22,0.06,0.33,0.06c0.16,0.02,0.31-0.03,0.44-0.12c0.13-0.1,0.21-0.23,0.24-0.39
		L138.94,234.71z M138.52,233.98c0-0.2-0.09-0.39-0.23-0.53c-0.14-0.14-0.33-0.22-0.53-0.22c-0.2,0-0.39,0.08-0.53,0.21
		c-0.14,0.14-0.22,0.33-0.22,0.53H138.52z"/>
	<path class="st0" d="M139.69,234.71c0.02,0.39,0.35,0.51,0.71,0.51c0.27,0,0.64-0.06,0.64-0.39c0-0.33-0.43-0.39-0.86-0.49
		c-0.43-0.1-0.86-0.24-0.86-0.74c0-0.5,0.52-0.75,0.98-0.75c0.57,0,1.04,0.18,1.07,0.82h-0.43c-0.03-0.33-0.32-0.44-0.6-0.44
		s-0.56,0.07-0.56,0.33c0,0.31,0.45,0.36,0.85,0.46c0.43,0.1,0.86,0.24,0.86,0.75c0,0.62-0.59,0.83-1.12,0.83
		c-0.59,0-1.08-0.24-1.11-0.89H139.69z"/>
	<path class="st0" d="M141.98,235.54h0.43v-2.63h-0.43V235.54z M141.98,232.44h0.43v-0.54h-0.43V232.44z"/>
	<path class="st0" d="M145.4,235.53c-0.1,0.05-0.2,0.07-0.31,0.07c-0.22,0-0.37-0.12-0.37-0.4c-0.11,0.13-0.25,0.24-0.41,0.31
		c-0.16,0.07-0.33,0.1-0.51,0.1c-0.48,0-0.86-0.21-0.86-0.73c0-0.59,0.44-0.72,0.89-0.81c0.45-0.09,0.88-0.06,0.88-0.39
		c0-0.38-0.31-0.44-0.59-0.44c-0.37,0-0.63,0.11-0.65,0.5h-0.43c0.03-0.65,0.53-0.88,1.11-0.88c0.47,0,0.99,0.11,0.99,0.72v1.35
		c0,0.2,0,0.29,0.14,0.29c0.05,0,0.09-0.01,0.13-0.02L145.4,235.53z M144.7,234.19c-0.17,0.12-0.49,0.13-0.78,0.18
		c-0.29,0.05-0.53,0.15-0.53,0.47c0,0.28,0.24,0.39,0.51,0.39c0.57,0,0.8-0.36,0.8-0.59L144.7,234.19z"/>
</g>
<g>
	<path class="st0" d="M221.33,214.42c0-1.15-0.02-2.12-0.08-2.99h2.19l0.1,1.49h0.06c0.31-0.54,0.77-0.98,1.31-1.28
		c0.54-0.3,1.16-0.45,1.78-0.44c0.6-0.02,1.19,0.15,1.69,0.48c0.5,0.33,0.88,0.81,1.1,1.37h0.04c0.31-0.51,0.73-0.94,1.24-1.26
		c0.59-0.41,1.3-0.62,2.02-0.6c1.67,0,3.36,1.13,3.36,4.35v5.92h-2.48v-5.55c0-1.67-0.58-2.66-1.8-2.66c-0.87,0-1.51,0.61-1.77,1.34
		c-0.07,0.28-0.12,0.56-0.13,0.84v6.02h-2.48v-5.82c0-1.4-0.56-2.39-1.74-2.39c-0.95,0-1.59,0.74-1.82,1.44
		c-0.1,0.26-0.15,0.54-0.14,0.82v5.95h-2.48V214.42z"/>
	<path class="st0" d="M245.81,219.06c-0.01,0.81,0.04,1.61,0.14,2.41h-2.29l-0.17-1.11h-0.06c-0.36,0.43-0.82,0.78-1.33,1.01
		c-0.51,0.23-1.08,0.34-1.64,0.33c-2.02,0-3.16-1.46-3.16-2.99c0-2.54,2.25-3.81,5.97-3.79v-0.17c0-0.66-0.27-1.76-2.04-1.76
		c-0.95,0-1.88,0.26-2.7,0.74l-0.49-1.65c0.74-0.45,2.04-0.89,3.63-0.89c3.22,0,4.15,2.04,4.15,4.23L245.81,219.06z M243.33,216.56
		c-1.8-0.04-3.51,0.35-3.51,1.88c0,0.99,0.64,1.44,1.45,1.44c0.43,0.01,0.86-0.12,1.21-0.37c0.36-0.25,0.62-0.6,0.77-1.01
		c0.06-0.18,0.08-0.37,0.08-0.56V216.56z"/>
	<path class="st0" d="M247.56,214.42c0-1.15-0.02-2.12-0.08-2.99h2.23l0.12,1.51h0.06c0.43-0.78,1.53-1.73,3.2-1.73
		c1.75,0,3.57,1.13,3.57,4.31v5.95h-2.53v-5.67c0-1.44-0.54-2.54-1.92-2.54c-0.44,0.01-0.87,0.16-1.23,0.43
		c-0.35,0.27-0.62,0.64-0.75,1.06c-0.08,0.26-0.11,0.54-0.1,0.82v5.9h-2.57V214.42z"/>
	<path class="st0" d="M267.67,207.39v11.25c0,1.03,0.04,2.15,0.08,2.83h-2.27l-0.1-1.59h-0.04c-0.6,1.11-1.82,1.81-3.28,1.81
		c-2.4,0-4.29-2.04-4.29-5.13c-0.02-3.36,2.08-5.36,4.5-5.36c1.38,0,2.37,0.58,2.83,1.32h0.04v-5.13H267.67z M265.14,215.61
		c0-0.22-0.02-0.44-0.06-0.66c-0.1-0.51-0.37-0.96-0.77-1.29c-0.4-0.33-0.9-0.51-1.42-0.5c-1.64,0-2.54,1.44-2.54,3.32
		c0,1.84,0.91,3.18,2.52,3.18c0.51,0,1.01-0.18,1.41-0.51s0.67-0.78,0.77-1.28c0.06-0.24,0.09-0.49,0.08-0.74V215.61z"/>
	<path class="st0" d="M269.47,221.47v-10.04h2.56v10.04H269.47z"/>
	<path class="st0" d="M273.83,214.66c0-1.36-0.02-2.33-0.08-3.24h2.21l0.08,1.92h0.08c0.5-1.43,1.67-1.92,2.75-1.92
		c0.2-0.02,0.4-0.02,0.6,0v2.23c-0.24-0.05-0.49-0.08-0.74-0.08c-1.23,0-2.04,0.78-2.27,1.92c-0.05,0.26-0.08,0.52-0.08,0.78v5.2
		h-2.54V214.66z"/>
	<path class="st0" d="M280.64,221.47v-10.04h2.56v10.04H280.64z"/>
	<path class="st0" d="M299.13,200.8c-1.27-1.44-2.61-0.79-3.68-0.26c-0.45,0.22-3.7,2.06-3.7,2.06c-1.78,0.73-3.17-0.07-3.71-0.74
		c-0.05-0.06-0.1-0.13-0.14-0.2l-0.13-0.22c-0.21-0.37-0.45-0.73-0.71-1.07c-0.16-0.21-0.33-0.4-0.51-0.58
		c-1.23-1.23-3.17-2.09-6.42-0.53c-1.54,0.89-6.56,3.76-6.56,3.76c-1.89,0.78-3.33-0.17-3.8-0.86c-0.02-0.03-0.04-0.05-0.06-0.08
		l-0.06-0.1l-0.32-0.52c-0.14-0.2-0.29-0.44-0.46-0.66c-0.16-0.21-0.33-0.4-0.51-0.58c-1.21-1.23-3.15-2.08-6.38-0.55l-6.49,3.71
		l-3.32,1.9l1.72,2.11c0.72,0.69,2.08,1.82,4.19,0.87c0,0,5.8-3.36,5.83-3.37c4.96-2.72,7.41-0.12,8.49,1.61
		c0.04,0.05,0.07,0.11,0.1,0.17c0.01,0.02,0.02,0.04,0.03,0.06l0.12,0.2c0.25,0.4,0.59,0.73,1.01,0.96
		c0.41,0.23,0.88,0.34,1.35,0.34c0.55-0.01,0.92-0.19,1.46-0.49l5.62-3.25h0.01c5.02-2.76,7.51,0.01,8.59,1.75
		c0.08,0.15,0.17,0.29,0.27,0.42c0.53,0.71,1.25,1.18,2.18,1.16c0.49-0.04,0.97-0.19,1.39-0.44l6.74-3.88
		C300.6,202.53,299.89,201.65,299.13,200.8z"/>
</g>
<g>
	<path class="st1" d="M254.2,150.21c2.13,0.89,4.4,1.34,6.73,1.34s4.6-0.45,6.73-1.34c1.03-0.43,2.01-0.96,2.94-1.57
		c0.92-0.61,1.78-1.31,2.56-2.09c0.78-0.77,1.49-1.62,2.11-2.53c0.62-0.91,1.16-1.89,1.6-2.9c0.9-2.11,1.36-4.34,1.36-6.65
		c0-2.3-0.46-4.54-1.36-6.65c-0.43-1.01-0.97-1.99-1.6-2.9c-0.62-0.9-1.33-1.75-2.11-2.53c-0.78-0.77-1.64-1.47-2.56-2.09
		c-0.92-0.62-1.91-1.15-2.94-1.57c-2.13-0.89-4.4-1.34-6.73-1.34c-2.33,0-4.6,0.45-6.73,1.34c-1.02,0.43-2.01,0.96-2.94,1.57
		c-0.92,0.61-1.78,1.31-2.56,2.08c-0.78,0.77-1.49,1.62-2.11,2.53c-0.62,0.91-1.16,1.89-1.6,2.9c-0.9,2.1-1.36,4.34-1.36,6.65
		c0,2.31,0.46,4.54,1.36,6.65c0.43,1.01,0.97,1.99,1.6,2.9c0.62,0.9,1.33,1.76,2.11,2.53c0.78,0.77,1.65,1.47,2.56,2.09
		C252.18,149.26,253.17,149.79,254.2,150.21z M244.52,134.48c0-8.93,7.37-16.2,16.42-16.2c9.05,0,16.42,7.27,16.42,16.2
		c0,8.93-7.37,16.2-16.42,16.2C251.88,150.68,244.52,143.41,244.52,134.48z"/>
	<g>
		<path class="st1" d="M264.38,130.38c0.43-0.83-0.43-1.59-0.43-1.59l-1.1,2.11C262.86,130.9,263.96,131.2,264.38,130.38z"/>
		<path class="st1" d="M261.5,117.95l-14.57,24.94h29.11L261.5,117.95z M266.83,137.85c-0.28,0.57-1.73,2.87-1.73,2.87h-2.87
			c0,0,1.43-2.43,1.61-2.76c0.22-0.4-0.93-1.06-1.19-0.59l-1.99,3.35h-7.14l4.59-7.76l-4.45,0l7.58-12.84l1.68,2.72l-5.19,8.77h1.17
			l2.94-4.98c0,0,2.57-0.42,3.59,0.67c1.02,1.1,1.45,2.78,0.6,4.03c-0.87,1.27-1.74,1.44-2.74,1.62h-1.78l-3.63,6.14h1.16l3.31-5.58
			c0,0,1.43,0.2,2.9-0.56l-1.2,2.03c0,0,1.39,0.42,2.02-0.87c0.57-1.17-0.11-1.74-0.11-1.74c0.53-0.48,0.92-1.13,1.18-1.96
			c0,0,1.91,1.92,1.75,3.27c-0.16,1.35-0.93,2.47-2.13,3C266.75,136.69,267.1,137.28,266.83,137.85z"/>
	</g>
	<path class="st1" d="M282.48,157.19L282.48,157.19c0.18,0.3,0.37,0.59,0.55,0.88c0.09,0.14,0.21,0.28,0.41,0.26
		c0.18-0.02,0.29-0.12,0.36-0.29c0.11-0.28,0.22-0.55,0.33-0.83l0,0c0.05-0.11,0.09-0.23,0.14-0.34c0.06-0.14,0.12-0.29,0.18-0.43
		l0,0c0.16-0.39,0.32-0.77,0.47-1.16c0.07-0.17,0.15-0.25,0.36-0.22c0.01,0.03,0.02,0.06,0.03,0.09l0,0
		c0.03,0.07,0.06,0.14,0.08,0.22l0.18,0.52l0,0c0.23,0.66,0.47,1.33,0.7,1.99c0.08,0.23,0.17,0.43,0.43,0.47
		c0.02,0,0.03,0.02,0.05,0.03c0.01,0.01,0.01,0.01,0.02,0.01c0,0,0.01,0.01,0.01,0.02c0,0,0,0.01,0,0.01c-0.16,0.1-1.22,0.11-1.53,0
		l0.06-0.03c0.1-0.05,0.19-0.1,0.31-0.16c-0.05-0.14-0.09-0.29-0.14-0.43l-0.11-0.35h-0.99c-0.02,0.06-0.05,0.12-0.07,0.19l0,0
		c-0.05,0.13-0.11,0.26-0.15,0.4c-0.07,0.2-0.06,0.2,0.14,0.29c0.03,0.01,0.06,0.03,0.1,0.06l0,0c0.02,0.01,0.05,0.03,0.07,0.05
		c-0.03,0.01-0.06,0.02-0.08,0.03c-0.04,0.02-0.07,0.03-0.1,0.03c-0.15,0.01-0.31,0.01-0.46,0.02l0,0
		c-0.26,0.01-0.53,0.02-0.79,0.04c-0.4,0.03-0.67-0.12-0.86-0.47c-0.15-0.28-0.31-0.55-0.48-0.83l0,0l-0.07-0.11l-0.01-0.01
		c-0.06-0.1-0.12-0.21-0.31-0.17v0.48c0,0.04,0,0.09,0,0.13c0,0.1,0,0.2,0,0.3c-0.02,0.24-0.01,0.46,0.29,0.53
		c0.01,0,0.01,0.02,0.01,0.03l0,0c0,0.01,0,0.01,0.01,0.02c-0.19,0.09-1.16,0.1-1.4,0c0.02-0.09,0.1-0.11,0.17-0.12
		c0.01,0,0.02,0,0.03-0.01c0.13-0.03,0.17-0.1,0.17-0.22c0-0.35,0-0.7,0-1.06l0,0c0-0.53,0-1.06-0.01-1.58
		c0-0.02-0.01-0.04-0.01-0.05c0-0.01-0.01-0.01-0.01-0.02c-0.04-0.05-0.09-0.07-0.15-0.08c-0.09-0.02-0.18-0.05-0.2-0.18
		c0.02,0,0.03,0,0.05-0.01c0.04-0.01,0.07-0.01,0.1-0.01c0.13,0,0.26,0,0.39,0c0.37,0,0.74-0.01,1.12,0c0.19,0,0.38,0.03,0.56,0.08
		c0.28,0.08,0.49,0.25,0.54,0.56c0.05,0.33,0,0.63-0.28,0.85c-0.08,0.06-0.17,0.11-0.26,0.17c-0.05,0.03-0.1,0.06-0.15,0.09
		C282.34,156.96,282.41,157.07,282.48,157.19z M281.33,156.67c0.44,0.06,0.65-0.01,0.78-0.25c0.14-0.26,0.12-0.74-0.06-0.92
		c-0.2-0.2-0.44-0.21-0.71-0.14V156.67z M284.92,156.15c0.11,0.32,0.22,0.65,0.34,0.99h-0.77c0.06-0.17,0.12-0.33,0.18-0.49
		c0.06-0.17,0.13-0.34,0.19-0.5c0.01,0,0.02,0,0.03,0C284.9,156.15,284.91,156.15,284.92,156.15z"/>
	<path class="st1" d="M267.58,158.36c-0.02,0.01-0.05,0.02-0.07,0.03c0,0.02,0.01,0.05,0.01,0.07c0.03,0,0.05,0.01,0.08,0.01
		c0.05,0.01,0.1,0.02,0.15,0.02c0.02,0,0.05,0,0.07,0c0.32,0.01,0.63,0.01,0.95,0.01c0.03,0,0.05,0,0.08,0c0.22,0,0.44,0,0.66-0.04
		c0.66-0.11,1.13-0.47,1.34-1.13c0.12-0.36,0.13-0.74,0.07-1.11c-0.08-0.49-0.36-0.84-0.83-1c-0.24-0.08-0.5-0.13-0.75-0.14
		c-0.41-0.01-0.82-0.01-1.23,0c-0.16,0-0.32,0-0.48,0c-0.02,0-0.04,0.01-0.08,0.01c-0.02,0-0.05,0.01-0.09,0.02
		c0.03,0.03,0.06,0.05,0.08,0.07c0.04,0.03,0.06,0.06,0.1,0.07c0,0,0.01,0,0.01,0c0.25,0.1,0.25,0.11,0.25,0.38v1.69
		c0,0.07,0,0.15,0,0.22c0,0.17,0,0.35,0,0.52c0,0.12-0.04,0.2-0.17,0.22C267.67,158.32,267.63,158.34,267.58,158.36z M268.64,156.41
		c0-0.35,0-0.7,0-1.05c0.31-0.06,0.6-0.06,0.88,0.05c0.25,0.1,0.4,0.29,0.48,0.53c0.18,0.56,0.18,1.13-0.01,1.69
		c-0.14,0.39-0.42,0.61-0.83,0.62c-0.11,0-0.21,0-0.33,0c-0.06,0-0.12,0-0.19,0C268.64,157.63,268.64,157.02,268.64,156.41z"/>
	<path class="st1" d="M238.94,155.02c-0.04,0-0.08,0-0.12-0.01c-0.04,0-0.09,0-0.13,0.01c-0.09,0-0.17,0-0.25,0.02
		c-0.66,0.09-1.16,0.41-1.4,1.06c-0.18,0.48-0.17,0.98-0.01,1.46c0.15,0.44,0.45,0.76,0.89,0.91c0.53,0.18,1.07,0.18,1.58-0.03
		c0.67-0.28,0.97-0.83,1.03-1.53c0.07-0.91-0.32-1.67-1.3-1.86C239.14,155.03,239.04,155.02,238.94,155.02z M239.55,155.8
		c0.12,0.28,0.17,0.55,0.2,1.04c-0.02,0.09-0.03,0.18-0.04,0.27c-0.03,0.2-0.06,0.4-0.11,0.6c-0.11,0.41-0.39,0.61-0.78,0.63
		c-0.38,0.02-0.7-0.17-0.87-0.53c-0.07-0.15-0.12-0.3-0.14-0.46c-0.08-0.46-0.08-0.91,0.03-1.37c0.15-0.6,0.63-0.86,1.19-0.68
		C239.28,155.39,239.44,155.56,239.55,155.8z"/>
	<path class="st1" d="M233.09,158.37c-0.02,0.01-0.04,0.02-0.05,0.03c0,0.02,0.01,0.04,0.01,0.06c0.03,0,0.05,0.01,0.07,0.01
		c0.05,0.01,0.11,0.02,0.16,0.02c0.05,0,0.1,0,0.15,0c0.31,0.01,0.62,0.01,0.93,0.01c0.22,0,0.44,0,0.65-0.04
		c0.69-0.11,1.16-0.49,1.37-1.17c0.1-0.32,0.11-0.66,0.06-1c-0.07-0.55-0.38-0.93-0.91-1.1c-0.23-0.07-0.48-0.11-0.73-0.12
		c-0.42-0.01-0.84-0.01-1.26,0c-0.12,0-0.24,0-0.37,0c-0.03,0-0.06,0.01-0.1,0.02c-0.02,0.01-0.04,0.01-0.07,0.02
		c0.05,0.1,0.13,0.13,0.21,0.15c0.06,0.02,0.13,0.04,0.18,0.1c0,0.03,0,0.07,0.01,0.1c0,0.07,0.01,0.16,0.01,0.24
		c0,0.71,0,1.42,0,2.12c0,0.03,0,0.06,0,0.09c0,0.04-0.01,0.08,0,0.11c0.01,0.14-0.04,0.24-0.2,0.26
		C233.17,158.32,233.13,158.35,233.09,158.37z M234.34,158.26c-0.06,0-0.12,0-0.18,0v-2.89c0.3-0.07,0.58-0.06,0.85,0.04
		c0.26,0.09,0.43,0.29,0.51,0.54c0.18,0.56,0.18,1.13-0.01,1.69c-0.14,0.39-0.42,0.6-0.84,0.62
		C234.56,158.26,234.45,158.26,234.34,158.26z"/>
	<path class="st1" d="M261.8,155.02c-0.04-0.01-0.08-0.01-0.11-0.01c-0.07,0-0.14,0.01-0.19,0.01c-0.08,0-0.15,0.01-0.22,0.01
		c-0.77,0.07-1.33,0.57-1.49,1.32c-0.07,0.35-0.07,0.7,0.02,1.05c0.17,0.62,0.57,1.01,1.19,1.13c0.23,0.04,0.47,0.06,0.7,0.05
		c0.87-0.05,1.47-0.59,1.61-1.46c0.03-0.19,0.03-0.38,0.02-0.57c-0.02-0.75-0.47-1.3-1.2-1.47
		C262.03,155.04,261.9,155.03,261.8,155.02z M260.73,157.77c-0.14-0.32-0.17-0.66-0.21-1.01c0.02-0.09,0.03-0.19,0.04-0.28
		c0.03-0.2,0.06-0.4,0.11-0.59c0.11-0.4,0.38-0.6,0.76-0.62c0.42-0.03,0.74,0.14,0.9,0.51c0.09,0.23,0.14,0.47,0.18,0.72
		c0.06,0.39,0.02,0.78-0.08,1.17c-0.12,0.44-0.39,0.66-0.8,0.69C261.23,158.37,260.91,158.16,260.73,157.77z"/>
	<path class="st1" d="M266.8,158.45c-0.27,0.09-0.27,0.09-0.41-0.09c-0.58-0.73-1.16-1.47-1.74-2.2c-0.05-0.06-0.11-0.12-0.2-0.23
		c-0.01,0.12-0.01,0.18-0.01,0.24c0,0.6,0,1.21,0.01,1.81c0,0.25,0.01,0.25,0.24,0.34c0.05,0.02,0.09,0.05,0.14,0.09
		c-0.19,0.1-0.82,0.11-1.12,0.01c0.09-0.05,0.14-0.1,0.2-0.11c0.17-0.03,0.2-0.13,0.2-0.29c-0.01-0.59,0-1.19,0-1.78
		c0-0.3,0-0.59,0-0.84c-0.11-0.16-0.33-0.08-0.39-0.32c0.33,0,0.63-0.01,0.92,0.01c0.07,0,0.13,0.1,0.18,0.16
		c0.47,0.59,0.94,1.18,1.41,1.77c0.06,0.08,0.13,0.16,0.22,0.27c0-0.68,0-1.31,0-1.93c-0.12-0.12-0.3-0.06-0.38-0.22
		c0.17-0.07,0.66-0.09,1.08-0.04c0.01,0.23-0.24,0.13-0.33,0.24C266.79,156.38,266.82,157.41,266.8,158.45z"/>
	<path class="st1" d="M230.33,158.45c-0.33,0.07-0.89,0.06-1.09-0.05c0.14-0.06,0.26-0.11,0.38-0.16c0-0.96,0-1.91,0-2.85
		c-0.09-0.14-0.31-0.06-0.37-0.29c0.2,0,0.37,0.02,0.54,0c0.32-0.05,0.52,0.08,0.71,0.34c0.39,0.54,0.82,1.05,1.24,1.58
		c0.06,0.08,0.13,0.16,0.2,0.25c0.08-0.18,0.1-1.58,0.03-1.9c-0.09-0.1-0.28-0.04-0.35-0.2c0.18-0.07,0.77-0.08,1.08-0.03
		c-0.02,0.21-0.24,0.13-0.36,0.27c0,0.99,0,2.02,0,3.04c-0.27,0.13-0.27,0.13-0.43-0.06c-0.59-0.75-1.18-1.5-1.77-2.24
		c-0.04-0.05-0.08-0.09-0.16-0.18c-0.01,0.1-0.01,0.16-0.01,0.21c0,0.61,0,1.22,0,1.84c0,0.19-0.05,0.27,0.24,0.34
		c0.04,0.01,0.07,0.03,0.1,0.05C230.32,158.39,230.32,158.41,230.33,158.45z"/>
	<path class="st1" d="M243.62,157.26c0.07-0.25,0.07-1.63,0-1.91c-0.09-0.09-0.29-0.02-0.33-0.25c0.19,0,0.37,0,0.54,0
		c0.17,0,0.34,0,0.5,0c0.06,0.11,0,0.14-0.08,0.17c-0.26,0.1-0.26,0.1-0.26,0.38c0,0.83,0,1.66,0,2.5c0,0.1,0,0.21,0,0.31
		c-0.27,0.1-0.27,0.1-0.42-0.09c-0.56-0.71-1.12-1.42-1.69-2.13c-0.06-0.08-0.13-0.16-0.2-0.25c-0.06,0.2-0.07,1.89-0.02,2.26
		c0.11,0.05,0.22,0.1,0.36,0.16c-0.24,0.12-0.88,0.12-1.14,0.01c0.15-0.07,0.27-0.12,0.4-0.17c0-0.96,0-1.92,0-2.85
		c-0.1-0.14-0.32-0.06-0.38-0.29c0.18,0,0.35,0.01,0.51-0.01c0.35-0.05,0.57,0.08,0.78,0.37c0.39,0.55,0.83,1.07,1.25,1.6
		C243.5,157.13,243.56,157.19,243.62,157.26z"/>
	<path class="st1" d="M297.03,154.92c-0.19,0.03-0.38,0.07-0.57,0.1c0,0.01,0,0.03,0,0.04c0,0.01,0,0.03,0,0.04
		c0.11,0.05,0.23,0.1,0.36,0.16v3.14c0.41,0.14,0.81,0.19,1.22,0.15c0.86-0.09,1.32-0.71,1.16-1.56c-0.1-0.51-0.46-0.82-0.98-0.8
		c-0.12,0-0.24,0.04-0.35,0.07c-0.05,0.01-0.1,0.03-0.14,0.04c-0.04,0.01-0.08,0.02-0.12,0.04c-0.02,0.01-0.05,0.02-0.08,0.02v-1.51
		C297.34,154.86,297.18,154.89,297.03,154.92z M297.5,158.24c-0.01-0.54-0.01-1.08,0-1.62c0.45-0.22,0.8-0.08,0.9,0.38
		c0.05,0.25,0.05,0.52,0,0.76C298.31,158.23,298.02,158.39,297.5,158.24z"/>
	<path class="st1" d="M221.23,157.18c0-0.03,0-0.06,0.01-0.09c0.07,0,0.13,0,0.19,0c0.13,0,0.25,0,0.37,0
		c0.26-0.01,0.51-0.09,0.72-0.24c0.36-0.27,0.44-0.65,0.37-1.07c-0.07-0.38-0.36-0.54-0.7-0.63c-0.15-0.04-0.32-0.06-0.48-0.06
		c-0.39-0.01-0.79,0-1.18,0c-0.1,0-0.2,0-0.3,0c-0.03,0-0.06,0.01-0.08,0.02c-0.01,0-0.02,0.01-0.03,0.01
		c-0.01,0.12,0.05,0.14,0.12,0.15c0.01,0,0.02,0,0.03,0.01c0.23,0.06,0.23,0.12,0.22,0.27c0,0.02,0,0.04,0,0.06v0.74
		c0,0.18,0,0.36,0,0.54c0,0.36,0,0.71,0,1.07c0,0.03,0,0.05,0,0.07c0,0.21,0,0.25-0.26,0.31c-0.03,0.01-0.06,0.03-0.08,0.05
		c-0.01,0.01-0.02,0.02-0.04,0.03l0.01,0.06c0.05,0,0.11,0,0.16,0.01c0.11,0,0.22,0.01,0.33,0.01c0.04,0,0.07,0,0.11,0
		c0.14,0,0.29,0.01,0.43,0c0.04,0,0.08,0,0.13,0c0.12,0,0.26,0.01,0.4-0.08c-0.1-0.04-0.18-0.08-0.26-0.11
		c-0.06-0.03-0.13-0.06-0.2-0.09c0-0.07,0-0.15,0-0.22c0-0.22,0-0.43,0-0.64C221.22,157.3,221.23,157.25,221.23,157.18z
		 M221.24,156.8v-1.46c0.05,0,0.09,0,0.13,0c0.08,0,0.16-0.01,0.24,0.01c0.28,0.04,0.45,0.19,0.49,0.48
		c0.02,0.15,0.02,0.3,0.01,0.46C222.05,156.74,221.72,156.95,221.24,156.8z"/>
	<path class="st1" d="M257.04,155.09c-0.15,0-0.3,0-0.45,0c-0.02,0.14,0.04,0.15,0.1,0.17c0.01,0,0.02,0.01,0.03,0.01
		c0,0,0,0,0.01,0c0.21,0.08,0.22,0.08,0.22,0.32c0,0.34,0,0.68,0,1.03c0,0.1,0,0.2,0,0.29c0,0.07,0,0.15,0,0.22
		c0,0.29,0,0.58,0,0.87c0,0.23-0.01,0.23-0.22,0.31c-0.01,0-0.01,0-0.01,0.01c-0.04,0.01-0.07,0.04-0.11,0.06
		c-0.02,0.01-0.04,0.03-0.06,0.04c0.27,0.1,1.35,0.09,1.55,0c-0.04-0.07-0.1-0.09-0.17-0.1c-0.03-0.01-0.07-0.02-0.1-0.03
		c-0.06-0.03-0.14-0.1-0.14-0.15c-0.01-0.26-0.01-0.52-0.01-0.78c0-0.08,0-0.17,0-0.25c0.05,0,0.09,0,0.13,0c0.08,0,0.14,0,0.21,0
		c0.31,0,0.61-0.04,0.88-0.2c0.36-0.22,0.53-0.63,0.45-1.09c-0.07-0.41-0.37-0.58-0.73-0.66c-0.01,0-0.03-0.01-0.04-0.01
		c-0.07-0.02-0.14-0.04-0.21-0.04C257.93,155.09,257.49,155.09,257.04,155.09z M257.73,156.82c-0.06-0.21-0.07-1.1-0.01-1.49
		c0.05,0,0.1,0.01,0.16,0.01c0.1,0.01,0.2,0.01,0.3,0.03c0.16,0.03,0.27,0.14,0.33,0.29c0.1,0.3,0.11,0.6-0.02,0.89
		C258.37,156.81,258.11,156.9,257.73,156.82z"/>
	<path class="st1" d="M247.18,155.12c-0.06,0.29-0.08,0.57-0.19,0.86c-0.21-0.18-0.15-0.4-0.27-0.6c-0.27-0.03-0.56,0-0.89-0.01
		c-0.01,0.42-0.01,0.83,0,1.25c0.11,0.01,0.2,0.01,0.29,0.02c0.3,0,0.3,0,0.4-0.27c0.03-0.07,0.03-0.07,0.18-0.13
		c0,0.34,0,0.68,0,1.06c-0.06-0.04-0.15-0.06-0.15-0.09c-0.03-0.4-0.32-0.33-0.57-0.32c-0.04,0-0.07,0.01-0.13,0.02
		c0,0.43,0,0.85,0,1.32c0.3,0.02,0.6,0.01,0.89,0.01c0.21-0.18,0.18-0.53,0.51-0.69c-0.02,0.34-0.04,0.62-0.06,0.9
		c-0.24,0.08-2.23,0.08-2.51-0.02c0.15-0.07,0.26-0.12,0.4-0.19c0.03-0.95,0.03-1.91,0-2.86c-0.02-0.01-0.35-0.23-0.35-0.23
		C244.88,155.08,246.72,155.06,247.18,155.12z"/>
	<path class="st1" d="M247.65,158.43c0.05-0.3,0.09-0.58,0.14-0.85c0.01-0.03,0.07-0.05,0.14-0.09c0.05,0.21,0.11,0.39,0.14,0.57
		c0.03,0.17,0.12,0.26,0.29,0.25c0.17-0.01,0.35,0,0.5-0.07c0.36-0.16,0.42-0.62,0.12-0.88c-0.1-0.09-0.24-0.16-0.36-0.23
		c-0.17-0.1-0.36-0.18-0.53-0.28c-0.61-0.37-0.58-1.33,0.08-1.65c0.14-0.07,0.3-0.12,0.46-0.15c0.37-0.07,0.73-0.01,1.11,0.1
		c-0.05,0.29-0.05,0.57-0.2,0.85c-0.16-0.15-0.16-0.32-0.21-0.47c-0.07-0.22-0.09-0.25-0.31-0.26c-0.12,0-0.25,0.01-0.36,0.06
		c-0.35,0.15-0.43,0.56-0.16,0.82c0.11,0.1,0.25,0.18,0.38,0.25c0.18,0.1,0.38,0.18,0.55,0.3c0.61,0.41,0.58,1.28-0.06,1.65
		c-0.18,0.1-0.39,0.15-0.59,0.19C248.43,158.63,248.06,158.55,247.65,158.43z"/>
	<path class="st1" d="M274.51,158.4c0.04-0.27,0.09-0.55,0.14-0.83c0.01-0.02,0.05-0.04,0.1-0.08c0.13,0.13,0.12,0.31,0.16,0.45
		c0.05,0.18,0.07,0.35,0.32,0.37c0.34,0.02,0.62-0.07,0.75-0.3c0.1-0.2,0.08-0.45-0.09-0.61c-0.1-0.1-0.23-0.17-0.35-0.24
		c-0.17-0.1-0.36-0.18-0.53-0.28c-0.34-0.2-0.51-0.5-0.48-0.91c0.03-0.39,0.24-0.66,0.59-0.81c0.5-0.22,1-0.15,1.52,0
		c-0.09,0.28-0.05,0.57-0.21,0.81c-0.02,0-0.05,0-0.07,0c-0.07-0.21-0.13-0.43-0.2-0.63c-0.18-0.09-0.36-0.09-0.54-0.04
		c-0.41,0.13-0.52,0.6-0.2,0.88c0.1,0.09,0.22,0.15,0.33,0.21c0.19,0.11,0.4,0.19,0.57,0.31c0.6,0.42,0.57,1.28-0.07,1.64
		c-0.18,0.1-0.39,0.15-0.59,0.19C275.31,158.62,274.88,158.56,274.51,158.4z"/>
	<path class="st1" d="M253.86,155.3c-0.03-0.08-0.06-0.16-0.09-0.24c-0.23-0.03-0.3,0.08-0.37,0.24c-0.24,0.6-0.48,1.19-0.72,1.79
		c-0.12,0.3-0.24,0.6-0.36,0.89c-0.07,0.16-0.14,0.31-0.34,0.35c-0.04,0.01-0.07,0.03-0.1,0.06c-0.02,0.01-0.04,0.03-0.06,0.04
		c0.27,0.11,0.95,0.1,1.11-0.02c-0.01-0.01-0.03-0.02-0.04-0.03c-0.03-0.02-0.05-0.04-0.08-0.05c-0.21-0.09-0.22-0.11-0.15-0.31
		c0.05-0.14,0.11-0.28,0.16-0.43c0.02-0.05,0.04-0.11,0.06-0.16h0.5h0.47c0.03,0.08,0.05,0.15,0.08,0.22
		c0.05,0.15,0.1,0.3,0.15,0.44c0.04,0.11,0.01,0.18-0.1,0.22c-0.01,0-0.03,0.01-0.05,0.01c-0.06,0.01-0.13,0.03-0.14,0.12
		c0.29,0.08,1.32,0.07,1.51-0.03c-0.01-0.01-0.02-0.02-0.03-0.03c-0.02-0.02-0.04-0.04-0.06-0.04c-0.27-0.04-0.36-0.23-0.44-0.46
		c-0.19-0.58-0.4-1.15-0.6-1.73c-0.06-0.16-0.11-0.32-0.17-0.49C253.95,155.55,253.91,155.42,253.86,155.3z M253.75,157.13h-0.74
		c0-0.01,0-0.03,0.01-0.04c0-0.03,0.01-0.06,0.02-0.09c0.1-0.28,0.21-0.56,0.38-0.85C253.53,156.47,253.63,156.79,253.75,157.13z"/>
	<path class="st1" d="M272.9,158.37c-0.02,0.01-0.04,0.02-0.06,0.03c0,0.03,0.01,0.06,0.02,0.1c0.17,0,0.33,0,0.5,0.01
		c0.05,0,0.09,0,0.14,0c0.12,0,0.25,0.01,0.38,0c0.04,0,0.09,0,0.13,0c0.12,0.01,0.24,0.02,0.37-0.08
		c-0.02-0.01-0.03-0.02-0.04-0.03c-0.02-0.01-0.03-0.03-0.05-0.03c-0.29-0.05-0.38-0.26-0.47-0.51c-0.22-0.64-0.45-1.28-0.67-1.93
		c-0.07-0.21-0.15-0.41-0.22-0.62c-0.02-0.06-0.04-0.11-0.06-0.16c-0.01-0.03-0.02-0.05-0.03-0.08c-0.21-0.04-0.29,0.07-0.36,0.23
		c-0.21,0.53-0.43,1.05-0.64,1.58c-0.15,0.37-0.3,0.73-0.45,1.1c-0.07,0.18-0.16,0.32-0.37,0.36c-0.03,0.01-0.06,0.03-0.1,0.06
		c-0.02,0.02-0.04,0.03-0.06,0.05c0.35,0.09,0.94,0.07,1.13-0.04c-0.02-0.01-0.05-0.03-0.07-0.04c-0.08-0.04-0.16-0.08-0.25-0.13
		c0.05-0.26,0.15-0.49,0.25-0.72c0.01-0.02,0.02-0.04,0.03-0.07h0.98c0.03,0.08,0.06,0.16,0.08,0.24c0.05,0.13,0.09,0.26,0.14,0.39
		c0.04,0.11,0.02,0.18-0.11,0.22C272.98,158.32,272.94,158.34,272.9,158.37z M272.61,156.57c0.07,0.19,0.13,0.38,0.19,0.57h-0.76
		c0.08-0.2,0.15-0.4,0.23-0.61c0.05-0.15,0.11-0.3,0.17-0.47C272.5,156.25,272.56,156.41,272.61,156.57z"/>
	<path class="st1" d="M290.99,155.43c-0.04-0.13-0.09-0.25-0.13-0.38c-0.22-0.03-0.3,0.08-0.37,0.24c-0.19,0.48-0.39,0.96-0.58,1.44
		c-0.17,0.41-0.33,0.81-0.49,1.22c-0.08,0.19-0.16,0.35-0.38,0.38c-0.03,0-0.05,0.03-0.08,0.06c-0.01,0.01-0.03,0.03-0.04,0.04
		c0.27,0.09,0.89,0.09,1.13-0.02c-0.03-0.01-0.05-0.03-0.07-0.04c-0.05-0.03-0.09-0.05-0.13-0.06c-0.11-0.04-0.16-0.1-0.11-0.21
		c0.04-0.11,0.08-0.23,0.12-0.34c0.04-0.11,0.08-0.21,0.12-0.32h0.98c0.03,0.07,0.05,0.15,0.08,0.22c0.07,0.19,0.15,0.38,0.16,0.58
		c-0.06,0.03-0.12,0.06-0.17,0.09c-0.05,0.03-0.09,0.05-0.14,0.07c0.14,0.1,0.28,0.09,0.41,0.09c0.03,0,0.06,0,0.09,0l0,0
		c0.17,0,0.34,0.01,0.51,0c0.05,0,0.1,0,0.14,0c0.12,0.01,0.23,0.02,0.33-0.07c0-0.01-0.01-0.02-0.01-0.02
		c0-0.01-0.01-0.01-0.01-0.02c-0.01,0-0.01-0.01-0.02-0.02c-0.02-0.01-0.03-0.03-0.05-0.03c-0.26-0.04-0.35-0.23-0.42-0.45
		c-0.13-0.38-0.26-0.76-0.39-1.13c-0.01-0.03-0.02-0.06-0.03-0.09C291.29,156.26,291.14,155.85,290.99,155.43z M290.47,156.16
		c0.01,0,0.02,0,0.03,0l0.33,0.98h-0.76c0.09-0.24,0.18-0.48,0.26-0.72c0.03-0.09,0.06-0.17,0.09-0.26
		C290.45,156.16,290.46,156.16,290.47,156.16z"/>
	<path class="st1" d="M224.96,158.22c0.14,0.06,0.29,0.11,0.47,0.19c-0.22,0.14-0.41,0.07-0.58,0.08c-0.18,0.01-0.36,0.01-0.54,0
		c-0.18-0.01-0.37,0.03-0.54-0.03c0-0.02-0.01-0.05-0.01-0.07c0.14-0.06,0.29-0.11,0.43-0.17c0-0.94,0-1.88,0-2.83
		c-0.22,0-0.43,0-0.65,0c-0.14,0.18-0.11,0.47-0.34,0.67c-0.1-0.34-0.07-0.64-0.1-0.95c1.01,0,1.98,0,2.97,0
		c-0.04,0.32-0.08,0.62-0.19,0.96c-0.23-0.21-0.16-0.49-0.29-0.68c-0.2,0-0.4,0-0.63,0C224.96,156.33,224.96,157.27,224.96,158.22z"
		/>
	<path class="st1" d="M296.08,156.04c-0.06-0.23-0.11-0.44-0.17-0.66c-0.21,0-0.42,0-0.62,0c-0.07,0.21-0.09,2.29-0.02,2.84
		c0.13,0.05,0.27,0.11,0.47,0.19c-0.23,0.12-0.41,0.07-0.58,0.07c-0.19,0.01-0.38,0.01-0.57,0c-0.17,0-0.35,0.03-0.51-0.03
		c0-0.02-0.01-0.05-0.01-0.07c0.14-0.06,0.28-0.11,0.43-0.18c0-0.94,0-1.88,0-2.83c-0.22,0-0.42,0-0.64,0
		c-0.16,0.17-0.1,0.48-0.38,0.68c-0.02-0.21-0.03-0.36-0.04-0.51c-0.01-0.14-0.02-0.28-0.03-0.42c0.18-0.06,2.7-0.07,2.98-0.01
		c-0.05,0.28-0.11,0.56-0.17,0.83C296.2,155.99,296.15,156,296.08,156.04z"/>
	<path class="st1" d="M288.67,158.42c-0.23,0.09-1.19,0.1-1.48,0c0.14-0.07,0.25-0.13,0.39-0.2c0-0.38,0-0.77,0-1.16
		c0-0.08-0.05-0.16-0.09-0.24c-0.21-0.38-0.43-0.77-0.64-1.15c-0.11-0.21-0.24-0.4-0.49-0.43c-0.04-0.01-0.09-0.03-0.17-0.07
		c0.25-0.1,1.29-0.12,1.66-0.07c0.01,0.22-0.27,0.1-0.32,0.32c0.19,0.35,0.4,0.75,0.65,1.21c0.21-0.46,0.45-0.85,0.59-1.25
		c-0.08-0.15-0.29-0.07-0.32-0.28c0.37,0,0.72,0,1.07,0c0.04,0.08,0.01,0.13-0.07,0.14c-0.24,0.03-0.35,0.2-0.45,0.4
		c-0.19,0.37-0.39,0.74-0.59,1.11c-0.08,0.14-0.11,0.28-0.11,0.44c0.01,0.27,0.01,0.54,0.01,0.8c-0.01,0.18,0.03,0.3,0.23,0.33
		C288.58,158.33,288.62,158.39,288.67,158.42z"/>
	<path class="st1" d="M277.12,158.39c0.12-0.05,0.24-0.1,0.36-0.15c0-0.96,0-1.92,0-2.85c-0.1-0.14-0.32-0.06-0.37-0.27
		c0.51,0,1,0,1.5,0c0.01,0.17-0.12,0.15-0.19,0.17c-0.14,0.03-0.19,0.11-0.18,0.24c0,0.87,0,1.74,0.01,2.61
		c0,0.03,0.01,0.06,0.02,0.1c0.12,0.05,0.24,0.11,0.37,0.16c0,0.02-0.01,0.04-0.01,0.07c-0.24,0.06-0.49,0.03-0.73,0.03
		c-0.25,0-0.5,0.04-0.75-0.03C277.12,158.44,277.12,158.41,277.12,158.39z"/>
	<path class="st1" d="M250.25,158.4c0.03-0.02,0.06-0.05,0.09-0.06c0.29-0.12,0.29-0.12,0.29-0.44c0-0.74,0-1.49,0-2.24
		c0-0.3,0-0.3-0.27-0.4c-0.03-0.01-0.07-0.03-0.09-0.06c-0.01-0.01-0.01-0.04-0.01-0.05c0.15-0.07,1.19-0.08,1.48-0.02
		c-0.02,0.21-0.25,0.1-0.34,0.28c0,0.89,0,1.85,0,2.83c0.11,0.05,0.23,0.1,0.38,0.17c-0.17,0.15-0.35,0.07-0.5,0.08
		c-0.17,0.01-0.34,0.01-0.51,0c-0.16,0-0.33-0.01-0.49-0.01C250.26,158.45,250.26,158.43,250.25,158.4z"/>
	<path class="st1" d="M227.41,155.1c0.49,0,0.97,0,1.46,0c-0.01,0.23-0.24,0.14-0.32,0.25c-0.06,0.31-0.07,2.54,0,2.9
		c0.11,0.05,0.22,0.1,0.37,0.16c-0.22,0.11-1.24,0.12-1.54,0.02c0.07-0.04,0.11-0.09,0.16-0.11c0.23-0.09,0.24-0.09,0.24-0.34
		c0-0.4,0-0.8,0-1.21c0-0.39,0-0.78,0-1.18c0-0.22,0.01-0.26-0.23-0.33C227.48,155.25,227.39,155.25,227.41,155.1z"/>
	<path class="st1" d="M299.8,155.23c-0.12-0.05-0.22-0.08-0.32-0.12c0-0.02,0-0.04,0-0.06c0.33-0.11,0.68-0.13,1.06-0.21
		c0,1.16,0,2.29,0,3.41c0.12,0.06,0.22,0.11,0.33,0.17c-0.18,0.1-1.03,0.12-1.39,0.05c0.04-0.17,0.23-0.11,0.31-0.19
		C299.87,158.02,299.88,155.6,299.8,155.23z"/>
	<path class="st1" d="M302.32,156.29c-0.23,0.12-0.43,0.2-0.6,0.32c-0.17,0.13-0.32,0.3-0.5,0.47c0.09,0.13,0.18,0.26,0.27,0.39
		c0.1,0.15,0.21,0.29,0.31,0.45c0.13,0.2,0.27,0.39,0.53,0.45c0.02,0,0.03,0.04,0.06,0.1c-0.16,0.01-0.3,0-0.43,0.02
		c-0.42,0.07-0.72-0.06-0.9-0.48c-0.11-0.25-0.31-0.46-0.48-0.7c0.29-0.3,0.58-0.58,0.87-0.87c-0.09-0.05-0.15-0.1-0.23-0.15
		C301.42,156.21,302.02,156.21,302.32,156.29z"/>
</g>
</svg>
