<svg width="741" height="322" viewBox="0 0 741 322" fill="none" xmlns="http://www.w3.org/2000/svg">
<path d="M59.8899 230.18H49.5299L34.4599 199.18C34.0199 199.18 33.4599 199.24 32.7699 199.24C32.0799 199.24 31.3199 199.24 30.4799 199.24L27.7599 199.3H24.9399C22.7799 199.35 20.4799 199.35 18.0199 199.3L18.2099 230.11L9.47994 230.24L9.60994 164.29C9.6621 162.888 9.47267 161.488 9.04994 160.15C8.74914 159.274 8.32486 158.446 7.78994 157.69L6.78994 156.69C6.37269 156.29 5.91718 155.931 5.42994 155.62C4.76232 155.203 4.05967 154.845 3.32994 154.55C2.30753 154.145 1.25837 153.811 0.189941 153.55V151C6.85661 151 12.6833 150.957 17.6699 150.87C22.6566 150.783 27.0133 150.817 30.7399 150.97C34.0446 151.078 37.3402 151.379 40.6099 151.87C43.3183 152.294 45.9603 153.067 48.4699 154.17C51.0899 155.498 53.3918 157.377 55.2179 159.678C57.044 161.979 58.3512 164.647 59.0499 167.5C59.6134 170.007 59.8852 172.571 59.8599 175.14C59.897 177.866 59.581 180.585 58.9199 183.23C58.3437 185.499 57.3464 187.639 55.9799 189.54C54.5749 191.431 52.8405 193.054 50.8599 194.33C48.5193 195.817 45.9991 196.999 43.3599 197.85L59.8899 230.18ZM34.9999 192.77C37.1503 192.78 39.278 192.33 41.2399 191.45C43.1932 190.571 44.9459 189.302 46.3899 187.72C47.9213 186.026 49.1068 184.049 49.8799 181.9C50.7759 179.454 51.2165 176.865 51.1799 174.26C51.2647 171.723 50.8467 169.195 49.9499 166.82C49.172 164.796 47.9799 162.957 46.4499 161.42C44.9838 159.968 43.2198 158.853 41.2799 158.15C39.2683 157.414 37.1419 157.042 34.9999 157.05H18.2099V192.77H34.9999Z" fill="white"/>
<path d="M138.58 224.61V232.05H88.5801V163.52C88.4862 162.199 88.224 160.895 87.8001 159.64C87.3919 158.64 86.7508 157.752 85.9301 157.05C85.1436 156.315 84.2744 155.674 83.3401 155.14C81.9422 154.367 80.435 153.811 78.8701 153.49L78.8101 150.96H138.6V159.05H97.7001V187.34H134.14V194.84H97.6801V224.61H138.58Z" fill="white"/>
<path d="M200.52 160.87C198.187 159.917 195.717 159 193.11 158.12C190.574 157.251 187.963 156.622 185.31 156.24C182.777 155.86 180.202 155.86 177.67 156.24C175.148 156.642 172.768 157.674 170.75 159.24C169.51 160.248 168.524 161.532 167.87 162.99C167.233 164.46 166.913 166.048 166.93 167.65C166.865 169.637 167.335 171.606 168.29 173.35C169.259 174.979 170.431 176.478 171.78 177.81C173.982 179.422 176.298 180.872 178.71 182.15C181.08 183.4 183.47 184.63 185.86 185.84C188.25 187.05 190.56 188.32 192.79 189.66C195.02 191.001 197.111 192.562 199.03 194.32C200.73 195.965 202.14 197.885 203.2 200C204.243 202.022 204.974 204.19 205.37 206.43C205.758 208.667 205.792 210.952 205.47 213.2C205.164 215.471 204.488 217.677 203.47 219.73C202.394 222.09 200.777 224.163 198.75 225.78C196.741 227.39 194.503 228.691 192.11 229.64C189.681 230.592 187.151 231.263 184.57 231.64C182.09 232.039 179.582 232.247 177.07 232.26C173.839 232.266 170.612 232.018 167.42 231.52C164.32 231.02 161.25 230.45 158.23 229.8V221.8C161.511 223.277 164.897 224.51 168.36 225.49C171.762 226.44 175.278 226.918 178.81 226.91C181.128 226.941 183.438 226.638 185.67 226.01C187.567 225.474 189.332 224.548 190.85 223.29C193.79 220.623 195.257 216.913 195.25 212.16C195.263 210.05 194.787 207.965 193.86 206.07C192.973 204.228 191.705 202.595 190.14 201.28C187.933 199.772 185.643 198.39 183.28 197.14L176.23 193.42C173.9 192.19 171.65 190.9 169.5 189.54C167.365 188.205 165.389 186.631 163.61 184.85C161.672 183.007 160.131 180.786 159.084 178.325C158.037 175.864 157.504 173.215 157.52 170.54C157.52 164.247 159.787 159.417 164.32 156.05C165.919 154.796 167.695 153.785 169.59 153.05C171.527 152.285 173.537 151.722 175.59 151.37C177.728 150.999 179.891 150.792 182.06 150.75C184.28 150.71 186.46 150.773 188.6 150.94C190.73 151.12 192.83 151.37 194.88 151.69C196.93 152.01 198.81 152.37 200.54 152.76L200.52 160.87Z" fill="white"/>
<path d="M243.49 208.76V230.76H234.1V164.36C234.157 162.924 233.96 161.488 233.52 160.12C233.21 159.253 232.772 158.437 232.22 157.7C231.92 157.35 231.59 156.97 231.22 156.56C230.811 156.121 230.343 155.74 229.83 155.43C229.154 155.029 228.452 154.671 227.73 154.36C226.713 153.94 225.662 153.606 224.59 153.36V151H243.49V208.76Z" fill="white"/>
<path d="M417.64 224.61V232.05H367.64V163.52C367.544 162.2 367.285 160.897 366.87 159.64C366.458 158.64 365.813 157.752 364.99 157.05C364.204 156.315 363.334 155.674 362.4 155.14C361.006 154.367 359.502 153.81 357.94 153.49L357.87 150.96H417.67V159.05H376.77V187.34H413.2V194.84H376.74V224.61H417.64Z" fill="white"/>
<path d="M510.12 231.6H503.39L453.1 168.05V231.86H445.92V160.41C445.616 159.314 445.089 158.292 444.37 157.41C443.548 156.54 442.584 155.817 441.52 155.27C439.965 154.502 438.254 154.105 436.52 154.11V151.11L452.89 151.17L503.11 213.49V151.22H510.11L510.12 231.6Z" fill="white"/>
<path d="M545.13 212.9C546.973 215.086 549.095 217.023 551.44 218.66C553.769 220.286 556.318 221.572 559.01 222.48C561.702 223.379 564.498 223.933 567.33 224.13C570.221 224.316 573.124 224.064 575.94 223.38C577.517 222.99 579.046 222.427 580.5 221.7C582.2 220.88 583.9 219.98 585.58 218.98C587.26 217.98 588.89 216.98 590.47 215.98C592.05 214.98 593.35 213.98 594.38 213.2V222.58C590.728 225.651 586.583 228.082 582.12 229.77C577.644 231.45 572.9 232.304 568.12 232.29C564.597 232.263 561.094 231.751 557.71 230.77C554.438 229.824 551.295 228.481 548.35 226.77C545.455 225.072 542.792 223.004 540.43 220.62C538.065 218.226 536.018 215.537 534.34 212.62C532.644 209.668 531.33 206.513 530.43 203.23C529.478 199.825 528.997 196.306 529 192.77C528.992 190.795 529.162 188.824 529.51 186.88C529.863 185.027 530.233 183.36 530.62 181.88C530.911 180.694 531.279 179.529 531.72 178.39C531.923 177.926 532.093 177.448 532.23 176.96C533.606 173.775 535.391 170.783 537.54 168.06C539.663 165.352 542.146 162.947 544.92 160.91C550.547 156.784 557.142 154.177 564.07 153.34C565.9 153.21 567.736 153.176 569.57 153.24C571.56 153.311 573.542 153.529 575.5 153.89C577.57 154.279 579.604 154.841 581.58 155.57C583.669 156.36 585.678 157.348 587.58 158.52C587.93 158.26 588.29 157.97 588.68 157.64C589.108 157.278 589.479 156.853 589.78 156.38C590.189 155.743 590.546 155.074 590.85 154.38C591.286 153.362 591.644 152.312 591.92 151.24H594.31V173.18H593.31C591.788 171.402 590.085 169.787 588.23 168.36C586.325 166.881 584.275 165.601 582.11 164.54C579.958 163.481 577.703 162.646 575.38 162.05C573.079 161.445 570.709 161.139 568.33 161.14C564.179 161.106 560.066 161.944 556.26 163.6C552.585 165.2 549.29 167.558 546.59 170.52C543.794 173.434 541.575 176.851 540.05 180.59C538.483 184.441 537.691 188.563 537.72 192.72C537.706 196.418 538.353 200.089 539.63 203.56C540.878 206.983 542.742 210.148 545.13 212.9V212.9Z" fill="white"/>
<path d="M673.08 224.61V232.05H623.08V163.52C622.986 162.199 622.724 160.895 622.3 159.64C621.892 158.64 621.251 157.752 620.43 157.05C619.644 156.315 618.774 155.674 617.84 155.14C616.443 154.365 614.935 153.809 613.37 153.49L613.31 150.96H673.11V159.05H632.21V187.34H668.64V194.84H632.18V224.61H673.08Z" fill="white"/>
<path d="M735 160.87C732.667 159.917 730.197 159 727.59 158.12C725.054 157.251 722.443 156.622 719.79 156.24C717.258 155.86 714.683 155.86 712.15 156.24C709.628 156.642 707.248 157.674 705.23 159.24C703.987 160.245 703 161.53 702.35 162.99C701.713 164.46 701.393 166.048 701.41 167.65C701.345 169.637 701.815 171.606 702.77 173.35C703.739 174.979 704.912 176.478 706.26 177.81C708.462 179.422 710.778 180.872 713.19 182.15C715.56 183.4 717.95 184.63 720.34 185.84C722.73 187.05 725.04 188.32 727.27 189.66C729.5 191.001 731.591 192.562 733.51 194.32C735.205 195.95 736.615 197.853 737.68 199.95C738.723 201.972 739.454 204.14 739.85 206.38C740.239 208.617 740.272 210.902 739.95 213.15C739.644 215.421 738.969 217.627 737.95 219.68C736.875 222.04 735.257 224.113 733.23 225.73C731.221 227.34 728.983 228.641 726.59 229.59C724.161 230.542 721.631 231.213 719.05 231.59C716.57 231.989 714.062 232.197 711.55 232.21C708.319 232.216 705.092 231.968 701.9 231.47C698.8 230.97 695.73 230.4 692.71 229.75V221.75C695.991 223.227 699.377 224.46 702.84 225.44C706.242 226.39 709.758 226.868 713.29 226.86C715.608 226.891 717.919 226.588 720.15 225.96C722.047 225.424 723.812 224.498 725.33 223.24C728.263 220.573 729.73 216.863 729.73 212.11C729.743 210 729.267 207.915 728.34 206.02C727.453 204.178 726.185 202.545 724.62 201.23C722.413 199.722 720.123 198.34 717.76 197.09L710.7 193.37C708.38 192.14 706.13 190.85 703.97 189.49C701.84 188.152 699.868 186.579 698.09 184.8C696.162 182.966 694.627 180.758 693.58 178.312C692.533 175.865 691.995 173.231 692 170.57C692 164.277 694.267 159.447 698.8 156.08C700.399 154.826 702.175 153.815 704.07 153.08C706.007 152.315 708.018 151.752 710.07 151.4C712.208 151.029 714.371 150.822 716.54 150.78C718.76 150.74 720.94 150.803 723.08 150.97C725.21 151.15 727.31 151.4 729.36 151.72C731.41 152.04 733.29 152.4 735.02 152.79L735 160.87Z" fill="white"/>
<path d="M337.52 180.9C336.589 177.531 335.245 174.29 333.52 171.25C331.831 168.279 329.764 165.54 327.37 163.1C324.981 160.667 322.293 158.547 319.37 156.79C316.414 155.011 313.237 153.629 309.92 152.68C306.49 151.699 302.938 151.207 299.37 151.22H274L262.41 151.48V153.94C263.517 154.209 264.601 154.566 265.65 155.01C266.379 155.328 267.072 155.72 267.72 156.18C268.198 156.514 268.634 156.903 269.02 157.34C269.32 157.71 269.62 158.06 269.92 158.41C270.147 158.647 270.351 158.905 270.53 159.18H297.53C301.919 159.137 306.274 159.952 310.35 161.58C314.163 163.101 317.622 165.392 320.51 168.31C323.398 171.258 325.663 174.758 327.17 178.6C328.801 182.738 329.616 187.152 329.57 191.6C329.619 196.08 328.804 200.528 327.17 204.7C325.686 208.538 323.427 212.028 320.532 214.954C317.638 217.879 314.172 220.175 310.35 221.7C306.279 223.347 301.922 224.173 297.53 224.13H281.53V168.63H272.15V232.18H299.4C302.984 232.201 306.553 231.713 310 230.73C313.317 229.781 316.494 228.399 319.45 226.62C325.342 223.069 330.214 218.053 333.59 212.06C335.315 208.999 336.659 205.738 337.59 202.35C339.484 195.325 339.484 187.925 337.59 180.9H337.52Z" fill="white"/>
<path d="M70.5902 16.19H47.8702V88.68H28.0002V16.19H0.220215V5C0.220215 3.67392 0.746995 2.40214 1.68468 1.46446C2.62236 0.52678 3.89413 0 5.22021 0H75.5902V11.16C75.5942 11.8191 75.4678 12.4725 75.2183 13.0826C74.9688 13.6927 74.6011 14.2475 74.1364 14.7149C73.6717 15.1824 73.1192 15.5534 72.5106 15.8065C71.902 16.0597 71.2494 16.19 70.5902 16.19V16.19Z" fill="white"/>
<path d="M179.66 5.00012V88.6801H159.76V51.9301H122.12V88.6801H102.23V0.000115898H117.09C118.416 0.000115898 119.688 0.526896 120.626 1.46458C121.563 2.40226 122.09 3.67403 122.09 5.00012V35.7101H159.73V0.000115898H174.6C175.262 -0.00782437 175.918 0.115643 176.532 0.363359C177.145 0.611075 177.704 0.978115 178.174 1.4432C178.645 1.90829 179.019 2.46217 179.274 3.07274C179.529 3.68331 179.66 4.33843 179.66 5.00012Z" fill="white"/>
<path d="M234.52 15.3V35.71H279.13V50.53H234.52V73.35H277.14C278.466 73.35 279.738 73.8768 280.676 74.8145C281.613 75.7522 282.14 77.0239 282.14 78.35V88.65H214.62V0H282.17V10.3C282.17 11.6261 281.643 12.8979 280.706 13.8355C279.768 14.7732 278.496 15.3 277.17 15.3H234.52Z" fill="white"/>
<path d="M446.14 5.16089e-05V88.7101H427V29.7501L401.4 64.48H399.4L373.8 29.7501V88.68H354.64V5.16089e-05H370.17C370.974 -0.00199562 371.766 0.189613 372.479 0.558645C373.193 0.927677 373.807 1.46327 374.27 2.12005L400.39 38.9101L426.51 2.12005C426.974 1.46188 427.59 0.925426 428.305 0.556326C429.021 0.187226 429.815 -0.00360622 430.62 5.16089e-05H446.14Z" fill="white"/>
<path d="M538.38 69.8H501.63L494.63 88.68H473.88L509.36 4.35092e-05H527.13C528.136 -0.00415214 529.12 0.295186 529.953 0.858945C530.786 1.42271 531.43 2.22467 531.8 3.16005L566.14 88.7101H545.35L538.38 69.8ZM532.94 54.8L520.01 19.8L507.08 54.8H532.94Z" fill="white"/>
<path d="M643.18 58.65C643.187 62.6746 642.825 66.6913 642.1 70.65C641.47 74.3482 640.074 77.8738 638 81C635.807 84.144 632.809 86.641 629.32 88.23C625.547 90.0767 620.62 91 614.54 91C607.44 91 601.44 89.31 596.54 85.93C592.9 83.3776 590.131 79.768 588.61 75.59C588.351 74.9194 588.237 74.2012 588.277 73.4833C588.317 72.7653 588.509 72.0641 588.841 71.4263C589.173 70.7886 589.638 70.2289 590.203 69.7847C590.768 69.3404 591.422 69.0218 592.12 68.85L605.12 65.66C605.369 67.8326 606.443 69.8265 608.12 71.23C609.727 72.7035 611.83 73.5176 614.01 73.51C615.938 73.6278 617.841 73.0176 619.34 71.8C620.612 70.646 621.569 69.1867 622.12 67.56C622.728 65.7806 623.091 63.927 623.2 62.05C623.33 60.05 623.39 58.22 623.39 56.53V0H638.12C639.446 0 640.718 0.52678 641.656 1.46446C642.593 2.40214 643.12 3.67392 643.12 5L643.18 58.65Z" fill="white"/>
<path d="M9.49023 321.33V292.53H23.6502C28.9702 292.53 31.8602 295.81 31.8602 299.87C31.924 301.38 31.4596 302.865 30.5471 304.069C29.6346 305.274 28.3309 306.123 26.8602 306.47C28.4596 306.803 29.892 307.686 30.9093 308.964C31.9266 310.243 32.4646 311.837 32.4302 313.47C32.4302 317.96 29.4902 321.29 24.0502 321.29L9.49023 321.33ZM26.6802 300.69C26.6802 298.57 25.2102 296.98 22.6802 296.98H14.5602V304.4H22.6802C25.2102 304.4 26.6802 302.89 26.6802 300.69V300.69ZM27.2402 312.86C27.2402 310.71 25.7302 308.86 22.8802 308.86H14.5402V316.86H22.8802C25.6002 316.88 27.2402 315.37 27.2402 312.86Z" fill="white"/>
<path d="M48.3198 321.33V292.53H68.0498V297H53.3698V304.42H67.7498V308.87H53.3698V316.87H68.0498V321.32L48.3198 321.33Z" fill="white"/>
<path d="M101.26 321.33L91.63 309.15L89.08 312.15V321.35H84V292.55H89.05V306.23L100.32 292.55H106.58L94.88 306.11L107.49 321.35L101.26 321.33Z" fill="white"/>
<path d="M141.85 321.33L139.74 315.76H126.53L124.41 321.33H118.67L130 292.53H136.31L147.62 321.33H141.85ZM133.13 297.58L128 311.31H138.36L133.13 297.58Z" fill="white"/>
<path d="M159.22 317.27L162.07 313.34C163.231 314.599 164.639 315.605 166.207 316.293C167.775 316.981 169.468 317.338 171.18 317.34C175.33 317.34 176.92 315.34 176.92 313.34C176.92 307.34 160.17 311.05 160.17 300.48C160.17 295.68 164.32 292.01 170.66 292.01C172.633 291.942 174.6 292.266 176.447 292.963C178.293 293.66 179.984 294.716 181.42 296.07L178.56 299.83C177.454 298.75 176.145 297.9 174.708 297.328C173.272 296.756 171.736 296.475 170.19 296.5C167.25 296.5 165.35 297.97 165.35 300.09C165.35 305.48 182.11 302.16 182.11 312.87C182.11 317.66 178.7 321.8 170.97 321.8C165.66 321.84 161.81 320 159.22 317.27Z" fill="white"/>
<path d="M197.53 321.33V292.53H202.58V321.33H197.53Z" fill="white"/>
</svg>
