<svg height="512pt" viewBox="-31 0 512 512" width="512pt" xmlns="http://www.w3.org/2000/svg"><path d="m450 226c0 68.097656-30.300781 131.699219-83.402344 175.199219l-132.898437 91-8.699219-5.101563-141.597656-85.898437c-53.101563-43.5-83.402344-107.101563-83.402344-175.199219 0-124.199219 100.800781-226 225-226s225 101.800781 225 226zm0 0" fill="#ffda2d"/><path d="m450 226c0 68.097656-30.300781 131.699219-83.402344 175.199219l-132.898437 91-8.699219-5.101563v-487.097656c124.199219 0 225 101.800781 225 226zm0 0" fill="#fdbf00"/><path d="m297.597656 326.199219c-4.199218 6.902343-13.796875 9-20.699218 4.800781-15.898438-10.199219-33.898438-15-51.898438-15s-36 4.800781-51.898438 15c-7.199218 4.5-16.5 2.398438-20.699218-4.800781-4.503906-6.898438-2.402344-16.199219 4.496094-20.699219 20.699218-12.902344 44.402343-19.5 68.101562-19.5s47.402344 6.597656 68.101562 19.5c6.898438 4.5 9 13.800781 4.496094 20.699219zm0 0" fill="#ff637b"/><path d="m297.597656 326.199219c-4.199218 6.902343-13.796875 9-20.699218 4.800781-15.898438-10.199219-33.898438-15-51.898438-15v-30c23.699219 0 47.402344 6.597656 68.101562 19.5 6.898438 4.5 9 13.800781 4.496094 20.699219zm0 0" fill="#e63950"/><path d="m450 436c0 51.597656-116.699219 76-225 76s-225-24.402344-225-76c0-26.699219 30.902344-47.699219 89.699219-61.199219h.300781v-205.199219h90v126.898438 149.398438c14.699219 3 29.699219 5.101562 45 5.101562s30.300781-2.101562 45-5.101562v-276.296876h90l.300781 205.199219c58.796875 13.5 89.699219 34.5 89.699219 61.199219zm0 0" fill="#7ed8f6"/><path d="m450 436c0 51.597656-116.699219 76-225 76v-61c15.300781 0 30.300781-2.101562 45-5.101562v-276.296876h90l.300781 205.199219c58.796875 13.5 89.699219 34.5 89.699219 61.199219zm0 0" fill="#6aa9ff"/><path d="m195 181h-120c-8.289062 0-15-6.710938-15-15s6.710938-15 15-15h120c8.289062 0 15 6.710938 15 15s-6.710938 15-15 15zm0 0" fill="#895d3c"/><path d="m375 181h-120c-8.289062 0-15-6.710938-15-15s6.710938-15 15-15h120c8.289062 0 15 6.710938 15 15s-6.710938 15-15 15zm0 0" fill="#714c2f"/></svg>