<svg width="24" height="25" viewBox="0 0 24 25" fill="none" xmlns="http://www.w3.org/2000/svg">
<path d="M19.5 3.01367H4.5C3.67125 3.01367 3 3.68797 3 4.52048V19.5885C3 20.421 3.67125 21.0953 4.5 21.0953H12.75V14.3147H10.5V11.3011H12.75V9.35205C12.75 7.0165 14.1698 5.74476 16.2443 5.74476C17.238 5.74476 18.0915 5.81934 18.3405 5.85249V8.29352L16.902 8.29427C15.774 8.29427 15.5557 8.83295 15.5557 9.62252V11.3011H18.8857L18.1357 14.3147H15.5557V21.0953H19.5C20.3288 21.0953 21 20.421 21 19.5885V4.52048C21 3.68797 20.3288 3.01367 19.5 3.01367Z" fill="white"/>
</svg>
