<svg width="24" height="25" viewBox="0 0 24 25" fill="none" xmlns="http://www.w3.org/2000/svg">
<path fill-rule="evenodd" clip-rule="evenodd" d="M8.289 3.06792C9.249 3.02422 9.55575 3.01367 12 3.01367C14.4443 3.01367 14.751 3.02422 15.711 3.06792C17.1735 3.13497 18.4583 3.4951 19.4895 4.53102C20.5208 5.56695 20.8792 6.85753 20.946 8.32667C20.9895 9.29102 21 9.59916 21 12.0545C21 14.5098 20.9895 14.818 20.946 15.7823C20.8792 17.2515 20.5208 18.5421 19.4895 19.578C18.4583 20.6139 17.1735 20.974 15.711 21.0411C14.751 21.0848 14.4443 21.0953 12 21.0953C9.55575 21.0953 9.249 21.0848 8.289 21.0411C6.8265 20.974 5.54175 20.6139 4.5105 19.578C3.47925 18.5421 3.12075 17.2515 3.054 15.7823C3.0105 14.818 3 14.5098 3 12.0545C3 9.59916 3.0105 9.29102 3.054 8.32667C3.12075 6.85753 3.47925 5.56695 4.5105 4.53102C5.54175 3.4951 6.8265 3.13497 8.289 3.06792ZM15.6368 4.69527C14.688 4.65157 14.403 4.64253 12 4.64253C9.597 4.64253 9.312 4.65157 8.36325 4.69527C7.33875 4.74198 6.3885 4.94841 5.65725 5.68298C4.926 6.41755 4.7205 7.37211 4.674 8.40126C4.6305 9.35431 4.6215 9.6406 4.6215 12.0545C4.6215 14.4684 4.6305 14.7547 4.674 15.7078C4.7205 16.7369 4.926 17.6915 5.65725 18.426C6.3885 19.1606 7.33875 19.367 8.36325 19.4137C9.312 19.4574 9.597 19.4665 12 19.4665C14.403 19.4665 14.688 19.4574 15.6368 19.4137C16.6613 19.367 17.6115 19.1606 18.3427 18.426C19.074 17.6915 19.2795 16.7369 19.326 15.7078C19.3695 14.7547 19.3785 14.4684 19.3785 12.0545C19.3785 9.6406 19.3695 9.35431 19.326 8.40126C19.2795 7.37211 19.074 6.41755 18.3427 5.68298C17.6115 4.94841 16.6613 4.74198 15.6368 4.69527ZM7.3785 12.0545C7.3785 9.49067 9.44775 7.41204 12 7.41204C14.5522 7.41204 16.6215 9.49067 16.6215 12.0545C16.6215 14.6183 14.5522 16.697 12 16.697C9.44775 16.697 7.3785 14.6183 7.3785 12.0545ZM9 12.0545C9 13.7188 10.3433 15.0681 12 15.0681C13.6567 15.0681 15 13.7188 15 12.0545C15 10.3902 13.6567 9.04089 12 9.04089C10.3433 9.04089 9 10.3902 9 12.0545ZM17.8845 7.22821C17.8845 7.82738 17.401 8.31311 16.8045 8.31311C16.208 8.31311 15.7245 7.82738 15.7245 7.22821C15.7245 6.62903 16.208 6.14331 16.8045 6.14331C17.401 6.14331 17.8845 6.62903 17.8845 7.22821Z" fill="white"/>
</svg>
