<svg width="100" height="18" viewBox="0 0 100 18" fill="none" xmlns="http://www.w3.org/2000/svg">
<path d="M60.2232 13.886C60.033 13.6958 59.7199 13.5853 59.4559 13.5853C58.9771 13.5853 58.6395 13.9658 58.6395 14.426C58.6395 14.8556 58.9342 15.2667 59.4928 15.2667C59.726 15.2667 59.9961 15.1992 60.1496 15.0887V14.6408H59.4498V14.2971H60.4995V15.2728C60.2171 15.4753 59.8242 15.6042 59.4744 15.6042C58.7684 15.6042 58.2405 15.0765 58.2405 14.4199C58.2405 13.7633 58.7746 13.2417 59.4559 13.2417C59.812 13.2417 60.1864 13.3828 60.4933 13.6467L60.2232 13.886Z" fill="white"/>
<path d="M61.8806 15.5429V13.3154H63.1083C63.4029 13.3154 63.6116 13.3952 63.7528 13.5486C63.8633 13.6652 63.9308 13.8247 63.9308 13.9966C63.9308 14.2972 63.7344 14.5243 63.4398 14.6347L63.9738 15.5429H63.5318L63.053 14.6838H62.2612V15.5429H61.8806V15.5429ZM62.2612 13.6529V14.3402H63.1758C63.3784 14.3402 63.5503 14.1807 63.5503 13.9904C63.5503 13.9045 63.5134 13.8309 63.4582 13.7695C63.3538 13.6591 63.2311 13.6529 63.1083 13.6529H62.2612Z" fill="white"/>
<path d="M66.3002 13.2417C67 13.2417 67.5647 13.7694 67.5647 14.4199C67.5647 15.0826 67.0061 15.6042 66.3002 15.6042C65.5943 15.6042 65.048 15.0765 65.048 14.4199C65.048 13.7694 65.6004 13.2417 66.3002 13.2417ZM66.3002 15.2667C66.779 15.2667 67.1596 14.8862 67.1596 14.4199C67.1596 13.9596 66.779 13.5853 66.3002 13.5853C65.8214 13.5853 65.4531 13.9596 65.4531 14.4199C65.4531 14.8862 65.8275 15.2667 66.3002 15.2667Z" fill="white"/>
<path d="M70.7628 13.3154V14.7513C70.7628 15.2975 70.3393 15.6104 69.7745 15.6104C69.2098 15.6104 68.7863 15.2975 68.7863 14.7513V13.3154H69.1668V14.7513C69.1668 15.0827 69.4308 15.2668 69.7684 15.2668C70.1121 15.2668 70.3761 15.0827 70.3761 14.7513V13.3154H70.7628Z" fill="white"/>
<path d="M72.1931 15.5429V13.3154H73.4208C73.7339 13.3154 73.9303 13.4013 74.0653 13.5486C74.182 13.6775 74.2433 13.8309 74.2433 13.9966C74.2433 14.1868 74.1635 14.3525 74.0408 14.4752C73.9057 14.6041 73.7216 14.6838 73.4208 14.6838H72.5737V15.5429H72.1931V15.5429ZM72.5737 13.6529V14.3402H73.4208C73.519 14.3402 73.6479 14.3341 73.7584 14.2297C73.8259 14.1684 73.8628 14.0825 73.8628 13.9966C73.8628 13.9107 73.8259 13.8309 73.7707 13.7695C73.6663 13.6591 73.5313 13.6529 73.4208 13.6529H72.5737V13.6529Z" fill="white"/>
<path d="M62.8075 4.05566H61.3343V8.76222H60.0391V4.05566H58.2344V3.33157C58.2344 3.15362 58.3817 3.00635 58.5597 3.00635H63.1328V3.73043C63.1328 3.90839 62.9855 4.05566 62.8075 4.05566Z" fill="white"/>
<path d="M69.8912 3.33136V8.76815H68.596V6.37498H66.1529V8.76201H64.8577V3H65.8214C65.9994 3 66.1467 3.14727 66.1467 3.32523V5.31953H68.5898V3H69.5535C69.7438 3 69.8912 3.14727 69.8912 3.33136Z" fill="white"/>
<path d="M73.4576 4.00022V5.32567H76.3549V6.28907H73.4576V7.76793H76.226C76.404 7.76793 76.5514 7.9152 76.5514 8.09315V8.76201H72.1624V3H76.5514V3.66886C76.5514 3.84681 76.404 3.99409 76.226 3.99409H73.4576V4.00022Z" fill="white"/>
<path d="M87.2015 3V8.76201H85.9554V4.93908L84.2919 7.19111H84.163L82.4995 4.93908V8.76815H81.2595V3H82.2662C82.3706 3 82.4688 3.04909 82.5302 3.135L84.2244 5.52203L85.9186 3.135C85.9799 3.04909 86.0781 3 86.1825 3H87.2015V3Z" fill="white"/>
<path d="M93.1925 7.53475H90.8047L90.3504 8.76201H89L91.3019 3H92.4559C92.591 3 92.7076 3.07977 92.7567 3.2025L94.9849 8.75588H93.6345L93.1925 7.53475ZM92.8365 6.56521L91.9955 4.29477L91.1546 6.56521H92.8365Z" fill="white"/>
<path d="M100 6.81066C100 7.08066 99.9754 7.33838 99.9325 7.58997C99.8834 7.84156 99.7974 8.06861 99.6624 8.25883C99.5335 8.45519 99.3432 8.6086 99.0976 8.72519C98.8521 8.84178 98.5329 8.90315 98.1401 8.90315C97.6797 8.90315 97.2868 8.79269 96.9738 8.57178C96.7405 8.41224 96.5686 8.19133 96.4581 7.90292C96.3845 7.71883 96.495 7.5102 96.6853 7.46725L97.5324 7.25861C97.5508 7.39975 97.6121 7.52247 97.7288 7.62065C97.8393 7.71884 97.9682 7.76793 98.1094 7.76793C98.2567 7.76793 98.3733 7.73111 98.4531 7.65747C98.5329 7.58384 98.5943 7.49179 98.6311 7.38134C98.668 7.27088 98.6925 7.15429 98.6986 7.02543C98.7048 6.89657 98.7109 6.77998 98.7109 6.66952V3H99.6685C99.8465 3 99.9939 3.14727 99.9939 3.32523V6.81066H100Z" fill="white"/>
<path d="M42.5078 14.2487H37.904C37.7812 14.2487 37.6769 14.1444 37.6769 14.0216V9.42553C37.6769 9.3028 37.7812 9.19849 37.904 9.19849H40.6663C40.789 9.19849 40.8934 9.3028 40.8934 9.42553V12.1869C40.8934 12.3096 40.789 12.4139 40.6663 12.4139H39.7455C39.6228 12.4139 39.5184 12.3096 39.5184 12.1869V10.573H39.0519V12.8803H41.3599V9.42553C41.3599 9.3028 41.4643 9.19849 41.587 9.19849H42.5078C42.6306 9.19849 42.7349 9.3028 42.7349 9.42553V14.0216C42.7288 14.1444 42.6306 14.2487 42.5078 14.2487ZM38.1311 13.7946H42.2745V9.65258H41.808V13.1073C41.808 13.2301 41.7037 13.3344 41.5809 13.3344H38.8186C38.6959 13.3344 38.5915 13.2301 38.5915 13.1073V10.346C38.5915 10.2233 38.6959 10.1189 38.8186 10.1189H39.7394C39.8621 10.1189 39.9665 10.2233 39.9665 10.346V11.9598H40.433V9.65258H38.1311V13.7946Z" fill="white"/>
<path d="M42.5078 8.72573H41.587C41.4643 8.72573 41.3599 8.62142 41.3599 8.49869V5.05007H39.0519V7.35733H39.5184V5.74348C39.5184 5.62075 39.6228 5.51644 39.7455 5.51644H40.6663C40.789 5.51644 40.8934 5.62075 40.8934 5.74348V8.50483C40.8934 8.62755 40.789 8.73187 40.6663 8.73187H37.904C37.7812 8.73187 37.6769 8.62755 37.6769 8.50483V3.90258C37.6769 3.77985 37.7812 3.67554 37.904 3.67554H42.5017C42.6244 3.67554 42.7288 3.77985 42.7288 3.90258V8.49869C42.7288 8.62755 42.6306 8.72573 42.5078 8.72573ZM41.8142 8.27778H42.2807V4.12963H38.1311V8.27165H40.4392V5.97052H39.9726V7.58438C39.9726 7.7071 39.8683 7.81142 39.7455 7.81142H38.8248C38.702 7.81142 38.5976 7.7071 38.5976 7.58438V4.82303C38.5976 4.7003 38.702 4.59599 38.8248 4.59599H41.587C41.7098 4.59599 41.8142 4.7003 41.8142 4.82303V8.27778V8.27778Z" fill="white"/>
<path d="M48.0262 8.72573H45.264C45.1412 8.72573 45.0368 8.62142 45.0368 8.49869V5.73734C45.0368 5.61462 45.1412 5.5103 45.264 5.5103H46.1847C46.3075 5.5103 46.4118 5.61462 46.4118 5.73734V7.3512H46.8783V5.05007H44.5703V8.50483C44.5703 8.62755 44.466 8.73187 44.3432 8.73187H43.4224C43.2997 8.73187 43.1953 8.62755 43.1953 8.50483V3.90258C43.1953 3.77985 43.2997 3.67554 43.4224 3.67554H48.0201C48.1429 3.67554 48.2472 3.77985 48.2472 3.90258V8.49869C48.2533 8.62755 48.149 8.72573 48.0262 8.72573ZM45.4911 8.27778H47.7991V4.12963H43.6557V8.27165H44.1222V4.82303C44.1222 4.7003 44.2266 4.59599 44.3493 4.59599H47.1116C47.2344 4.59599 47.3387 4.7003 47.3387 4.82303V7.58438C47.3387 7.7071 47.2344 7.81142 47.1116 7.81142H46.1908C46.0681 7.81142 45.9637 7.7071 45.9637 7.58438V5.97052H45.4972V8.27778H45.4911Z" fill="white"/>
<path d="M48.0262 14.2487H43.4285C43.3058 14.2487 43.2014 14.1444 43.2014 14.0216V9.42553C43.2014 9.3028 43.3058 9.19849 43.4285 9.19849H44.3493C44.4721 9.19849 44.5764 9.3028 44.5764 9.42553V12.8803H46.8845V10.573H46.4179V12.1869C46.4179 12.3096 46.3136 12.4139 46.1908 12.4139H45.2701C45.1473 12.4139 45.0429 12.3096 45.0429 12.1869V9.42553C45.0429 9.3028 45.1473 9.19849 45.2701 9.19849H48.0323C48.1551 9.19849 48.2595 9.3028 48.2595 9.42553V14.0216C48.2533 14.1444 48.149 14.2487 48.0262 14.2487ZM43.6495 13.7946H47.7929V9.65258H45.4849V11.9598H45.9514V10.346C45.9514 10.2233 46.0558 10.1189 46.1785 10.1189H47.0993C47.2221 10.1189 47.3264 10.2233 47.3264 10.346V13.1073C47.3264 13.2301 47.2221 13.3344 47.0993 13.3344H44.337C44.2143 13.3344 44.1099 13.2301 44.1099 13.1073V9.65258H43.6434V13.7946H43.6495Z" fill="white"/>
<path d="M49.8616 16.0835H43.4224C43.2997 16.0835 43.1953 15.9792 43.1953 15.8565V14.936C43.1953 14.8133 43.2997 14.709 43.4224 14.709H48.7137V3.2095H43.4224C43.2997 3.2095 43.1953 3.10518 43.1953 2.98245V2.062C43.1953 1.93928 43.2997 1.83496 43.4224 1.83496H49.8616C49.9844 1.83496 50.0887 1.93928 50.0887 2.062V15.8565C50.0887 15.9853 49.9905 16.0835 49.8616 16.0835ZM43.6496 15.6356H49.6345V2.29519H43.6496V2.76155H48.9408C49.0636 2.76155 49.168 2.86586 49.168 2.98859V14.9422C49.168 15.0649 49.0636 15.1692 48.9408 15.1692H43.6496V15.6356Z" fill="white"/>
<path d="M42.5078 16.0835H36.0686C35.9458 16.0835 35.8415 15.9792 35.8415 15.8564V2.06811C35.8415 1.94538 35.9458 1.84106 36.0686 1.84106H42.5078C42.6306 1.84106 42.7349 1.94538 42.7349 2.06811V2.98856C42.7349 3.11128 42.6306 3.2156 42.5078 3.2156H37.2104V14.7151H42.5016C42.6244 14.7151 42.7288 14.8194 42.7288 14.9421V15.8626C42.7288 15.9853 42.6306 16.0835 42.5078 16.0835ZM36.2896 15.6355H42.2745V15.1692H36.9832C36.8605 15.1692 36.7561 15.0648 36.7561 14.9421V2.98242C36.7561 2.85969 36.8605 2.75538 36.9832 2.75538H42.2745V2.28902H36.2896V15.6355Z" fill="white"/>
<path d="M35.1479 13.4632C35.0251 13.4632 34.9208 13.3589 34.9208 13.2361V4.68823C34.9208 4.5655 35.0251 4.46118 35.1479 4.46118C35.2707 4.46118 35.375 4.5655 35.375 4.68823V13.2423C35.375 13.365 35.2707 13.4632 35.1479 13.4632Z" fill="white"/>
<path d="M34.2271 10.6282C34.1044 10.6282 34 10.5239 34 10.4012V7.51708C34 7.39436 34.1044 7.29004 34.2271 7.29004C34.3499 7.29004 34.4542 7.39436 34.4542 7.51708V10.4012C34.4542 10.53 34.3499 10.6282 34.2271 10.6282Z" fill="white"/>
<path d="M47.2405 1.3745H38.6898C38.567 1.3745 38.4626 1.27018 38.4626 1.14745C38.4626 1.02473 38.567 0.92041 38.6898 0.92041H47.2467C47.3695 0.92041 47.4738 1.02473 47.4738 1.14745C47.4738 1.27018 47.3695 1.3745 47.2405 1.3745Z" fill="white"/>
<path d="M44.4046 0.454088H41.5195C41.3968 0.454088 41.2924 0.349771 41.2924 0.227044C41.2924 0.104318 41.3968 0 41.5195 0H44.4046C44.5273 0 44.6317 0.104318 44.6317 0.227044C44.6317 0.349771 44.5335 0.454088 44.4046 0.454088Z" fill="white"/>
<path d="M47.2405 17.0034H38.6898C38.567 17.0034 38.4626 16.8991 38.4626 16.7764C38.4626 16.6536 38.567 16.5493 38.6898 16.5493H47.2467C47.3695 16.5493 47.4738 16.6536 47.4738 16.7764C47.4677 16.9052 47.3695 17.0034 47.2405 17.0034Z" fill="white"/>
<path d="M44.4046 17.9243H41.5195C41.3968 17.9243 41.2924 17.82 41.2924 17.6973C41.2924 17.5745 41.3968 17.4702 41.5195 17.4702H44.4046C44.5273 17.4702 44.6317 17.5745 44.6317 17.6973C44.6317 17.8261 44.5335 17.9243 44.4046 17.9243Z" fill="white"/>
<path d="M50.7824 13.4632C50.6596 13.4632 50.5552 13.3589 50.5552 13.2361V4.68823C50.5552 4.5655 50.6596 4.46118 50.7824 4.46118C50.9051 4.46118 51.0095 4.5655 51.0095 4.68823V13.2423C51.0095 13.365 50.9113 13.4632 50.7824 13.4632Z" fill="white"/>
<path d="M51.7031 10.6282C51.5804 10.6282 51.476 10.5239 51.476 10.4012V7.51708C51.476 7.39436 51.5804 7.29004 51.7031 7.29004C51.8259 7.29004 51.9302 7.39436 51.9302 7.51708V10.4012C51.9302 10.53 51.832 10.6282 51.7031 10.6282Z" fill="white"/>
<path d="M0.932846 11.454V9.89708H2.04963C2.99562 9.89708 3.52117 9.24671 3.52117 8.48467C3.52117 7.71606 3.00219 7.07226 2.04963 7.07226H0V11.454H0.932846ZM1.92482 9.07591H0.932846V7.89343H1.92482C2.2927 7.89343 2.56861 8.11679 2.56861 8.48467C2.56861 8.84598 2.2927 9.07591 1.92482 9.07591ZM7.698 11.454L6.00968 7.07226H4.84033L3.14544 11.454H4.20968L4.48559 10.7117H6.36442L6.63377 11.454H7.698ZM6.10822 9.89051H4.74179L5.42501 8.00511L6.10822 9.89051ZM11.65 11.454L10.6646 9.7854C11.1376 9.67372 11.6238 9.25985 11.6238 8.48467C11.6238 7.67007 11.0654 7.07226 10.1522 7.07226H8.1026V11.454H9.03544V9.89708H9.71866L10.5792 11.454H11.65ZM10.0143 9.07591H9.03544V7.89343H10.0143C10.3887 7.89343 10.6712 8.11679 10.6712 8.48467C10.6712 8.85255 10.3887 9.07591 10.0143 9.07591ZM14.2108 11.454V7.89343H15.4853V7.07226H11.9904V7.89343H13.2714V11.454H14.2108ZM19.8401 11.5328C21.1671 11.5328 22.1328 10.5869 22.1328 9.26642C22.1328 7.94599 21.1671 7 19.8401 7C18.5197 7 17.554 7.94599 17.554 9.26642C17.554 10.5869 18.5197 11.5328 19.8401 11.5328ZM19.8401 10.7051C19.0321 10.7051 18.5131 10.081 18.5131 9.26642C18.5131 8.44526 19.0321 7.82774 19.8401 7.82774C20.6481 7.82774 21.1737 8.44526 21.1737 9.26642C21.1737 10.081 20.6481 10.7051 19.8401 10.7051ZM23.7203 11.454V9.64087H25.8422V8.81971H23.7203V7.89343H25.8881V7.07226H22.7874V11.454H23.7203Z" fill="white"/>
</svg>
