<svg width="24" height="25" viewBox="0 0 24 25" fill="none" xmlns="http://www.w3.org/2000/svg">
<path fill-rule="evenodd" clip-rule="evenodd" d="M22 6.40457C21.2875 6.76243 20.575 6.88172 19.7437 7.00101C20.575 6.52385 21.1688 5.80812 21.4062 4.85381C20.6938 5.33097 19.8625 5.56954 18.9125 5.80812C18.2 5.09239 17.1313 4.61523 16.0625 4.61523C14.0437 4.61523 12.2625 6.40457 12.2625 8.55176C12.2625 8.90963 12.2625 9.14821 12.3813 9.38679C9.175 9.2675 6.20625 7.71674 4.30625 5.33097C3.95 5.92741 3.83125 6.52385 3.83125 7.35888C3.83125 8.67105 4.54375 9.86394 5.6125 10.5797C5.01875 10.5797 4.425 10.3411 3.83125 10.1025C3.83125 12.0111 5.1375 13.5619 6.91875 13.9198C6.5625 14.039 6.20625 14.039 5.85 14.039C5.6125 14.039 5.375 14.039 5.1375 13.9198C5.6125 15.4705 7.0375 16.6634 8.81875 16.6634C7.5125 17.737 5.85 18.3334 3.95 18.3334C3.59375 18.3334 3.35625 18.3334 3 18.3334C4.78125 19.407 6.8 20.1228 8.9375 20.1228C16.0625 20.1228 19.9813 14.1583 19.9813 9.02892C19.9813 8.90963 19.9813 8.67105 19.9813 8.55176C20.8125 7.95532 21.525 7.23959 22 6.40457Z" fill="white"/>
</svg>
